<svg width="360" height="640" viewBox="0 0 360 640" fill="none" xmlns="http://www.w3.org/2000/svg">
<g id="Android - 1" clip-path="url(#clip0)">
<rect width="360" height="640" fill="white"/>
<g id="hex">
<path id="hex_2" d="M292.606 -21.491L268.109 -35.7361L243.347 -21.491V6.99907L267.976 21.2441L292.606 6.99907V-21.491Z" fill="#F0E09C" stroke="#E7C943" stroke-width="3"/>
<path id="hex_3" d="M342.13 -21.491L317.634 -35.7361L292.872 -21.491V6.99907L317.501 21.2441L342.13 6.99907V-21.491Z" fill="#F0E09C" stroke="#E7C943" stroke-width="3"/>
<path id="hex_4" d="M317.102 21.6435L292.606 7.39844L267.843 21.6435V50.1336L292.472 64.3786L317.102 50.1336V21.6435Z" fill="#F0E09C" stroke="#E7C943" stroke-width="3"/>
<path id="hex_5" d="M292.339 64.7781L267.843 50.5331L243.081 64.7781V93.2682L267.71 107.513L292.339 93.2682V64.7781Z" fill="#F0E09C" stroke="#E7C943" stroke-width="3"/>
<path id="hex_6" d="M193.556 -21.491L169.06 -35.7361L144.297 -21.491V6.99907L168.927 21.2441L193.556 6.99907V-21.491Z" fill="#F0E09C" stroke="#E7C943" stroke-width="3"/>
<path id="hex_7" d="M218.052 21.6435L193.556 7.39844L168.793 21.6435V50.1336L193.423 64.3786L218.052 50.1336V21.6435Z" fill="#F0E09C" stroke="#E7C943" stroke-width="3"/>
<path id="hex_8" d="M217.786 107.913L193.29 93.6676L168.527 107.913V136.403L193.156 150.648L217.786 136.403V107.913Z" fill="#F0E09C" stroke="#E7C943" stroke-width="3"/>
<path id="hex_9" d="M168.527 21.6435L144.031 7.39844L119.269 21.6435V50.1336L143.898 64.3786L168.527 50.1336V21.6435Z" fill="#F0E09C" stroke="#E7C943" stroke-width="3"/>
<path id="hex_10" d="M143.661 -21.4368L119.165 -35.6819L94.4022 -21.4368V7.05327L119.032 21.2983L143.661 7.05327V-21.4368Z" fill="#F0E09C" stroke="#E7C943" stroke-width="3"/>
<path id="hex_11" d="M143.518 64.7676L119.022 50.5226L94.2594 64.7676V93.2577L118.889 107.503L143.518 93.2577V64.7676Z" fill="#F0E09C" stroke="#E7C943" stroke-width="3"/>
<path id="hex_12" d="M341.864 64.7781L317.368 50.5331L292.606 64.7781V93.2682L317.235 107.513L341.864 93.2682V64.7781Z" fill="#F0E09C" stroke="#E7C943" stroke-width="3"/>
<path id="hex_13" d="M316.836 107.913L292.339 93.6676L267.577 107.913V136.403L292.206 150.648L316.836 136.403V107.913Z" fill="#F0E09C" stroke="#E7C943" stroke-width="3"/>
<path id="hex_14" d="M341.598 151.047L317.102 136.802L292.339 151.047V179.537L316.969 193.782L341.598 179.537V151.047Z" fill="#F0E09C" stroke="#E7C943" stroke-width="3"/>
<path id="hex_15" d="M341.332 237.316L316.836 223.071L292.073 237.316V265.806L316.702 280.051L341.332 265.806V237.316Z" fill="#F0E09C" stroke="#E7C943" stroke-width="3"/>
<path id="hex_16" d="M291.807 151.047L267.311 136.802L242.548 151.047V179.537L267.177 193.782L291.807 179.537V151.047Z" fill="#F0E09C" stroke="#E7C943" stroke-width="3"/>
<path id="hex_17" d="M267.311 107.913L242.814 93.6676L218.052 107.913V136.403L242.681 150.648L267.311 136.403V107.913Z" fill="#F0E09C" stroke="#E7C943" stroke-width="3"/>
<path id="hex_18" d="M291.54 237.316L267.044 223.071L242.282 237.316V265.806L266.911 280.051L291.54 265.806V237.316Z" fill="#F0E09C" stroke="#E7C943" stroke-width="3"/>
<path id="hex_19" d="M266.778 194.182L242.282 179.937L217.519 194.182V222.672L242.149 236.917L266.778 222.672V194.182Z" fill="#F0E09C" stroke="#E7C943" stroke-width="3"/>
<path id="hex_20" d="M242.282 151.047L217.786 136.802L193.023 151.047V179.537L217.652 193.782L242.282 179.537V151.047Z" fill="#F0E09C" stroke="#E7C943" stroke-width="3"/>
<path id="hex_21" d="M217.253 194.182L192.757 179.937L167.995 194.182V222.672L192.624 236.917L217.253 222.672V194.182Z" fill="#F0E09C" stroke="#E7C943" stroke-width="3"/>
<path id="hex_22" d="M192.757 151.047L168.261 136.802L143.498 151.047V179.537L168.128 193.782L192.757 179.537V151.047Z" fill="#F0E09C" stroke="#E7C943" stroke-width="3"/>
<path id="hex_23" d="M142.836 150.918L118.34 136.673L93.5773 150.918V179.408L118.207 193.653L142.836 179.408V150.918Z" fill="#F0E09C" stroke="#E7C943" stroke-width="3"/>
<path id="hex_24" d="M168.261 107.913L143.765 93.6676L119.002 107.913V136.403L143.632 150.648L168.261 136.403V107.913Z" fill="#F0E09C" stroke="#E7C943" stroke-width="3"/>
<path id="hex_25" d="M242.016 237.316L217.519 223.071L192.757 237.316V265.806L217.386 280.051L242.016 265.806V237.316Z" fill="#F0E09C" stroke="#E7C943" stroke-width="3"/>
<path id="hex_26" d="M192.491 237.316L167.995 223.071L143.232 237.316V265.806L167.862 280.051L192.491 265.806V237.316Z" fill="#F0E09C" stroke="#E7C943" stroke-width="3"/>
<path id="hex_27" d="M167.728 194.182L143.232 179.937L118.47 194.182V222.672L143.099 236.917L167.728 222.672V194.182Z" fill="#F0E09C" stroke="#E7C943" stroke-width="3"/>
<path id="hex_28" d="M142.596 237.371L118.1 223.125L93.3372 237.371V265.861L117.966 280.106L142.596 265.861V237.371Z" fill="#F0E09C" stroke="#E7C943" stroke-width="3"/>
<path id="hex_29" d="M391.123 237.316L366.627 223.071L341.864 237.316V265.806L366.493 280.051L391.123 265.806V237.316Z" fill="#F0E09C" stroke="#E7C943" stroke-width="3"/>
<path id="hex_30" d="M366.36 194.182L341.864 179.937L317.102 194.182V222.672L341.731 236.917L366.36 222.672V194.182Z" fill="#F0E09C" stroke="#E7C943" stroke-width="3"/>
<path id="hex_31" d="M366.627 107.913L342.13 93.6676L317.368 107.913V136.403L341.997 150.648L366.627 136.403V107.913Z" fill="#F0E09C" stroke="#E7C943" stroke-width="3"/>
<path id="hex_32" d="M391.655 64.7781L367.159 50.5331L342.397 64.7781V93.2682L367.026 107.513L391.655 93.2682V64.7781Z" fill="#F0E09C" stroke="#E7C943" stroke-width="3"/>
<path id="hex_33" d="M366.893 21.6435L342.397 7.39844L317.634 21.6435V50.1336L342.264 64.3786L366.893 50.1336V21.6435Z" fill="#F0E09C" stroke="#E7C943" stroke-width="3"/>
<path id="hex_34" d="M391.655 -21.491L367.159 -35.7361L342.397 -21.491V6.99907L367.026 21.2441L391.655 6.99907V-21.491Z" fill="#F0E09C" stroke="#E7C943" stroke-width="3"/>
<path id="hex_35" d="M142.596 323.64L118.1 309.395L93.3372 323.64V352.13L117.966 366.375L142.596 352.13V323.64Z" fill="#F0E09C" stroke="#E7C943" stroke-width="3"/>
<path id="hex_36" d="M217.253 280.451L192.757 266.206L167.995 280.451V308.941L192.624 323.186L217.253 308.941V280.451Z" fill="#F0E09C" stroke="#E7C943" stroke-width="3"/>
<path id="hex_37" d="M167.728 280.451L143.232 266.206L118.47 280.451V308.941L143.099 323.186L167.728 308.941V280.451Z" fill="#F0E09C" stroke="#E7C943" stroke-width="3"/>
<path id="hex_38" d="M192.491 323.585L167.995 309.34L143.232 323.585V352.075L167.862 366.321L192.491 352.075V323.585Z" fill="#F0E09C" stroke="#E7C943" stroke-width="3"/>
<path id="hex_39" d="M266.512 280.451L242.016 266.206L217.253 280.451V308.941L241.882 323.186L266.512 308.941V280.451Z" fill="#F0E09C" stroke="#E7C943" stroke-width="3"/>
<path id="hex_40" d="M241.749 323.585L217.253 309.34L192.491 323.585V352.075L217.12 366.321L241.749 352.075V323.585Z" fill="#F0E09C" stroke="#E7C943" stroke-width="3"/>
<path id="hex_41" d="M291.274 323.585L266.778 309.34L242.016 323.585V352.075L266.645 366.321L291.274 352.075V323.585Z" fill="#F0E09C" stroke="#E7C943" stroke-width="3"/>
<path id="hex_42" d="M316.303 280.451L291.807 266.206L267.044 280.451V308.941L291.674 323.186L316.303 308.941V280.451Z" fill="#F0E09C" stroke="#E7C943" stroke-width="3"/>
<path id="hex_43" d="M291.598 410.072L267.102 395.827L242.339 410.072V438.563L266.968 452.808L291.598 438.563V410.072Z" fill="#F0E09C" stroke="#E7C943" stroke-width="3"/>
<path id="hex_44" d="M44.1791 -21.491L19.683 -35.7361L-5.07945 -21.491L-5.07945 6.99907L19.5498 21.2441L44.1791 6.99907L44.1791 -21.491Z" fill="#F0E09C" stroke="#E7C943" stroke-width="3"/>
<path id="hex_45" d="M19.1503 21.6435L-5.3459 7.39844L-30.1083 21.6435L-30.1083 50.1336L-5.47903 64.3786L19.1503 50.1336L19.1503 21.6435Z" fill="#F0E09C" stroke="#E7C943" stroke-width="3"/>
<path id="hex_46" d="M43.9128 64.7781L19.4166 50.5331L-5.34584 64.7781L-5.34584 93.2682L19.2835 107.513L43.9128 93.2682L43.9128 64.7781Z" fill="#F0E09C" stroke="#E7C943" stroke-width="3"/>
<path id="hex_47" d="M18.8842 107.913L-5.61198 93.6676L-30.3744 107.913L-30.3744 136.403L-5.74511 150.648L18.8842 136.403L18.8842 107.913Z" fill="#F0E09C" stroke="#E7C943" stroke-width="3"/>
<path id="hex_48" d="M43.6466 151.047L19.1504 136.802L-5.61198 151.047L-5.61198 179.537L19.0173 193.782L43.6466 179.537L43.6466 151.047Z" fill="#F0E09C" stroke="#E7C943" stroke-width="3"/>
<path id="hex_49" d="M43.3804 237.316L18.8842 223.071L-5.87822 237.316L-5.87822 265.806L18.7511 280.051L43.3804 265.806L43.3804 237.316Z" fill="#F0E09C" stroke="#E7C943" stroke-width="3"/>
<path id="hex_50" d="M93.1715 237.316L68.6753 223.071L43.9129 237.316L43.9129 265.806L68.5422 280.051L93.1715 265.806L93.1715 237.316Z" fill="#F0E09C" stroke="#E7C943" stroke-width="3"/>
<path id="hex_51" d="M68.4091 194.182L43.9129 179.937L19.1505 194.182L19.1505 222.672L43.7798 236.917L68.4091 222.672L68.4091 194.182Z" fill="#F0E09C" stroke="#E7C943" stroke-width="3"/>
<path id="hex_52" d="M68.6752 107.913L44.179 93.6676L19.4166 107.913L19.4166 136.403L44.0459 150.648L68.6752 136.403L68.6752 107.913Z" fill="#F0E09C" stroke="#E7C943" stroke-width="3"/>
<path id="hex_53" d="M93.704 64.7781L69.2078 50.5331L44.4454 64.7781L44.4454 93.2682L69.0747 107.513L93.704 93.2682L93.704 64.7781Z" fill="#F0E09C" stroke="#E7C943" stroke-width="3"/>
<path id="hex_54" d="M68.9416 21.6435L44.4454 7.39844L19.683 21.6435L19.683 50.1336L44.3123 64.3786L68.9416 50.1336L68.9416 21.6435Z" fill="#F0E09C" stroke="#E7C943" stroke-width="3"/>
<path id="hex_55" d="M93.704 -21.491L69.2078 -35.7361L44.4454 -21.491L44.4454 6.99907L69.0747 21.2441L93.704 6.99907L93.704 -21.491Z" fill="#F0E09C" stroke="#E7C943" stroke-width="3"/>
<path id="hex_56" d="M18.3515 280.451L-6.14463 266.206L-30.9071 280.451L-30.9071 308.941L-6.27776 323.186L18.3515 308.941L18.3515 280.451Z" fill="#F0E09C" stroke="#E7C943" stroke-width="3"/>
<path id="hex_57" d="M366.094 280.451L341.598 266.206L316.835 280.451V308.941L341.465 323.186L366.094 308.941V280.451Z" fill="#F0E09C" stroke="#E7C943" stroke-width="3"/>
<path id="hex_58" d="M390.857 323.585L366.36 309.34L341.598 323.585V352.075L366.227 366.321L390.857 352.075V323.585Z" fill="#F0E09C" stroke="#E7C943" stroke-width="3"/>
<path id="hex_59" d="M341.065 323.585L316.569 309.34L291.807 323.585V352.075L316.436 366.321L341.065 352.075V323.585Z" fill="#F0E09C" stroke="#E7C943" stroke-width="3"/>
<path id="hex_60" d="M391.389 151.047L366.893 136.802L342.13 151.047V179.537L366.76 193.782L391.389 179.537V151.047Z" fill="#F0E09C" stroke="#E7C943" stroke-width="3"/>
<path id="hex_61" d="M166.862 625.507L142.366 611.262L117.604 625.507V653.997L142.233 668.242L166.862 653.997V625.507Z" fill="#F0E09C" stroke="#E7C943" stroke-width="3"/>
<path id="hex_62" d="M142.245 582.432L117.749 568.187L92.9864 582.432V610.922L117.616 625.167L142.245 610.922V582.432Z" fill="#F0E09C" stroke="#E7C943" stroke-width="3"/>
<path id="hex_63" d="M365.494 625.507L340.998 611.262L316.236 625.507V653.997L340.865 668.242L365.494 653.997V625.507Z" fill="#F0E09C" stroke="#E7C943" stroke-width="3"/>
<path id="hex_64" d="M365.761 539.238L341.264 524.993L316.502 539.238V567.728L341.131 581.973L365.761 567.728V539.238Z" fill="#F0E09C" stroke="#E7C943" stroke-width="3"/>
<path id="hex_65" d="M390.789 496.103L366.293 481.858L341.531 496.103V524.593L366.16 538.838L390.789 524.593V496.103Z" fill="#F0E09C" stroke="#E7C943" stroke-width="3"/>
<path id="hex_66" d="M167.927 366.7L143.431 352.455L118.669 366.7V395.19L143.298 409.435L167.927 395.19V366.7Z" fill="#F0E09C" stroke="#E7C943" stroke-width="3"/>
<path id="hex_67" d="M217.452 366.7L192.956 352.455L168.194 366.7V395.19L192.823 409.435L217.452 395.19V366.7Z" fill="#F0E09C" stroke="#E7C943" stroke-width="3"/>
<path id="hex_68" d="M266.977 366.7L242.481 352.455L217.718 366.7V395.19L242.348 409.435L266.977 395.19V366.7Z" fill="#F0E09C" stroke="#E7C943" stroke-width="3"/>
<path id="hex_69" d="M316.502 366.7L292.006 352.455L267.243 366.7V395.19L291.873 409.435L316.502 395.19V366.7Z" fill="#F0E09C" stroke="#E7C943" stroke-width="3"/>
<path id="hex_70" d="M366.027 452.969L341.531 438.724L316.768 452.969V481.459L341.397 495.704L366.027 481.459V452.969Z" fill="#F0E09C" stroke="#E7C943" stroke-width="3"/>
<path id="hex_71" d="M390.789 409.834L366.293 395.589L341.531 409.834V438.325L366.16 452.57L390.789 438.325V409.834Z" fill="#F0E09C" stroke="#E7C943" stroke-width="3"/>
<path id="hex_72" d="M366.027 366.7L341.531 352.455L316.768 366.7V395.19L341.397 409.435L366.027 395.19V366.7Z" fill="#F0E09C" stroke="#E7C943" stroke-width="3"/>
<path id="hex_73" d="M341.382 582.432L316.886 568.187L292.123 582.432V610.922L316.753 625.167L341.382 610.922V582.432Z" fill="#F0E09C" stroke="#E7C943" stroke-width="3"/>
<path id="hex_74" d="M316.113 625.427L291.617 611.182L266.854 625.427V653.918L291.483 668.163L316.113 653.918V625.427Z" fill="#F0E09C" stroke="#E7C943" stroke-width="3"/>
<path id="hex_75" d="M266.854 453.207L242.358 438.962L217.596 453.207V481.697L242.225 495.942L266.854 481.697V453.207Z" fill="#F0E09C" stroke="#E7C943" stroke-width="3"/>
<path id="hex_76" d="M217.329 453.207L192.833 438.962L168.071 453.207V481.697L192.7 495.942L217.329 481.697V453.207Z" fill="#F0E09C" stroke="#E7C943" stroke-width="3"/>
<path id="hex_77" d="M192.567 410.072L168.071 395.827L143.308 410.072V438.563L167.938 452.808L192.567 438.563V410.072Z" fill="#F0E09C" stroke="#E7C943" stroke-width="3"/>
<path id="hex_78" d="M167.434 453.261L142.938 439.016L118.176 453.261V481.751L142.805 495.996L167.434 481.751V453.261Z" fill="#F0E09C" stroke="#E7C943" stroke-width="3"/>
<path id="hex_79" d="M167.434 539.53L142.938 525.285L118.176 539.53V568.021L142.805 582.266L167.434 568.021V539.53Z" fill="#F0E09C" stroke="#E7C943" stroke-width="3"/>
<path id="hex_80" d="M142.427 496.049L117.931 481.804L93.1687 496.049V524.539L117.798 538.784L142.427 524.539V496.049Z" fill="#F0E09C" stroke="#E7C943" stroke-width="3"/>
<path id="hex_81" d="M142.999 410.072L118.503 395.827L93.7406 410.072V438.563L118.37 452.808L142.999 438.563V410.072Z" fill="#F0E09C" stroke="#E7C943" stroke-width="3"/>
<path id="hex_82" d="M266.706 625.427L242.209 611.182L217.447 625.427V653.918L242.076 668.163L266.706 653.918V625.427Z" fill="#F0E09C" stroke="#E7C943" stroke-width="3"/>
<path id="hex_83" d="M242.191 582.432L217.694 568.187L192.932 582.432V610.922L217.561 625.167L242.191 610.922V582.432Z" fill="#F0E09C" stroke="#E7C943" stroke-width="3"/>
<path id="hex_84" d="M341.382 409.695L316.886 395.45L292.123 409.695V438.185L316.753 452.43L341.382 438.185V409.695Z" fill="#F0E09C" stroke="#E7C943" stroke-width="3"/>
<path id="hex_85" d="M18.9156 367.824L-5.65438 353.586L-30.4915 367.824L-30.4915 396.299L-5.78791 410.536L18.9156 396.299L18.9156 367.824Z" fill="#F0E09C" stroke="#E7C943" stroke-width="3"/>
<path id="hex_86" d="M68.7 367.824L44.1299 353.586L19.2928 367.824L19.2928 396.299L43.9964 410.536L68.7 396.299L68.7 367.824Z" fill="#F0E09C" stroke="#E7C943" stroke-width="3"/>
<path id="hex_87" d="M43.4307 410.819L18.8607 396.582L-5.97643 410.819L-5.97643 439.294L18.7271 453.532L43.4307 439.294L43.4307 410.819Z" fill="#F0E09C" stroke="#E7C943" stroke-width="3"/>
<path id="hex_88" d="M18.5385 454.192L-6.03152 439.954L-30.8686 454.192L-30.8686 482.667L-6.16505 496.905L18.5385 482.667L18.5385 454.192Z" fill="#F0E09C" stroke="#E7C943" stroke-width="3"/>
<path id="hex_89" d="M68.3228 454.192L43.7528 439.954L18.9157 454.192L18.9157 482.667L43.6193 496.905L68.3228 482.667L68.3228 454.192Z" fill="#F0E09C" stroke="#E7C943" stroke-width="3"/>
<path id="hex_90" d="M43.4307 497.187L18.6731 482.95L-6.35358 497.187L-6.35358 525.662L18.5386 539.9L43.4307 525.662L43.4307 497.187Z" fill="#F0E09C" stroke="#E7C943" stroke-width="3"/>
<path id="hex_91" d="M68.3228 540.56L43.5653 526.323L18.5386 540.56L18.5386 569.035L43.4307 583.273L68.3228 569.035L68.3228 540.56Z" fill="#F0E09C" stroke="#E7C943" stroke-width="3"/>
<path id="hex_92" d="M67.9457 626.551L43.3757 612.313L18.5386 626.551L18.5386 655.026L43.2421 669.264L67.9457 655.026L67.9457 626.551Z" fill="#F0E09C" stroke="#E7C943" stroke-width="3"/>
<path id="hex_93" d="M18.1614 540.56L-6.40862 526.323L-31.2457 540.56L-31.2457 569.035L-6.54215 583.273L18.1614 569.035L18.1614 540.56Z" fill="#F0E09C" stroke="#E7C943" stroke-width="3"/>
<path id="hex_94" d="M17.7843 626.551L-6.78576 612.313L-31.6229 626.551L-31.6229 655.026L-6.91929 669.264L17.7843 655.026L17.7843 626.551Z" fill="#F0E09C" stroke="#E7C943" stroke-width="3"/>
<path id="hex_95" d="M118.107 626.551L93.3496 612.313L68.3229 626.551V655.026L93.215 669.264L118.107 655.026L118.107 626.551Z" fill="#F0E09C" stroke="#E7C943" stroke-width="3"/>
<path id="hex_96" d="M93.2149 583.556L68.4573 569.318L43.4307 583.556L43.4307 612.031L68.3228 626.268L93.2149 612.031L93.2149 583.556Z" fill="#F0E09C" stroke="#E7C943" stroke-width="3"/>
<path id="hex_97" d="M93.2149 497.187L68.6449 482.95L43.8078 497.187L43.8078 525.662L68.5114 539.9L93.2149 525.662L93.2149 497.187Z" fill="#F0E09C" stroke="#E7C943" stroke-width="3"/>
<path id="hex_98" d="M118.484 454.192L93.9143 439.954L69.0772 454.192V482.667L93.7807 496.905L118.484 482.667L118.484 454.192Z" fill="#F0E09C" stroke="#E7C943" stroke-width="3"/>
<path id="hex_99" d="M93.5921 410.819L69.0221 396.582L44.185 410.819L44.185 439.294L68.8885 453.532L93.5921 439.294L93.5921 410.819Z" fill="#F0E09C" stroke="#E7C943" stroke-width="3"/>
<path id="hex_100" d="M118.484 367.824L93.9143 353.586L69.0772 367.824V396.299L93.7807 410.536L118.484 396.299L118.484 367.824Z" fill="#F0E09C" stroke="#E7C943" stroke-width="3"/>
<path id="hex_101" d="M118.107 540.56L93.5371 526.323L68.7001 540.56V569.035L93.4036 583.273L118.107 569.035L118.107 540.56Z" fill="#F0E09C" stroke="#E7C943" stroke-width="3"/>
<path id="hex_102" d="M192.567 496.342L168.071 482.097L143.308 496.342V524.832L167.938 539.077L192.567 524.832V496.342Z" fill="#F0E09C" stroke="#E7C943" stroke-width="3"/>
<path id="hex_103" d="M217.329 539.476L192.833 525.231L168.071 539.476V567.966L192.7 582.211L217.329 567.966V539.476Z" fill="#F0E09C" stroke="#E7C943" stroke-width="3"/>
<path id="hex_104" d="M291.35 496.342L266.854 482.097L242.092 496.342V524.832L266.721 539.077L291.35 524.832V496.342Z" fill="#F0E09C" stroke="#E7C943" stroke-width="3"/>
<path id="hex_105" d="M266.588 539.476L242.092 525.231L217.329 539.476V567.966L241.959 582.211L266.588 567.966V539.476Z" fill="#F0E09C" stroke="#E7C943" stroke-width="3"/>
<path id="hex_106" d="M241.814 496.063L217.317 481.818L192.555 496.063V524.554L217.184 538.799L241.814 524.554V496.063Z" fill="#F0E09C" stroke="#E7C943" stroke-width="3"/>
<path id="hex_107" d="M316.113 539.476L291.617 525.231L266.854 539.476V567.966L291.483 582.211L316.113 567.966V539.476Z" fill="#F0E09C" stroke="#E7C943" stroke-width="3"/>
<path id="hex_108" d="M390.523 582.373L366.027 568.128L341.264 582.373V610.863L365.894 625.108L390.523 610.863V582.373Z" fill="#F0E09C" stroke="#E7C943" stroke-width="3"/>
</g>
</g>
<defs>
<clipPath id="clip0">
<rect width="360" height="640" fill="white"/>
</clipPath>
</defs>
</svg>
