<svg width="470" height="1731" viewBox="0 0 470 1731" fill="none" xmlns="http://www.w3.org/2000/svg">
<g id="hex-portrait">
<path id="hex_2" d="M51.1459 649.394L38.7495 670.711L51.1459 692.26H75.9385L88.3349 670.827L75.9385 649.394H51.1459Z" fill="#F0E09C" stroke="#E7C943" stroke-width="3"/>
<path id="hex_3" d="M88.6825 714.273L76.2861 735.59L88.6825 757.138H113.475L125.872 735.705L113.475 714.273H88.6825Z" fill="#F0E09C" stroke="#E7C943" stroke-width="3"/>
<path id="hex_4" d="M51.1368 778.902L38.7405 800.219L51.1368 821.768H75.9295L88.3259 800.335L75.9295 778.902H51.1368Z" fill="#F0E09C" stroke="#E7C943" stroke-width="3"/>
<path id="hex_5" d="M51.1459 606.297L38.7495 627.614L51.1459 649.163H75.9385L88.3349 627.73L75.9385 606.297H51.1459Z" fill="#F0E09C" stroke="#E7C943" stroke-width="3"/>
<path id="hex_6" d="M88.6825 628.077L76.2861 649.394L88.6825 670.943H113.475L125.872 649.51L113.475 628.077H88.6825Z" fill="#F0E09C" stroke="#E7C943" stroke-width="3"/>
<path id="hex_7" d="M126.219 606.529L113.823 627.846L126.219 649.394H151.012L163.408 627.961L151.012 606.529H126.219Z" fill="#F0E09C" stroke="#E7C943" stroke-width="3"/>
<path id="hex_8" d="M201.292 606.76L188.896 628.077L201.292 649.626H226.085L238.481 628.193L226.085 606.76H201.292Z" fill="#F0E09C" stroke="#E7C943" stroke-width="3"/>
<path id="hex_9" d="M126.219 649.858L113.823 671.175L126.219 692.724H151.012L163.408 671.291L151.012 649.858H126.219Z" fill="#F0E09C" stroke="#E7C943" stroke-width="3"/>
<path id="hex_10" d="M88.6825 671.175L76.2861 692.492L88.6825 714.041H113.475L125.872 692.608L113.475 671.175H88.6825Z" fill="#F0E09C" stroke="#E7C943" stroke-width="3"/>
<path id="hex_11" d="M201.292 650.089L188.896 671.407L201.292 692.955H226.085L238.481 671.522L226.085 650.089H201.292Z" fill="#F0E09C" stroke="#E7C943" stroke-width="3"/>
<path id="hex_12" d="M163.756 671.638L151.359 692.955L163.756 714.504H188.548L200.945 693.071L188.548 671.638H163.756Z" fill="#F0E09C" stroke="#E7C943" stroke-width="3"/>
<path id="hex_13" d="M126.219 692.956L113.823 714.273L126.219 735.821H151.012L163.408 714.388L151.012 692.956H126.219Z" fill="#F0E09C" stroke="#E7C943" stroke-width="3"/>
<path id="hex_14" d="M163.756 714.736L151.359 736.053L163.756 757.602H188.548L200.945 736.169L188.548 714.736H163.756Z" fill="#F0E09C" stroke="#E7C943" stroke-width="3"/>
<path id="hex_15" d="M126.219 736.053L113.823 757.37L126.219 778.919H151.012L163.408 757.486L151.012 736.053H126.219Z" fill="#F0E09C" stroke="#E7C943" stroke-width="3"/>
<path id="hex_16" d="M126.107 779.495L113.71 800.812L126.107 822.361H150.899L163.296 800.928L150.899 779.495H126.107Z" fill="#F0E09C" stroke="#E7C943" stroke-width="3"/>
<path id="hex_17" d="M88.6825 757.37L76.2861 778.687L88.6825 800.236H113.475L125.872 778.803L113.475 757.37H88.6825Z" fill="#F0E09C" stroke="#E7C943" stroke-width="3"/>
<path id="hex_18" d="M201.292 693.187L188.896 714.504L201.292 736.053H226.085L238.481 714.62L226.085 693.187H201.292Z" fill="#F0E09C" stroke="#E7C943" stroke-width="3"/>
<path id="hex_19" d="M201.292 736.285L188.896 757.602L201.292 779.151H226.085L238.481 757.718L226.085 736.285H201.292Z" fill="#F0E09C" stroke="#E7C943" stroke-width="3"/>
<path id="hex_20" d="M163.756 757.833L151.359 779.15L163.756 800.699H188.548L200.945 779.266L188.548 757.833H163.756Z" fill="#F0E09C" stroke="#E7C943" stroke-width="3"/>
<path id="hex_21" d="M201.339 779.704L188.943 801.021L201.339 822.57H226.132L238.528 801.137L226.132 779.704H201.339Z" fill="#F0E09C" stroke="#E7C943" stroke-width="3"/>
<path id="hex_22" d="M201.292 563.431L188.896 584.748L201.292 606.297H226.085L238.481 584.864L226.085 563.431H201.292Z" fill="#F0E09C" stroke="#E7C943" stroke-width="3"/>
<path id="hex_23" d="M163.756 584.98L151.359 606.297L163.756 627.846H188.548L200.945 606.413L188.548 584.98H163.756Z" fill="#F0E09C" stroke="#E7C943" stroke-width="3"/>
<path id="hex_24" d="M88.6825 584.748L76.2861 606.065L88.6825 627.614H113.475L125.872 606.181L113.475 584.748H88.6825Z" fill="#F0E09C" stroke="#E7C943" stroke-width="3"/>
<path id="hex_25" d="M51.1459 562.968L38.7495 584.285L51.1459 605.833H75.9385L88.3349 584.4L75.9385 562.968H51.1459Z" fill="#F0E09C" stroke="#E7C943" stroke-width="3"/>
<path id="hex_26" d="M276.413 779.704L264.016 801.021L276.413 822.57H301.205L313.602 801.137L301.205 779.704H276.413Z" fill="#F0E09C" stroke="#E7C943" stroke-width="3"/>
<path id="hex_27" d="M238.829 714.736L226.432 736.053L238.829 757.602H263.621L276.018 736.169L263.621 714.736H238.829Z" fill="#F0E09C" stroke="#E7C943" stroke-width="3"/>
<path id="hex_28" d="M238.829 757.833L226.432 779.15L238.829 800.699H263.621L276.018 779.266L263.621 757.833H238.829Z" fill="#F0E09C" stroke="#E7C943" stroke-width="3"/>
<path id="hex_29" d="M276.366 736.285L263.969 757.602L276.366 779.151H301.158L313.555 757.718L301.158 736.285H276.366Z" fill="#F0E09C" stroke="#E7C943" stroke-width="3"/>
<path id="hex_30" d="M238.829 671.87L226.432 693.187L238.829 714.736H263.621L276.018 693.303L263.621 671.87H238.829Z" fill="#F0E09C" stroke="#E7C943" stroke-width="3"/>
<path id="hex_31" d="M276.366 693.419L263.969 714.736L276.366 736.285H301.158L313.555 714.852L301.158 693.419H276.366Z" fill="#F0E09C" stroke="#E7C943" stroke-width="3"/>
<path id="hex_32" d="M276.366 650.321L263.969 671.638L276.366 693.187H301.158L313.555 671.754L301.158 650.321H276.366Z" fill="#F0E09C" stroke="#E7C943" stroke-width="3"/>
<path id="hex_33" d="M238.829 628.541L226.432 649.858L238.829 671.407H263.621L276.018 649.974L263.621 628.541H238.829Z" fill="#F0E09C" stroke="#E7C943" stroke-width="3"/>
<path id="hex_34" d="M351.628 650.04L339.232 671.357L351.628 692.906H376.421L388.817 671.473L376.421 650.04H351.628Z" fill="#F0E09C" stroke="#E7C943" stroke-width="3"/>
<path id="hex_35" d="M201.292 822.714L188.896 844.032L201.292 865.58H226.085L238.481 844.147L226.085 822.714H201.292Z" fill="#F0E09C" stroke="#E7C943" stroke-width="3"/>
<path id="hex_36" d="M51.1459 822.251L38.7495 843.568L51.1459 865.117H75.9385L88.3349 843.684L75.9385 822.251H51.1459Z" fill="#F0E09C" stroke="#E7C943" stroke-width="3"/>
<path id="hex_37" d="M238.829 585.211L226.432 606.529L238.829 628.077H263.621L276.018 606.644L263.621 585.211H238.829Z" fill="#F0E09C" stroke="#E7C943" stroke-width="3"/>
<path id="hex_38" d="M276.366 563.663L263.969 584.98L276.366 606.529H301.158L313.555 585.096L301.158 563.663H276.366Z" fill="#F0E09C" stroke="#E7C943" stroke-width="3"/>
<path id="hex_39" d="M276.366 606.992L263.969 628.309L276.366 649.858H301.158L313.555 628.425L301.158 606.992H276.366Z" fill="#F0E09C" stroke="#E7C943" stroke-width="3"/>
<path id="hex_40" d="M126.219 563.199L113.823 584.516L126.219 606.065H151.012L163.408 584.632L151.012 563.199H126.219Z" fill="#F0E09C" stroke="#E7C943" stroke-width="3"/>
<path id="hex_41" d="M426.494 563.721L414.098 585.038L426.494 606.587H451.287L463.683 585.154L451.287 563.721H426.494Z" fill="#F0E09C" stroke="#E7C943" stroke-width="3"/>
<path id="hex_42" d="M313.884 757.66L301.488 778.977L313.884 800.526H338.677L351.073 779.093L338.677 757.66H313.884Z" fill="#F0E09C" stroke="#E7C943" stroke-width="3"/>
<path id="hex_43" d="M313.884 714.563L301.488 735.88L313.884 757.429H338.677L351.073 735.996L338.677 714.563H313.884Z" fill="#F0E09C" stroke="#E7C943" stroke-width="3"/>
<path id="hex_44" d="M313.884 671.465L301.488 692.782L313.884 714.331H338.677L351.073 692.898L338.677 671.465H313.884Z" fill="#F0E09C" stroke="#E7C943" stroke-width="3"/>
<path id="hex_45" d="M313.884 628.368L301.488 649.685L313.884 671.234H338.677L351.073 649.801L338.677 628.368H313.884Z" fill="#F0E09C" stroke="#E7C943" stroke-width="3"/>
<path id="hex_46" d="M388.958 585.27L376.561 606.587L388.958 628.136H413.75L426.147 606.703L413.75 585.27H388.958Z" fill="#F0E09C" stroke="#E7C943" stroke-width="3"/>
<path id="hex_47" d="M351.421 563.721L339.025 585.038L351.421 606.587H376.214L388.61 585.154L376.214 563.721H351.421Z" fill="#F0E09C" stroke="#E7C943" stroke-width="3"/>
<path id="hex_48" d="M313.884 585.27L301.488 606.587L313.884 628.136H338.677L351.073 606.703L338.677 585.27H313.884Z" fill="#F0E09C" stroke="#E7C943" stroke-width="3"/>
<path id="hex_49" d="M389.165 671.572L376.769 692.889L389.165 714.438H413.958L426.354 693.005L413.958 671.572H389.165Z" fill="#F0E09C" stroke="#E7C943" stroke-width="3"/>
<path id="hex_50" d="M389.165 714.67L376.769 735.987L389.165 757.535H413.958L426.354 736.103L413.958 714.67H389.165Z" fill="#F0E09C" stroke="#E7C943" stroke-width="3"/>
<path id="hex_51" d="M351.628 736.218L339.232 757.535L351.628 779.084H376.421L388.817 757.651L376.421 736.218H351.628Z" fill="#F0E09C" stroke="#E7C943" stroke-width="3"/>
<path id="hex_52" d="M389.212 758.089L376.816 779.406L389.212 800.955H414.005L426.401 779.522L414.005 758.089H389.212Z" fill="#F0E09C" stroke="#E7C943" stroke-width="3"/>
<path id="hex_53" d="M426.447 779.851L414.051 801.168L426.447 822.717H451.24L463.636 801.284L451.24 779.851H426.447Z" fill="#F0E09C" stroke="#E7C943" stroke-width="3"/>
<path id="hex_54" d="M351.628 779.353L339.232 800.67L351.628 822.219H376.421L388.817 800.786L376.421 779.353H351.628Z" fill="#F0E09C" stroke="#E7C943" stroke-width="3"/>
<path id="hex_55" d="M351.3 606.717L338.904 628.034L351.3 649.582H376.093L388.489 628.149L376.093 606.717H351.3Z" fill="#F0E09C" stroke="#E7C943" stroke-width="3"/>
<path id="hex_56" d="M427.438 822.677L415.048 844.058L427.438 865.672H452.217L464.607 844.174L452.217 822.677H427.438Z" fill="#F0E09C" stroke="#E7C943" stroke-width="3"/>
<path id="hex_57" d="M390.022 800.687L377.632 822.068L390.022 843.682H414.802L427.191 822.184L414.802 800.687H390.022Z" fill="#F0E09C" stroke="#E7C943" stroke-width="3"/>
<path id="hex_58" d="M352.278 822.348L339.888 843.73L352.278 865.344H377.058L389.448 843.846L377.058 822.348H352.278Z" fill="#F0E09C" stroke="#E7C943" stroke-width="3"/>
<path id="hex_59" d="M314.862 800.687L302.473 822.068L314.862 843.682H339.642L352.032 822.184L339.642 800.687H314.862Z" fill="#F0E09C" stroke="#E7C943" stroke-width="3"/>
<path id="hex_60" d="M426.702 736.218L414.305 757.535L426.702 779.084H451.494L463.891 757.651L451.494 736.218H426.702Z" fill="#F0E09C" stroke="#E7C943" stroke-width="3"/>
<path id="hex_61" d="M426.702 650.255L414.305 671.572L426.702 693.121H451.494L463.891 671.688L451.494 650.255H426.702Z" fill="#F0E09C" stroke="#E7C943" stroke-width="3"/>
<path id="hex_62" d="M426.46 693.363L414.063 714.68L426.46 736.229H451.252L463.649 714.796L451.252 693.363H426.46Z" fill="#F0E09C" stroke="#E7C943" stroke-width="3"/>
<path id="hex_63" d="M50.8461 432.644L38.4497 453.961L50.8461 475.51H75.6387L88.0351 454.077L75.6387 432.644H50.8461Z" fill="#F0E09C" stroke="#E7C943" stroke-width="3"/>
<path id="hex_64" d="M50.7989 389.224L38.4026 410.541L50.7989 432.09H75.5916L87.988 410.657L75.5916 389.224H50.7989Z" fill="#F0E09C" stroke="#E7C943" stroke-width="3"/>
<path id="hex_65" d="M50.7989 346.359L38.4026 367.676L50.7989 389.224H75.5916L87.988 367.791L75.5916 346.359H50.7989Z" fill="#F0E09C" stroke="#E7C943" stroke-width="3"/>
<path id="hex_66" d="M50.7989 303.261L38.4026 324.578L50.7989 346.127H75.5916L87.988 324.694L75.5916 303.261H50.7989Z" fill="#F0E09C" stroke="#E7C943" stroke-width="3"/>
<path id="hex_67" d="M50.7989 216.603L38.4026 237.92L50.7989 259.468H75.5916L87.988 238.035L75.5916 216.603H50.7989Z" fill="#F0E09C" stroke="#E7C943" stroke-width="3"/>
<path id="hex_68" d="M125.751 303.685L113.354 325.002L125.751 346.551H150.543L162.94 325.118L150.543 303.685H125.751Z" fill="#F0E09C" stroke="#E7C943" stroke-width="3"/>
<path id="hex_69" d="M125.751 260.587L113.354 281.904L125.751 303.453H150.543L162.94 282.02L150.543 260.587H125.751Z" fill="#F0E09C" stroke="#E7C943" stroke-width="3"/>
<path id="hex_70" d="M163.287 282.368L150.891 303.685L163.287 325.234H188.08L200.476 303.801L188.08 282.368H163.287Z" fill="#F0E09C" stroke="#E7C943" stroke-width="3"/>
<path id="hex_71" d="M200.824 303.917L188.427 325.234L200.824 346.782H225.617L238.013 325.349L225.617 303.917H200.824Z" fill="#F0E09C" stroke="#E7C943" stroke-width="3"/>
<path id="hex_72" d="M125.751 389.88L113.354 411.197L125.751 432.746H150.543L162.94 411.313L150.543 389.88H125.751Z" fill="#F0E09C" stroke="#E7C943" stroke-width="3"/>
<path id="hex_73" d="M163.287 368.563L150.891 389.88L163.287 411.429H188.08L200.476 389.996L188.08 368.563H163.287Z" fill="#F0E09C" stroke="#E7C943" stroke-width="3"/>
<path id="hex_74" d="M238.36 368.795L225.964 390.112L238.36 411.661H263.153L275.549 390.228L263.153 368.795H238.36Z" fill="#F0E09C" stroke="#E7C943" stroke-width="3"/>
<path id="hex_75" d="M163.287 411.66L150.891 432.977L163.287 454.526H188.08L200.476 433.093L188.08 411.66H163.287Z" fill="#F0E09C" stroke="#E7C943" stroke-width="3"/>
<path id="hex_76" d="M125.798 433.299L113.401 454.617L125.798 476.165H150.59L162.987 454.732L150.59 433.299H125.798Z" fill="#F0E09C" stroke="#E7C943" stroke-width="3"/>
<path id="hex_77" d="M200.815 433.424L188.418 454.741L200.815 476.29H225.607L238.004 454.857L225.607 433.424H200.815Z" fill="#F0E09C" stroke="#E7C943" stroke-width="3"/>
<path id="hex_78" d="M200.824 260.819L188.427 282.136L200.824 303.685H225.617L238.013 282.252L225.617 260.819H200.824Z" fill="#F0E09C" stroke="#E7C943" stroke-width="3"/>
<path id="hex_79" d="M238.36 282.6L225.964 303.917L238.36 325.465H263.153L275.549 304.033L263.153 282.6H238.36Z" fill="#F0E09C" stroke="#E7C943" stroke-width="3"/>
<path id="hex_80" d="M275.897 261.051L263.501 282.368L275.897 303.916H300.69L313.086 282.483L300.69 261.051H275.897Z" fill="#F0E09C" stroke="#E7C943" stroke-width="3"/>
<path id="hex_81" d="M350.97 261.282L338.574 282.599L350.97 304.148H375.763L388.159 282.715L375.763 261.282H350.97Z" fill="#F0E09C" stroke="#E7C943" stroke-width="3"/>
<path id="hex_82" d="M275.897 304.38L263.501 325.697L275.897 347.246H300.69L313.086 325.813L300.69 304.38H275.897Z" fill="#F0E09C" stroke="#E7C943" stroke-width="3"/>
<path id="hex_83" d="M238.36 325.697L225.964 347.014L238.36 368.563H263.153L275.549 347.13L263.153 325.697H238.36Z" fill="#F0E09C" stroke="#E7C943" stroke-width="3"/>
<path id="hex_84" d="M350.97 304.612L338.574 325.929L350.97 347.478H375.763L388.159 326.045L375.763 304.612H350.97Z" fill="#F0E09C" stroke="#E7C943" stroke-width="3"/>
<path id="hex_85" d="M313.434 326.16L301.037 347.477L313.434 369.026H338.226L350.623 347.593L338.226 326.16H313.434Z" fill="#F0E09C" stroke="#E7C943" stroke-width="3"/>
<path id="hex_86" d="M275.897 347.478L263.501 368.795L275.897 390.344H300.69L313.086 368.911L300.69 347.478H275.897Z" fill="#F0E09C" stroke="#E7C943" stroke-width="3"/>
<path id="hex_87" d="M313.434 369.258L301.037 390.575L313.434 412.124H338.226L350.623 390.691L338.226 369.258H313.434Z" fill="#F0E09C" stroke="#E7C943" stroke-width="3"/>
<path id="hex_88" d="M275.897 390.575L263.501 411.892L275.897 433.441H300.69L313.086 412.008L300.69 390.575H275.897Z" fill="#F0E09C" stroke="#E7C943" stroke-width="3"/>
<path id="hex_89" d="M275.785 434.018L263.388 455.335L275.785 476.883H300.577L312.974 455.451L300.577 434.018H275.785Z" fill="#F0E09C" stroke="#E7C943" stroke-width="3"/>
<path id="hex_90" d="M238.36 411.892L225.964 433.209L238.36 454.758H263.153L275.549 433.325L263.153 411.892H238.36Z" fill="#F0E09C" stroke="#E7C943" stroke-width="3"/>
<path id="hex_91" d="M350.97 347.709L338.574 369.026L350.97 390.575H375.763L388.159 369.142L375.763 347.709H350.97Z" fill="#F0E09C" stroke="#E7C943" stroke-width="3"/>
<path id="hex_92" d="M350.97 390.807L338.574 412.124L350.97 433.673H375.763L388.159 412.24L375.763 390.807H350.97Z" fill="#F0E09C" stroke="#E7C943" stroke-width="3"/>
<path id="hex_93" d="M313.434 412.355L301.037 433.673L313.434 455.221H338.226L350.623 433.788L338.226 412.355H313.434Z" fill="#F0E09C" stroke="#E7C943" stroke-width="3"/>
<path id="hex_94" d="M351.018 434.227L338.621 455.544L351.018 477.092H375.81L388.207 455.659L375.81 434.227H351.018Z" fill="#F0E09C" stroke="#E7C943" stroke-width="3"/>
<path id="hex_95" d="M350.97 217.953L338.574 239.27L350.97 260.819H375.763L388.159 239.386L375.763 217.953H350.97Z" fill="#F0E09C" stroke="#E7C943" stroke-width="3"/>
<path id="hex_96" d="M313.434 239.502L301.037 260.819L313.434 282.368H338.226L350.623 260.935L338.226 239.502H313.434Z" fill="#F0E09C" stroke="#E7C943" stroke-width="3"/>
<path id="hex_97" d="M238.36 239.27L225.964 260.587L238.36 282.136H263.153L275.549 260.703L263.153 239.27H238.36Z" fill="#F0E09C" stroke="#E7C943" stroke-width="3"/>
<path id="hex_98" d="M200.824 217.49L188.427 238.807L200.824 260.356H225.617L238.013 238.923L225.617 217.49H200.824Z" fill="#F0E09C" stroke="#E7C943" stroke-width="3"/>
<path id="hex_99" d="M88.2142 411.429L75.8179 432.746L88.2142 454.295H113.007L125.403 432.862L113.007 411.429H88.2142Z" fill="#F0E09C" stroke="#E7C943" stroke-width="3"/>
<path id="hex_100" d="M88.2142 368.331L75.8179 389.648L88.2142 411.197H113.007L125.403 389.764L113.007 368.331H88.2142Z" fill="#F0E09C" stroke="#E7C943" stroke-width="3"/>
<path id="hex_101" d="M88.2142 325.234L75.8179 346.551L88.2142 368.1H113.007L125.403 346.667L113.007 325.234H88.2142Z" fill="#F0E09C" stroke="#E7C943" stroke-width="3"/>
<path id="hex_102" d="M88.2142 282.136L75.8179 303.453L88.2142 325.002H113.007L125.403 303.569L113.007 282.136H88.2142Z" fill="#F0E09C" stroke="#E7C943" stroke-width="3"/>
<path id="hex_103" d="M163.287 239.038L150.891 260.355L163.287 281.904H188.08L200.476 260.471L188.08 239.038H163.287Z" fill="#F0E09C" stroke="#E7C943" stroke-width="3"/>
<path id="hex_104" d="M125.751 217.49L113.354 238.807L125.751 260.356H150.543L162.94 238.923L150.543 217.49H125.751Z" fill="#F0E09C" stroke="#E7C943" stroke-width="3"/>
<path id="hex_105" d="M88.2142 239.038L75.8179 260.355L88.2142 281.904H113.007L125.403 260.471L113.007 239.038H88.2142Z" fill="#F0E09C" stroke="#E7C943" stroke-width="3"/>
<path id="hex_106" d="M426.091 434.227L413.694 455.544L426.091 477.092H450.883L463.28 455.659L450.883 434.227H426.091Z" fill="#F0E09C" stroke="#E7C943" stroke-width="3"/>
<path id="hex_107" d="M388.507 369.258L376.11 390.575L388.507 412.124H413.299L425.696 390.691L413.299 369.258H388.507Z" fill="#F0E09C" stroke="#E7C943" stroke-width="3"/>
<path id="hex_108" d="M388.507 412.355L376.11 433.673L388.507 455.221H413.299L425.696 433.788L413.299 412.355H388.507Z" fill="#F0E09C" stroke="#E7C943" stroke-width="3"/>
<path id="hex_109" d="M426.044 390.807L413.647 412.124L426.044 433.673H450.836L463.233 412.24L450.836 390.807H426.044Z" fill="#F0E09C" stroke="#E7C943" stroke-width="3"/>
<path id="hex_110" d="M388.507 326.392L376.11 347.709L388.507 369.258H413.299L425.696 347.825L413.299 326.392H388.507Z" fill="#F0E09C" stroke="#E7C943" stroke-width="3"/>
<path id="hex_111" d="M426.044 347.941L413.647 369.258L426.044 390.807H450.836L463.233 369.374L450.836 347.941H426.044Z" fill="#F0E09C" stroke="#E7C943" stroke-width="3"/>
<path id="hex_112" d="M426.044 304.843L413.647 326.16L426.044 347.709H450.836L463.233 326.276L450.836 304.843H426.044Z" fill="#F0E09C" stroke="#E7C943" stroke-width="3"/>
<path id="hex_113" d="M388.507 283.063L376.11 304.38L388.507 325.929H413.299L425.696 304.496L413.299 283.063H388.507Z" fill="#F0E09C" stroke="#E7C943" stroke-width="3"/>
<path id="hex_114" d="M50.7989 475.886L38.4026 497.203L50.7989 518.752H75.5916L87.988 497.319L75.5916 475.886H50.7989Z" fill="#F0E09C" stroke="#E7C943" stroke-width="3"/>
<path id="hex_115" d="M125.751 519.871L113.354 541.188L125.751 562.737H150.543L162.94 541.304L150.543 519.871H125.751Z" fill="#F0E09C" stroke="#E7C943" stroke-width="3"/>
<path id="hex_116" d="M163.287 541.651L150.891 562.968L163.287 584.517H188.08L200.476 563.084L188.08 541.651H163.287Z" fill="#F0E09C" stroke="#E7C943" stroke-width="3"/>
<path id="hex_117" d="M200.824 520.103L188.427 541.42L200.824 562.968H225.617L238.013 541.535L225.617 520.103H200.824Z" fill="#F0E09C" stroke="#E7C943" stroke-width="3"/>
<path id="hex_118" d="M238.36 541.883L225.964 563.2L238.36 584.749H263.153L275.549 563.316L263.153 541.883H238.36Z" fill="#F0E09C" stroke="#E7C943" stroke-width="3"/>
<path id="hex_119" d="M275.897 520.334L263.501 541.651L275.897 563.2H300.69L313.086 541.767L300.69 520.334H275.897Z" fill="#F0E09C" stroke="#E7C943" stroke-width="3"/>
<path id="hex_120" d="M350.97 520.566L338.574 541.883L350.97 563.432H375.763L388.159 541.999L375.763 520.566H350.97Z" fill="#F0E09C" stroke="#E7C943" stroke-width="3"/>
<path id="hex_121" d="M350.97 477.237L338.574 498.554L350.97 520.103H375.763L388.159 498.67L375.763 477.237H350.97Z" fill="#F0E09C" stroke="#E7C943" stroke-width="3"/>
<path id="hex_122" d="M313.434 498.785L301.037 520.102L313.434 541.651H338.226L350.623 520.218L338.226 498.785H313.434Z" fill="#F0E09C" stroke="#E7C943" stroke-width="3"/>
<path id="hex_123" d="M238.36 498.554L225.964 519.871L238.36 541.42H263.153L275.549 519.987L263.153 498.554H238.36Z" fill="#F0E09C" stroke="#E7C943" stroke-width="3"/>
<path id="hex_124" d="M200.824 476.773L188.427 498.09L200.824 519.639H225.617L238.013 498.206L225.617 476.773H200.824Z" fill="#F0E09C" stroke="#E7C943" stroke-width="3"/>
<path id="hex_125" d="M88.2142 541.42L75.8179 562.737L88.2142 584.286H113.007L125.403 562.853L113.007 541.42H88.2142Z" fill="#F0E09C" stroke="#E7C943" stroke-width="3"/>
<path id="hex_126" d="M163.287 498.322L150.891 519.639L163.287 541.188H188.08L200.476 519.755L188.08 498.322H163.287Z" fill="#F0E09C" stroke="#E7C943" stroke-width="3"/>
<path id="hex_127" d="M125.751 476.773L113.354 498.09L125.751 519.639H150.543L162.94 498.206L150.543 476.773H125.751Z" fill="#F0E09C" stroke="#E7C943" stroke-width="3"/>
<path id="hex_128" d="M88.2142 498.322L75.8179 519.639L88.2142 541.188H113.007L125.403 519.755L113.007 498.322H88.2142Z" fill="#F0E09C" stroke="#E7C943" stroke-width="3"/>
<path id="hex_129" d="M388.507 542.346L376.11 563.664L388.507 585.212H413.299L425.696 563.779L413.299 542.346H388.507Z" fill="#F0E09C" stroke="#E7C943" stroke-width="3"/>
<path id="hex_130" d="M388.507 239.734L376.11 261.051L388.507 282.599H413.299L425.696 261.166L413.299 239.734H388.507Z" fill="#F0E09C" stroke="#E7C943" stroke-width="3"/>
<path id="hex_131" d="M426.044 218.185L413.647 239.502L426.044 261.051H450.836L463.233 239.618L450.836 218.185H426.044Z" fill="#F0E09C" stroke="#E7C943" stroke-width="3"/>
<path id="hex_132" d="M426.044 261.514L413.647 282.831L426.044 304.38H450.836L463.233 282.947L450.836 261.514H426.044Z" fill="#F0E09C" stroke="#E7C943" stroke-width="3"/>
<path id="hex_133" d="M275.897 217.721L263.501 239.038L275.897 260.587H300.69L313.086 239.154L300.69 217.721H275.897Z" fill="#F0E09C" stroke="#E7C943" stroke-width="3"/>
<path id="hex_134" d="M86.942 23.317L74.5457 44.6341L86.942 66.1829H111.735L124.131 44.7499L111.735 23.317L86.942 23.317Z" fill="#F0E09C" stroke="#E7C943" stroke-width="3"/>
<path id="hex_135" d="M49.3963 87.9463L37 109.263L49.3963 130.812H74.189L86.5854 109.379L74.189 87.9463L49.3963 87.9463Z" fill="#F0E09C" stroke="#E7C943" stroke-width="3"/>
<path id="hex_136" d="M124.479 2L112.083 23.3171L124.479 44.8659L149.272 44.8659L161.668 23.4329L149.272 2L124.479 2Z" fill="#F0E09C" stroke="#E7C943" stroke-width="3"/>
<path id="hex_137" d="M162.015 23.7802L149.619 45.0972L162.015 66.646H186.808L199.204 45.2131L186.808 23.7802L162.015 23.7802Z" fill="#F0E09C" stroke="#E7C943" stroke-width="3"/>
<path id="hex_138" d="M124.479 45.0972L112.083 66.4142L124.479 87.963H149.272L161.668 66.5301L149.272 45.0972L124.479 45.0972Z" fill="#F0E09C" stroke="#E7C943" stroke-width="3"/>
<path id="hex_139" d="M124.366 88.5398L111.97 109.857L124.366 131.406H149.159L161.555 109.973L149.159 88.5398L124.366 88.5398Z" fill="#F0E09C" stroke="#E7C943" stroke-width="3"/>
<path id="hex_140" d="M86.942 66.4146L74.5457 87.7316L86.942 109.28H111.735L124.131 87.8475L111.735 66.4146L86.942 66.4146Z" fill="#F0E09C" stroke="#E7C943" stroke-width="3"/>
<path id="hex_141" d="M199.552 2.23157L187.156 23.5486L199.552 45.0974L224.345 45.0974L236.741 23.6645L224.345 2.23157L199.552 2.23157Z" fill="#F0E09C" stroke="#E7C943" stroke-width="3"/>
<path id="hex_142" d="M199.552 45.3291L187.156 66.6462L199.552 88.195H224.345L236.741 66.762L224.345 45.3291L199.552 45.3291Z" fill="#F0E09C" stroke="#E7C943" stroke-width="3"/>
<path id="hex_143" d="M162.015 66.8778L149.619 88.1949L162.015 109.744H186.808L199.204 88.3107L186.808 66.8778L162.015 66.8778Z" fill="#F0E09C" stroke="#E7C943" stroke-width="3"/>
<path id="hex_144" d="M199.599 88.7489L187.203 110.066L199.599 131.615H224.392L236.788 110.182L224.392 88.7489L199.599 88.7489Z" fill="#F0E09C" stroke="#E7C943" stroke-width="3"/>
<path id="hex_145" d="M274.672 88.7489L262.276 110.066L274.672 131.615H299.465L311.861 110.182L299.465 88.7489L274.672 88.7489Z" fill="#F0E09C" stroke="#E7C943" stroke-width="3"/>
<path id="hex_146" d="M237.088 23.7802L224.692 45.0972L237.088 66.646H261.881L274.277 45.2131L261.881 23.7802L237.088 23.7802Z" fill="#F0E09C" stroke="#E7C943" stroke-width="3"/>
<path id="hex_147" d="M237.088 66.8778L224.692 88.1949L237.088 109.744H261.881L274.277 88.3107L261.881 66.8778L237.088 66.8778Z" fill="#F0E09C" stroke="#E7C943" stroke-width="3"/>
<path id="hex_148" d="M274.625 45.3291L262.229 66.6462L274.625 88.195H299.418L311.814 66.762L299.418 45.3291L274.625 45.3291Z" fill="#F0E09C" stroke="#E7C943" stroke-width="3"/>
<path id="hex_149" d="M274.625 2.46313L262.229 23.7802L274.625 45.329L299.418 45.329L311.814 23.8961L299.418 2.46313L274.625 2.46313Z" fill="#F0E09C" stroke="#E7C943" stroke-width="3"/>
<path id="hex_150" d="M49.4054 174.625L37.009 195.942L49.4054 217.49H74.1981L86.5944 196.057L74.1981 174.625H49.4054Z" fill="#F0E09C" stroke="#E7C943" stroke-width="3"/>
<path id="hex_151" d="M86.942 196.405L74.5457 217.722L86.942 239.271H111.735L124.131 217.838L111.735 196.405H86.942Z" fill="#F0E09C" stroke="#E7C943" stroke-width="3"/>
<path id="hex_152" d="M124.479 174.857L112.083 196.174L124.479 217.722H149.272L161.668 196.289L149.272 174.857H124.479Z" fill="#F0E09C" stroke="#E7C943" stroke-width="3"/>
<path id="hex_153" d="M199.552 175.088L187.156 196.405L199.552 217.954H224.345L236.741 196.521L224.345 175.088H199.552Z" fill="#F0E09C" stroke="#E7C943" stroke-width="3"/>
<path id="hex_154" d="M199.552 131.759L187.156 153.076L199.552 174.625H224.345L236.741 153.192L224.345 131.759H199.552Z" fill="#F0E09C" stroke="#E7C943" stroke-width="3"/>
<path id="hex_155" d="M162.015 153.308L149.619 174.625L162.015 196.173H186.808L199.204 174.741L186.808 153.308H162.015Z" fill="#F0E09C" stroke="#E7C943" stroke-width="3"/>
<path id="hex_156" d="M86.942 153.076L74.5457 174.393L86.942 195.942H111.735L124.131 174.509L111.735 153.076H86.942Z" fill="#F0E09C" stroke="#E7C943" stroke-width="3"/>
<path id="hex_157" d="M49.4054 131.295L37.009 152.612L49.4054 174.161H74.1981L86.5944 152.728L74.1981 131.295H49.4054Z" fill="#F0E09C" stroke="#E7C943" stroke-width="3"/>
<path id="hex_158" d="M237.088 196.869L224.692 218.186L237.088 239.735H261.881L274.277 218.302L261.881 196.869H237.088Z" fill="#F0E09C" stroke="#E7C943" stroke-width="3"/>
<path id="hex_159" d="M312.144 66.7048L299.748 88.0219L312.144 109.571H336.937L349.333 88.1378L336.937 66.7048L312.144 66.7048Z" fill="#F0E09C" stroke="#E7C943" stroke-width="3"/>
<path id="hex_160" d="M312.144 23.6072L299.748 44.9243L312.144 66.473H336.937L349.333 45.0401L336.937 23.6072L312.144 23.6072Z" fill="#F0E09C" stroke="#E7C943" stroke-width="3"/>
<path id="hex_161" d="M387.425 23.7139L375.028 45.0309L387.425 66.5797H412.217L424.614 45.1468L412.217 23.7139L387.425 23.7139Z" fill="#F0E09C" stroke="#E7C943" stroke-width="3"/>
<path id="hex_162" d="M349.888 45.2629L337.491 66.58L349.888 88.1288H374.68L387.077 66.6959L374.68 45.2629L349.888 45.2629Z" fill="#F0E09C" stroke="#E7C943" stroke-width="3"/>
<path id="hex_163" d="M387.472 67.1335L375.075 88.4506L387.472 109.999H412.264L424.661 88.5665L412.264 67.1335L387.472 67.1335Z" fill="#F0E09C" stroke="#E7C943" stroke-width="3"/>
<path id="hex_164" d="M424.706 88.8955L412.31 110.213L424.706 131.761H449.499L461.895 110.328L449.499 88.8955L424.706 88.8955Z" fill="#F0E09C" stroke="#E7C943" stroke-width="3"/>
<path id="hex_165" d="M349.888 88.3975L337.491 109.715L349.888 131.263H374.68L387.077 109.83L374.68 88.3975L349.888 88.3975Z" fill="#F0E09C" stroke="#E7C943" stroke-width="3"/>
<path id="hex_166" d="M313.122 196.378L300.732 217.759L313.122 239.373H337.902L350.291 217.875L337.902 196.378H313.122Z" fill="#F0E09C" stroke="#E7C943" stroke-width="3"/>
<path id="hex_167" d="M313.122 153.054L300.732 174.436L313.122 196.049H337.902L350.291 174.552L337.902 153.054H313.122Z" fill="#F0E09C" stroke="#E7C943" stroke-width="3"/>
<path id="hex_168" d="M350.538 175.044L338.148 196.426L350.538 218.04H375.317L387.707 196.542L375.317 175.044H350.538Z" fill="#F0E09C" stroke="#E7C943" stroke-width="3"/>
<path id="hex_169" d="M388.281 196.706L375.892 218.087L388.281 239.701H413.061L425.451 218.204L413.061 196.706H388.281Z" fill="#F0E09C" stroke="#E7C943" stroke-width="3"/>
<path id="hex_170" d="M388.281 153.383L375.892 174.764L388.281 196.378H413.061L425.451 174.88L413.061 153.383H388.281Z" fill="#F0E09C" stroke="#E7C943" stroke-width="3"/>
<path id="hex_171" d="M425.697 175.044L413.307 196.589L425.697 218.368H450.477L462.867 196.706L450.477 175.044H425.697Z" fill="#F0E09C" stroke="#E7C943" stroke-width="3"/>
<path id="hex_172" d="M425.697 131.721L413.307 153.103L425.697 174.716H450.477L462.867 153.219L450.477 131.721H425.697Z" fill="#F0E09C" stroke="#E7C943" stroke-width="3"/>
<path id="hex_173" d="M388.281 109.731L375.892 131.112L388.281 152.726H413.061L425.451 131.229L413.061 109.731L388.281 109.731Z" fill="#F0E09C" stroke="#E7C943" stroke-width="3"/>
<path id="hex_174" d="M350.538 131.393L338.148 152.774L350.538 174.388H375.317L387.707 152.89L375.317 131.393H350.538Z" fill="#F0E09C" stroke="#E7C943" stroke-width="3"/>
<path id="hex_175" d="M313.122 109.731L300.732 131.112L313.122 152.726H337.902L350.291 131.229L337.902 109.731L313.122 109.731Z" fill="#F0E09C" stroke="#E7C943" stroke-width="3"/>
<path id="hex_176" d="M424.961 45.2629L412.565 66.58L424.961 88.1288H449.754L462.15 66.6959L449.754 45.2629L424.961 45.2629Z" fill="#F0E09C" stroke="#E7C943" stroke-width="3"/>
<path id="hex_177" d="M424.719 2.40747L412.323 23.7246L424.719 45.2733L449.512 45.2733L461.908 23.8404L449.512 2.40747L424.719 2.40747Z" fill="#F0E09C" stroke="#E7C943" stroke-width="3"/>
<path id="hex_178" d="M430.184 1513.31L417.788 1534.63L430.184 1556.18H454.977L467.373 1534.75L454.977 1513.31H430.184Z" fill="#F0E09C" stroke="#E7C943" stroke-width="3"/>
<path id="hex_179" d="M430.392 1685.81L417.995 1707.13L430.392 1728.68H455.184L467.581 1707.24L455.184 1685.81H430.392Z" fill="#F0E09C" stroke="#E7C943" stroke-width="3"/>
<path id="hex_180" d="M430.392 1599.85L417.995 1621.16L430.392 1642.71H455.184L467.581 1621.28L455.184 1599.85H430.392Z" fill="#F0E09C" stroke="#E7C943" stroke-width="3"/>
<path id="hex_181" d="M430.15 1642.96L417.753 1664.27L430.15 1685.82H454.942L467.339 1664.39L454.942 1642.96H430.15Z" fill="#F0E09C" stroke="#E7C943" stroke-width="3"/>
<path id="hex_182" d="M429.781 1383.82L417.384 1405.14L429.781 1426.68H454.573L466.97 1405.25L454.573 1383.82H429.781Z" fill="#F0E09C" stroke="#E7C943" stroke-width="3"/>
<path id="hex_183" d="M429.734 1340.4L417.337 1361.72L429.734 1383.27H454.526L466.923 1361.83L454.526 1340.4H429.734Z" fill="#F0E09C" stroke="#E7C943" stroke-width="3"/>
<path id="hex_184" d="M429.734 1297.53L417.337 1318.85L429.734 1340.4H454.526L466.923 1318.97L454.526 1297.53H429.734Z" fill="#F0E09C" stroke="#E7C943" stroke-width="3"/>
<path id="hex_185" d="M429.734 1254.44L417.337 1275.75L429.734 1297.3H454.526L466.923 1275.87L454.526 1254.44H429.734Z" fill="#F0E09C" stroke="#E7C943" stroke-width="3"/>
<path id="hex_186" d="M429.734 1167.78L417.337 1189.09L429.734 1210.64H454.526L466.923 1189.21L454.526 1167.78H429.734Z" fill="#F0E09C" stroke="#E7C943" stroke-width="3"/>
<path id="hex_187" d="M429.734 1211.11L417.337 1232.42L429.734 1253.97H454.526L466.923 1232.54L454.526 1211.11H429.734Z" fill="#F0E09C" stroke="#E7C943" stroke-width="3"/>
<path id="hex_188" d="M428.396 1038.49L416 1059.81L428.396 1081.35H453.189L465.585 1059.92L453.189 1038.49H428.396Z" fill="#F0E09C" stroke="#E7C943" stroke-width="3"/>
<path id="hex_189" d="M429.387 1124.64L416.997 1146.18L429.387 1167.96H454.167L466.557 1146.3L454.167 1124.64H429.387Z" fill="#F0E09C" stroke="#E7C943" stroke-width="3"/>
<path id="hex_190" d="M429.387 1081.31L416.997 1102.7L429.387 1124.31H454.167L466.557 1102.81L454.167 1081.31H429.387Z" fill="#F0E09C" stroke="#E7C943" stroke-width="3"/>
<path id="hex_191" d="M428.651 994.855L416.255 1016.17L428.651 1037.72H453.444L465.84 1016.29L453.444 994.855H428.651Z" fill="#F0E09C" stroke="#E7C943" stroke-width="3"/>
<path id="hex_192" d="M428.409 952L416.013 973.317L428.409 994.866H453.202L465.598 973.433L453.202 952H428.409Z" fill="#F0E09C" stroke="#E7C943" stroke-width="3"/>
<path id="hex_193" d="M316.539 1577.96L304.143 1599.28L316.539 1620.83H341.332L353.728 1599.39L341.332 1577.96H316.539Z" fill="#F0E09C" stroke="#E7C943" stroke-width="3"/>
<path id="hex_194" d="M279.002 1599.51L266.606 1620.83L279.002 1642.37H303.795L316.191 1620.94L303.795 1599.51H279.002Z" fill="#F0E09C" stroke="#E7C943" stroke-width="3"/>
<path id="hex_195" d="M241.517 1620.93L229.121 1642.25L241.517 1663.8H266.31L278.706 1642.36L266.31 1620.93H241.517Z" fill="#F0E09C" stroke="#E7C943" stroke-width="3"/>
<path id="hex_196" d="M316.586 1621.38L304.19 1642.7L316.586 1664.25H341.379L353.775 1642.81L341.379 1621.38H316.586Z" fill="#F0E09C" stroke="#E7C943" stroke-width="3"/>
<path id="hex_197" d="M316.539 1405.11L304.143 1426.42L316.539 1447.97H341.332L353.728 1426.54L341.332 1405.11H316.539Z" fill="#F0E09C" stroke="#E7C943" stroke-width="3"/>
<path id="hex_198" d="M279.002 1426.65L266.606 1447.97L279.002 1469.52H303.795L316.191 1448.09L303.795 1426.65H279.002Z" fill="#F0E09C" stroke="#E7C943" stroke-width="3"/>
<path id="hex_199" d="M203.929 1426.42L191.533 1447.74L203.929 1469.29H228.722L241.118 1447.86L228.722 1426.42H203.929Z" fill="#F0E09C" stroke="#E7C943" stroke-width="3"/>
<path id="hex_200" d="M391.66 1621.38L379.263 1642.7L391.66 1664.25H416.452L428.849 1642.81L416.452 1621.38H391.66Z" fill="#F0E09C" stroke="#E7C943" stroke-width="3"/>
<path id="hex_201" d="M241.517 1447.64L229.121 1468.95L241.517 1490.5H266.31L278.706 1469.07L266.31 1447.64H241.517Z" fill="#F0E09C" stroke="#E7C943" stroke-width="3"/>
<path id="hex_202" d="M278.933 1469.63L266.537 1490.94L278.933 1512.49H303.726L316.122 1491.06L303.726 1469.63H278.933Z" fill="#F0E09C" stroke="#E7C943" stroke-width="3"/>
<path id="hex_203" d="M354.076 1599.51L341.68 1620.83L354.076 1642.37H378.869L391.265 1620.94L378.869 1599.51H354.076Z" fill="#F0E09C" stroke="#E7C943" stroke-width="3"/>
<path id="hex_204" d="M391.612 1577.96L379.216 1599.28L391.612 1620.83H416.405L428.801 1599.39L416.405 1577.96H391.612Z" fill="#F0E09C" stroke="#E7C943" stroke-width="3"/>
<path id="hex_205" d="M354.076 1513.54L341.68 1534.86L354.076 1556.41H378.869L391.265 1534.98L378.869 1513.54H354.076Z" fill="#F0E09C" stroke="#E7C943" stroke-width="3"/>
<path id="hex_206" d="M391.612 1535.09L379.216 1556.41L391.612 1577.96H416.405L428.801 1556.53L416.405 1535.09H391.612Z" fill="#F0E09C" stroke="#E7C943" stroke-width="3"/>
<path id="hex_207" d="M204.184 1599.01L191.787 1620.33L204.184 1641.88H228.976L241.373 1620.44L228.976 1599.01H204.184Z" fill="#F0E09C" stroke="#E7C943" stroke-width="3"/>
<path id="hex_208" d="M278.933 1512.62L266.537 1533.94L278.933 1555.49H303.726L316.122 1534.06L303.726 1512.62H278.933Z" fill="#F0E09C" stroke="#E7C943" stroke-width="3"/>
<path id="hex_209" d="M241.517 1533.96L229.121 1555.27L241.517 1576.82H266.31L278.706 1555.39L266.31 1533.96H241.517Z" fill="#F0E09C" stroke="#E7C943" stroke-width="3"/>
<path id="hex_210" d="M279.911 1641.94L267.521 1663.48L279.911 1685.26H304.691L317.08 1663.6L304.691 1641.94H279.911Z" fill="#F0E09C" stroke="#E7C943" stroke-width="3"/>
<path id="hex_211" d="M242.495 1663.6L230.105 1685.14L242.495 1706.92H267.275L279.665 1685.26L267.275 1663.6H242.495Z" fill="#F0E09C" stroke="#E7C943" stroke-width="3"/>
<path id="hex_212" d="M317.655 1663.93L305.265 1685.31L317.655 1706.92H342.434L354.824 1685.42L342.434 1663.93H317.655Z" fill="#F0E09C" stroke="#E7C943" stroke-width="3"/>
<path id="hex_213" d="M355.07 1642.26L342.681 1663.65L355.07 1685.26H379.85L392.24 1663.76L379.85 1642.26H355.07Z" fill="#F0E09C" stroke="#E7C943" stroke-width="3"/>
<path id="hex_214" d="M205.08 1641.94L192.69 1663.32L205.08 1684.93H229.86L242.249 1663.43L229.86 1641.94H205.08Z" fill="#F0E09C" stroke="#E7C943" stroke-width="3"/>
<path id="hex_215" d="M392.486 1663.93L380.096 1685.31L392.486 1706.92H417.266L429.655 1685.42L417.266 1663.93H392.486Z" fill="#F0E09C" stroke="#E7C943" stroke-width="3"/>
<path id="hex_216" d="M204.137 1555.59L191.74 1576.91L204.137 1598.46H228.93L241.326 1577.02L228.93 1555.59H204.137Z" fill="#F0E09C" stroke="#E7C943" stroke-width="3"/>
<path id="hex_217" d="M204.137 1512.72L191.74 1534.04L204.137 1555.59H228.93L241.326 1534.16L228.93 1512.72H204.137Z" fill="#F0E09C" stroke="#E7C943" stroke-width="3"/>
<path id="hex_218" d="M204.137 1469.63L191.74 1490.94L204.137 1512.49H228.93L241.326 1491.06L228.93 1469.63H204.137Z" fill="#F0E09C" stroke="#E7C943" stroke-width="3"/>
<path id="hex_219" d="M354.076 1470.22L341.68 1491.53L354.076 1513.08H378.869L391.265 1491.65L378.869 1470.22H354.076Z" fill="#F0E09C" stroke="#E7C943" stroke-width="3"/>
<path id="hex_220" d="M354.076 1426.89L341.68 1448.2L354.076 1469.75H378.869L391.265 1448.32L378.869 1426.89H354.076Z" fill="#F0E09C" stroke="#E7C943" stroke-width="3"/>
<path id="hex_221" d="M391.612 1405.34L379.216 1426.65L391.612 1448.2H416.405L428.801 1426.77L416.405 1405.34H391.612Z" fill="#F0E09C" stroke="#E7C943" stroke-width="3"/>
<path id="hex_222" d="M391.612 1448.67L379.216 1469.98L391.612 1491.53H416.405L428.801 1470.1L416.405 1448.67H391.612Z" fill="#F0E09C" stroke="#E7C943" stroke-width="3"/>
<path id="hex_223" d="M241.466 1404.87L229.07 1426.19L241.466 1447.74H266.259L278.655 1426.31L266.259 1404.87H241.466Z" fill="#F0E09C" stroke="#E7C943" stroke-width="3"/>
<path id="hex_224" d="M241.205 1145.48L228.808 1166.8L241.205 1188.35H265.997L278.394 1166.92L265.997 1145.48H241.205Z" fill="#F0E09C" stroke="#E7C943" stroke-width="3"/>
<path id="hex_225" d="M391.195 1275.45L378.799 1296.77L391.195 1318.32H415.988L428.384 1296.89L415.988 1275.45H391.195Z" fill="#F0E09C" stroke="#E7C943" stroke-width="3"/>
<path id="hex_226" d="M353.607 1080.94L341.211 1102.26L353.607 1123.81H378.4L390.796 1102.38L378.4 1080.94H353.607Z" fill="#F0E09C" stroke="#E7C943" stroke-width="3"/>
<path id="hex_227" d="M316.071 1059.16L303.674 1080.48L316.071 1102.03H340.863L353.26 1080.6L340.863 1059.16H316.071Z" fill="#F0E09C" stroke="#E7C943" stroke-width="3"/>
<path id="hex_228" d="M203.461 1253.1L191.064 1274.42L203.461 1295.97H228.253L240.65 1274.54L228.253 1253.1H203.461Z" fill="#F0E09C" stroke="#E7C943" stroke-width="3"/>
<path id="hex_229" d="M203.461 1210.01L191.064 1231.32L203.461 1252.87H228.253L240.65 1231.44L228.253 1210.01H203.461Z" fill="#F0E09C" stroke="#E7C943" stroke-width="3"/>
<path id="hex_230" d="M203.461 1166.91L191.064 1188.23L203.461 1209.77H228.253L240.65 1188.34L228.253 1166.91H203.461Z" fill="#F0E09C" stroke="#E7C943" stroke-width="3"/>
<path id="hex_231" d="M203.461 1123.81L191.064 1145.13L203.461 1166.68H228.253L240.65 1145.24L228.253 1123.81H203.461Z" fill="#F0E09C" stroke="#E7C943" stroke-width="3"/>
<path id="hex_232" d="M278.534 1080.71L266.138 1102.03L278.534 1123.58H303.327L315.723 1102.15L303.327 1080.71H278.534Z" fill="#F0E09C" stroke="#E7C943" stroke-width="3"/>
<path id="hex_233" d="M240.998 1059.16L228.601 1080.48L240.998 1102.03H265.79L278.187 1080.6L265.79 1059.16H240.998Z" fill="#F0E09C" stroke="#E7C943" stroke-width="3"/>
<path id="hex_234" d="M203.461 1080.71L191.064 1102.03L203.461 1123.58H228.253L240.65 1102.15L228.253 1080.71H203.461Z" fill="#F0E09C" stroke="#E7C943" stroke-width="3"/>
<path id="hex_235" d="M391.195 1102.16L378.799 1123.48L391.195 1145.03H415.988L428.384 1123.59L415.988 1102.16H391.195Z" fill="#F0E09C" stroke="#E7C943" stroke-width="3"/>
<path id="hex_236" d="M278.742 1167.02L266.345 1188.33L278.742 1209.88H303.534L315.931 1188.45L303.534 1167.02H278.742Z" fill="#F0E09C" stroke="#E7C943" stroke-width="3"/>
<path id="hex_237" d="M278.742 1210.11L266.345 1231.43L278.742 1252.98H303.534L315.931 1231.55L303.534 1210.11H278.742Z" fill="#F0E09C" stroke="#E7C943" stroke-width="3"/>
<path id="hex_238" d="M241.205 1231.66L228.808 1252.98L241.205 1274.53H265.997L278.394 1253.09L265.997 1231.66H241.205Z" fill="#F0E09C" stroke="#E7C943" stroke-width="3"/>
<path id="hex_239" d="M278.789 1253.53L266.392 1274.85L278.789 1296.4H303.581L315.978 1274.97L303.581 1253.53H278.789Z" fill="#F0E09C" stroke="#E7C943" stroke-width="3"/>
<path id="hex_240" d="M353.862 1253.53L341.465 1274.85L353.862 1296.4H378.654L391.051 1274.97L378.654 1253.53H353.862Z" fill="#F0E09C" stroke="#E7C943" stroke-width="3"/>
<path id="hex_241" d="M316.023 1275.29L303.627 1296.61L316.023 1318.16H340.816L353.212 1296.73L340.816 1275.29H316.023Z" fill="#F0E09C" stroke="#E7C943" stroke-width="3"/>
<path id="hex_242" d="M241.205 1274.8L228.808 1296.11L241.205 1317.66H265.997L278.394 1296.23L265.997 1274.8H241.205Z" fill="#F0E09C" stroke="#E7C943" stroke-width="3"/>
<path id="hex_243" d="M391.195 1188.48L378.799 1209.79L391.195 1231.34H415.988L428.384 1209.91L415.988 1188.48H391.195Z" fill="#F0E09C" stroke="#E7C943" stroke-width="3"/>
<path id="hex_244" d="M240.877 1102.16L228.48 1123.48L240.877 1145.03H265.669L278.066 1123.59L265.669 1102.16H240.877Z" fill="#F0E09C" stroke="#E7C943" stroke-width="3"/>
<path id="hex_245" d="M204.439 1382.78L192.049 1404.16L204.439 1425.77H229.219L241.608 1404.27L229.219 1382.78H204.439Z" fill="#F0E09C" stroke="#E7C943" stroke-width="3"/>
<path id="hex_246" d="M204.439 1339.45L192.049 1360.83L204.439 1382.45H229.219L241.608 1360.95L229.219 1339.45H204.439Z" fill="#F0E09C" stroke="#E7C943" stroke-width="3"/>
<path id="hex_247" d="M241.855 1361.44L229.465 1382.82L241.855 1404.44H266.635L279.024 1382.94L266.635 1361.44H241.855Z" fill="#F0E09C" stroke="#E7C943" stroke-width="3"/>
<path id="hex_248" d="M279.598 1383.1L267.208 1404.49L279.598 1426.1H304.378L316.768 1404.6L304.378 1383.1H279.598Z" fill="#F0E09C" stroke="#E7C943" stroke-width="3"/>
<path id="hex_249" d="M279.598 1339.78L267.208 1361.16L279.598 1382.78H304.378L316.768 1361.28L304.378 1339.78H279.598Z" fill="#F0E09C" stroke="#E7C943" stroke-width="3"/>
<path id="hex_250" d="M317.014 1361.44L304.624 1382.99L317.014 1404.77H341.794L354.184 1383.1L341.794 1361.44H317.014Z" fill="#F0E09C" stroke="#E7C943" stroke-width="3"/>
<path id="hex_251" d="M354.758 1339.78L342.368 1361.33L354.758 1383.1H379.538L391.927 1361.44L379.538 1339.78H354.758Z" fill="#F0E09C" stroke="#E7C943" stroke-width="3"/>
<path id="hex_252" d="M354.758 1383.43L342.368 1404.81L354.758 1426.43H379.538L391.927 1404.93L379.538 1383.43H354.758Z" fill="#F0E09C" stroke="#E7C943" stroke-width="3"/>
<path id="hex_253" d="M392.174 1318.12L379.784 1339.66L392.174 1361.44H416.953L429.343 1339.78L416.953 1318.12H392.174Z" fill="#F0E09C" stroke="#E7C943" stroke-width="3"/>
<path id="hex_254" d="M317.014 1318.12L304.624 1339.5L317.014 1361.11H341.794L354.184 1339.62L341.794 1318.12H317.014Z" fill="#F0E09C" stroke="#E7C943" stroke-width="3"/>
<path id="hex_255" d="M279.598 1296.13L267.208 1317.51L279.598 1339.12H304.378L316.768 1317.63L304.378 1296.13H279.598Z" fill="#F0E09C" stroke="#E7C943" stroke-width="3"/>
<path id="hex_256" d="M241.855 1317.79L229.465 1339.17L241.855 1360.79H266.635L279.024 1339.29L266.635 1317.79H241.855Z" fill="#F0E09C" stroke="#E7C943" stroke-width="3"/>
<path id="hex_257" d="M204.439 1296.13L192.049 1317.51L204.439 1339.12H229.219L241.608 1317.63L229.219 1296.13H204.439Z" fill="#F0E09C" stroke="#E7C943" stroke-width="3"/>
<path id="hex_258" d="M354.758 1296.46L342.368 1317.84L354.758 1339.45H379.538L391.927 1317.96L379.538 1296.46H354.758Z" fill="#F0E09C" stroke="#E7C943" stroke-width="3"/>
<path id="hex_259" d="M316.278 1231.66L303.882 1252.98L316.278 1274.53H341.071L353.467 1253.09L341.071 1231.66H316.278Z" fill="#F0E09C" stroke="#E7C943" stroke-width="3"/>
<path id="hex_260" d="M353.815 1210.11L341.418 1231.43L353.815 1252.98H378.607L391.004 1231.55L378.607 1210.11H353.815Z" fill="#F0E09C" stroke="#E7C943" stroke-width="3"/>
<path id="hex_261" d="M316.278 1145.7L303.882 1167.02L316.278 1188.56H341.071L353.467 1167.13L341.071 1145.7H316.278Z" fill="#F0E09C" stroke="#E7C943" stroke-width="3"/>
<path id="hex_262" d="M353.815 1167.25L341.418 1188.56L353.815 1210.11H378.607L391.004 1188.68L378.607 1167.25H353.815Z" fill="#F0E09C" stroke="#E7C943" stroke-width="3"/>
<path id="hex_263" d="M316.036 1188.81L303.64 1210.12L316.036 1231.67H340.829L353.225 1210.24L340.829 1188.81H316.036Z" fill="#F0E09C" stroke="#E7C943" stroke-width="3"/>
<path id="hex_264" d="M353.815 1124.15L341.418 1145.47L353.815 1167.02H378.607L391.004 1145.58L378.607 1124.15H353.815Z" fill="#F0E09C" stroke="#E7C943" stroke-width="3"/>
<path id="hex_265" d="M391.144 1059.4L378.748 1080.71L391.144 1102.26H415.937L428.333 1080.83L415.937 1059.4H391.144Z" fill="#F0E09C" stroke="#E7C943" stroke-width="3"/>
<path id="hex_266" d="M314.798 887.003L302.402 908.32L314.798 929.869H339.591L351.987 908.436L339.591 887.003H314.798Z" fill="#F0E09C" stroke="#E7C943" stroke-width="3"/>
<path id="hex_267" d="M277.262 908.552L264.865 929.87L277.262 951.418H302.055L314.451 929.985L302.055 908.552H277.262Z" fill="#F0E09C" stroke="#E7C943" stroke-width="3"/>
<path id="hex_268" d="M239.777 929.975L227.381 951.292L239.777 972.841H264.57L276.966 951.408L264.57 929.975H239.777Z" fill="#F0E09C" stroke="#E7C943" stroke-width="3"/>
<path id="hex_269" d="M314.846 930.424L302.449 951.741L314.846 973.289H339.638L352.035 951.857L339.638 930.424H314.846Z" fill="#F0E09C" stroke="#E7C943" stroke-width="3"/>
<path id="hex_270" d="M389.919 930.424L377.523 951.741L389.919 973.289H414.712L427.108 951.857L414.712 930.424H389.919Z" fill="#F0E09C" stroke="#E7C943" stroke-width="3"/>
<path id="hex_271" d="M352.335 908.552L339.939 929.87L352.335 951.418H377.128L389.524 929.985L377.128 908.552H352.335Z" fill="#F0E09C" stroke="#E7C943" stroke-width="3"/>
<path id="hex_272" d="M389.872 887.003L377.476 908.32L389.872 929.869H414.665L427.061 908.436L414.665 887.003H389.872Z" fill="#F0E09C" stroke="#E7C943" stroke-width="3"/>
<path id="hex_273" d="M389.872 844.138L377.476 865.455L389.872 887.004H414.665L427.061 865.571L414.665 844.138H389.872Z" fill="#F0E09C" stroke="#E7C943" stroke-width="3"/>
<path id="hex_274" d="M16.1839 1621.3L3.7876 1642.61L16.1839 1664.16H40.9766L53.373 1642.73L40.9766 1621.3H16.1839Z" fill="#F0E09C" stroke="#E7C943" stroke-width="3"/>
<path id="hex_275" d="M16.1368 1577.88L3.74048 1599.19L16.1368 1620.74H40.9295L53.3259 1599.31L40.9295 1577.88H16.1368Z" fill="#F0E09C" stroke="#E7C943" stroke-width="3"/>
<path id="hex_276" d="M16.1368 1535.01L3.74048 1556.33L16.1368 1577.88H40.9295L53.3259 1556.44L40.9295 1535.01H16.1368Z" fill="#F0E09C" stroke="#E7C943" stroke-width="3"/>
<path id="hex_277" d="M16.1368 1491.91L3.74048 1513.23L16.1368 1534.78H40.9295L53.3259 1513.35L40.9295 1491.91H16.1368Z" fill="#F0E09C" stroke="#E7C943" stroke-width="3"/>
<path id="hex_278" d="M91.3995 1491.63L79.0032 1512.95L91.3995 1534.5H116.192L128.589 1513.07L116.192 1491.63H91.3995Z" fill="#F0E09C" stroke="#E7C943" stroke-width="3"/>
<path id="hex_279" d="M16.1368 1405.26L3.74048 1426.57L16.1368 1448.12H40.9295L53.3259 1426.69L40.9295 1405.26H16.1368Z" fill="#F0E09C" stroke="#E7C943" stroke-width="3"/>
<path id="hex_280" d="M16.1368 1448.58L3.74048 1469.9L16.1368 1491.45H40.9295L53.3259 1470.02L40.9295 1448.58H16.1368Z" fill="#F0E09C" stroke="#E7C943" stroke-width="3"/>
<path id="hex_281" d="M166.265 1405.31L153.869 1426.63L166.265 1448.18H191.058L203.455 1426.75L191.058 1405.31H166.265Z" fill="#F0E09C" stroke="#E7C943" stroke-width="3"/>
<path id="hex_282" d="M53.6556 1599.25L41.2593 1620.57L53.6556 1642.12H78.4483L90.8447 1620.69L78.4483 1599.25H53.6556Z" fill="#F0E09C" stroke="#E7C943" stroke-width="3"/>
<path id="hex_283" d="M53.6556 1556.16L41.2593 1577.47L53.6556 1599.02H78.4483L90.8447 1577.59L78.4483 1556.16H53.6556Z" fill="#F0E09C" stroke="#E7C943" stroke-width="3"/>
<path id="hex_284" d="M53.6556 1513.06L41.2593 1534.37L53.6556 1555.92H78.4483L90.8447 1534.49L78.4483 1513.06H53.6556Z" fill="#F0E09C" stroke="#E7C943" stroke-width="3"/>
<path id="hex_285" d="M53.6556 1469.96L41.2593 1491.28L53.6556 1512.83H78.4483L90.8447 1491.39L78.4483 1469.96H53.6556Z" fill="#F0E09C" stroke="#E7C943" stroke-width="3"/>
<path id="hex_286" d="M128.729 1426.86L116.333 1448.18L128.729 1469.73H153.522L165.918 1448.3L153.522 1426.86H128.729Z" fill="#F0E09C" stroke="#E7C943" stroke-width="3"/>
<path id="hex_287" d="M91.1925 1405.31L78.7961 1426.63L91.1925 1448.18H115.985L128.382 1426.75L115.985 1405.31H91.1925Z" fill="#F0E09C" stroke="#E7C943" stroke-width="3"/>
<path id="hex_288" d="M53.6556 1426.86L41.2593 1448.18L53.6556 1469.73H78.4483L90.8447 1448.3L78.4483 1426.86H53.6556Z" fill="#F0E09C" stroke="#E7C943" stroke-width="3"/>
<path id="hex_289" d="M128.936 1513.16L116.54 1534.48L128.936 1556.03H153.729L166.125 1534.6L153.729 1513.16H128.936Z" fill="#F0E09C" stroke="#E7C943" stroke-width="3"/>
<path id="hex_290" d="M128.936 1556.26L116.54 1577.58L128.936 1599.13H153.729L166.125 1577.7L153.729 1556.26H128.936Z" fill="#F0E09C" stroke="#E7C943" stroke-width="3"/>
<path id="hex_291" d="M91.3995 1577.81L79.0032 1599.13L91.3995 1620.68H116.192L128.589 1599.24L116.192 1577.81H91.3995Z" fill="#F0E09C" stroke="#E7C943" stroke-width="3"/>
<path id="hex_292" d="M128.984 1599.68L116.587 1621L128.984 1642.55H153.776L166.173 1621.11L153.776 1599.68H128.984Z" fill="#F0E09C" stroke="#E7C943" stroke-width="3"/>
<path id="hex_293" d="M166.218 1621.44L153.822 1642.76L166.218 1664.31H191.011L203.407 1642.88L191.011 1621.44H166.218Z" fill="#F0E09C" stroke="#E7C943" stroke-width="3"/>
<path id="hex_294" d="M91.3995 1620.95L79.0032 1642.26L91.3995 1663.81H116.192L128.589 1642.38L116.192 1620.95H91.3995Z" fill="#F0E09C" stroke="#E7C943" stroke-width="3"/>
<path id="hex_295" d="M91.0714 1448.31L78.675 1469.63L91.0714 1491.17H115.864L128.26 1469.74L115.864 1448.31H91.0714Z" fill="#F0E09C" stroke="#E7C943" stroke-width="3"/>
<path id="hex_296" d="M167.209 1664.27L154.819 1685.65L167.209 1707.26H191.989L204.378 1685.77L191.989 1664.27H167.209Z" fill="#F0E09C" stroke="#E7C943" stroke-width="3"/>
<path id="hex_297" d="M129.793 1642.28L117.403 1663.66L129.793 1685.27H154.573L166.963 1663.78L154.573 1642.28H129.793Z" fill="#F0E09C" stroke="#E7C943" stroke-width="3"/>
<path id="hex_298" d="M92.0495 1663.94L79.6597 1685.32L92.0495 1706.94H116.829L129.219 1685.44L116.829 1663.94H92.0495Z" fill="#F0E09C" stroke="#E7C943" stroke-width="3"/>
<path id="hex_299" d="M54.6337 1642.28L42.2439 1663.66L54.6337 1685.27H79.4133L91.8032 1663.78L79.4133 1642.28H54.6337Z" fill="#F0E09C" stroke="#E7C943" stroke-width="3"/>
<path id="hex_300" d="M166.473 1577.81L154.077 1599.13L166.473 1620.68H191.266L203.662 1599.24L191.266 1577.81H166.473Z" fill="#F0E09C" stroke="#E7C943" stroke-width="3"/>
<path id="hex_301" d="M166.473 1491.85L154.077 1513.16L166.473 1534.71H191.266L203.662 1513.28L191.266 1491.85H166.473Z" fill="#F0E09C" stroke="#E7C943" stroke-width="3"/>
<path id="hex_302" d="M166.231 1534.96L153.834 1556.27L166.231 1577.82H191.024L203.42 1556.39L191.024 1534.96H166.231Z" fill="#F0E09C" stroke="#E7C943" stroke-width="3"/>
<path id="hex_303" d="M15.6686 1102.64L3.27222 1123.96L15.6686 1145.51H40.4613L52.8576 1124.08L40.4613 1102.64H15.6686Z" fill="#F0E09C" stroke="#E7C943" stroke-width="3"/>
<path id="hex_304" d="M90.7416 1102.87L78.3452 1124.19L90.7416 1145.74H115.534L127.931 1124.31L115.534 1102.87H90.7416Z" fill="#F0E09C" stroke="#E7C943" stroke-width="3"/>
<path id="hex_305" d="M15.6686 1145.97L3.27222 1167.29L15.6686 1188.84H40.4613L52.8576 1167.41L40.4613 1145.97H15.6686Z" fill="#F0E09C" stroke="#E7C943" stroke-width="3"/>
<path id="hex_306" d="M90.7416 1146.2L78.3452 1167.52L90.7416 1189.07H115.534L127.931 1167.64L115.534 1146.2H90.7416Z" fill="#F0E09C" stroke="#E7C943" stroke-width="3"/>
<path id="hex_307" d="M53.2049 1167.75L40.8086 1189.07L53.2049 1210.62H77.9976L90.394 1189.19L77.9976 1167.75H53.2049Z" fill="#F0E09C" stroke="#E7C943" stroke-width="3"/>
<path id="hex_308" d="M15.6686 1189.07L3.27222 1210.39L15.6686 1231.94H40.4613L52.8576 1210.5L40.4613 1189.07H15.6686Z" fill="#F0E09C" stroke="#E7C943" stroke-width="3"/>
<path id="hex_309" d="M53.2049 1210.85L40.8086 1232.17L53.2049 1253.72H77.9976L90.394 1232.28L77.9976 1210.85H53.2049Z" fill="#F0E09C" stroke="#E7C943" stroke-width="3"/>
<path id="hex_310" d="M15.6686 1232.17L3.27222 1253.48L15.6686 1275.03H40.4613L52.8576 1253.6L40.4613 1232.17H15.6686Z" fill="#F0E09C" stroke="#E7C943" stroke-width="3"/>
<path id="hex_311" d="M15.556 1275.61L3.15967 1296.93L15.556 1318.48H40.3487L52.745 1297.04L40.3487 1275.61H15.556Z" fill="#F0E09C" stroke="#E7C943" stroke-width="3"/>
<path id="hex_312" d="M90.7416 1189.3L78.3452 1210.62L90.7416 1232.17H115.534L127.931 1210.73L115.534 1189.3H90.7416Z" fill="#F0E09C" stroke="#E7C943" stroke-width="3"/>
<path id="hex_313" d="M90.7416 1232.4L78.3452 1253.72L90.7416 1275.27H115.534L127.931 1253.83L115.534 1232.4H90.7416Z" fill="#F0E09C" stroke="#E7C943" stroke-width="3"/>
<path id="hex_314" d="M53.2049 1253.95L40.8086 1275.27L53.2049 1296.81H77.9976L90.394 1275.38L77.9976 1253.95H53.2049Z" fill="#F0E09C" stroke="#E7C943" stroke-width="3"/>
<path id="hex_315" d="M90.7889 1275.82L78.3926 1297.14L90.7889 1318.68H115.582L127.978 1297.25L115.582 1275.82H90.7889Z" fill="#F0E09C" stroke="#E7C943" stroke-width="3"/>
<path id="hex_316" d="M90.7416 1059.55L78.3452 1080.86L90.7416 1102.41H115.534L127.931 1080.98L115.534 1059.55H90.7416Z" fill="#F0E09C" stroke="#E7C943" stroke-width="3"/>
<path id="hex_317" d="M53.2049 1081.09L40.8086 1102.41L53.2049 1123.96H77.9976L90.394 1102.53L77.9976 1081.09H53.2049Z" fill="#F0E09C" stroke="#E7C943" stroke-width="3"/>
<path id="hex_318" d="M165.862 1275.82L153.466 1297.14L165.862 1318.68H190.655L203.051 1297.25L190.655 1275.82H165.862Z" fill="#F0E09C" stroke="#E7C943" stroke-width="3"/>
<path id="hex_319" d="M128.278 1210.85L115.882 1232.17L128.278 1253.72H153.071L165.467 1232.28L153.071 1210.85H128.278Z" fill="#F0E09C" stroke="#E7C943" stroke-width="3"/>
<path id="hex_320" d="M128.278 1253.95L115.882 1275.27L128.278 1296.81H153.071L165.467 1275.38L153.071 1253.95H128.278Z" fill="#F0E09C" stroke="#E7C943" stroke-width="3"/>
<path id="hex_321" d="M165.815 1232.4L153.418 1253.72L165.815 1275.27H190.607L203.004 1253.83L190.607 1232.4H165.815Z" fill="#F0E09C" stroke="#E7C943" stroke-width="3"/>
<path id="hex_322" d="M128.278 1167.98L115.882 1189.3L128.278 1210.85H153.071L165.467 1189.42L153.071 1167.98H128.278Z" fill="#F0E09C" stroke="#E7C943" stroke-width="3"/>
<path id="hex_323" d="M165.815 1189.53L153.418 1210.85L165.815 1232.4H190.607L203.004 1210.97L190.607 1189.53H165.815Z" fill="#F0E09C" stroke="#E7C943" stroke-width="3"/>
<path id="hex_324" d="M165.815 1146.44L153.418 1167.75L165.815 1189.3H190.607L203.004 1167.87L190.607 1146.44H165.815Z" fill="#F0E09C" stroke="#E7C943" stroke-width="3"/>
<path id="hex_325" d="M128.278 1124.66L115.882 1145.97L128.278 1167.52H153.071L165.467 1146.09L153.071 1124.66H128.278Z" fill="#F0E09C" stroke="#E7C943" stroke-width="3"/>
<path id="hex_326" d="M15.6686 1361.93L3.27222 1383.24L15.6686 1404.79H40.4613L52.8576 1383.36L40.4613 1361.93H15.6686Z" fill="#F0E09C" stroke="#E7C943" stroke-width="3"/>
<path id="hex_327" d="M90.7416 1362.16L78.3452 1383.48L90.7416 1405.02H115.534L127.931 1383.59L115.534 1362.16H90.7416Z" fill="#F0E09C" stroke="#E7C943" stroke-width="3"/>
<path id="hex_328" d="M90.7416 1318.83L78.3452 1340.15L90.7416 1361.7H115.534L127.931 1340.26L115.534 1318.83H90.7416Z" fill="#F0E09C" stroke="#E7C943" stroke-width="3"/>
<path id="hex_329" d="M53.2049 1340.38L40.8086 1361.69L53.2049 1383.24H77.9976L90.394 1361.81L77.9976 1340.38H53.2049Z" fill="#F0E09C" stroke="#E7C943" stroke-width="3"/>
<path id="hex_330" d="M128.278 1383.94L115.882 1405.26L128.278 1426.8H153.071L165.467 1405.37L153.071 1383.94H128.278Z" fill="#F0E09C" stroke="#E7C943" stroke-width="3"/>
<path id="hex_331" d="M128.278 1081.33L115.882 1102.64L128.278 1124.19H153.071L165.467 1102.76L153.071 1081.33H128.278Z" fill="#F0E09C" stroke="#E7C943" stroke-width="3"/>
<path id="hex_332" d="M165.815 1059.78L153.418 1081.09L165.815 1102.64H190.607L203.004 1081.21L190.607 1059.78H165.815Z" fill="#F0E09C" stroke="#E7C943" stroke-width="3"/>
<path id="hex_333" d="M165.815 1103.11L153.418 1124.42L165.815 1145.97H190.607L203.004 1124.54L190.607 1103.11H165.815Z" fill="#F0E09C" stroke="#E7C943" stroke-width="3"/>
<path id="hex_334" d="M15.6686 1059.31L3.27222 1080.63L15.6686 1102.18H40.4613L52.8576 1080.75L40.4613 1059.31H15.6686Z" fill="#F0E09C" stroke="#E7C943" stroke-width="3"/>
<path id="hex_335" d="M14.4435 930.341L2.04712 951.659L14.4435 973.207H39.2362L51.6325 951.774L39.2362 930.341H14.4435Z" fill="#F0E09C" stroke="#E7C943" stroke-width="3"/>
<path id="hex_336" d="M14.3963 886.922L2 908.239L14.3963 929.787H39.189L51.5854 908.355L39.189 886.922H14.3963Z" fill="#F0E09C" stroke="#E7C943" stroke-width="3"/>
<path id="hex_337" d="M14.3963 844.056L2 865.373L14.3963 886.922H39.189L51.5854 865.489L39.189 844.056H14.3963Z" fill="#F0E09C" stroke="#E7C943" stroke-width="3"/>
<path id="hex_338" d="M51.9151 908.297L39.5188 929.614L51.9151 951.163H76.7078L89.1042 929.73L76.7078 908.297H51.9151Z" fill="#F0E09C" stroke="#E7C943" stroke-width="3"/>
<path id="hex_339" d="M51.9151 865.2L39.5188 886.517L51.9151 908.066H76.7078L89.1042 886.633L76.7078 865.2H51.9151Z" fill="#F0E09C" stroke="#E7C943" stroke-width="3"/>
<path id="hex_340" d="M127.196 865.306L114.8 886.623L127.196 908.172H151.989L164.385 886.739L151.989 865.306H127.196Z" fill="#F0E09C" stroke="#E7C943" stroke-width="3"/>
<path id="hex_341" d="M89.659 886.855L77.2627 908.173L89.659 929.721H114.452L126.848 908.288L114.452 886.855H89.659Z" fill="#F0E09C" stroke="#E7C943" stroke-width="3"/>
<path id="hex_342" d="M127.243 908.726L114.847 930.043L127.243 951.592H152.036L164.432 930.159L152.036 908.726H127.243Z" fill="#F0E09C" stroke="#E7C943" stroke-width="3"/>
<path id="hex_343" d="M164.478 930.488L152.081 951.805L164.478 973.354H189.27L201.667 951.921L189.27 930.488H164.478Z" fill="#F0E09C" stroke="#E7C943" stroke-width="3"/>
<path id="hex_344" d="M89.659 929.99L77.2627 951.307L89.659 972.856H114.452L126.848 951.423L114.452 929.99H89.659Z" fill="#F0E09C" stroke="#E7C943" stroke-width="3"/>
<path id="hex_345" d="M52.8932 1037.97L40.5034 1059.35L52.8932 1080.97H77.6729L90.0627 1059.47L77.6729 1037.97H52.8932Z" fill="#F0E09C" stroke="#E7C943" stroke-width="3"/>
<path id="hex_346" d="M52.8932 994.647L40.5034 1016.03L52.8932 1037.64H77.6729L90.0627 1016.14L77.6729 994.647H52.8932Z" fill="#F0E09C" stroke="#E7C943" stroke-width="3"/>
<path id="hex_347" d="M90.309 1016.64L77.9192 1038.02L90.309 1059.63H115.089L127.478 1038.13L115.089 1016.64H90.309Z" fill="#F0E09C" stroke="#E7C943" stroke-width="3"/>
<path id="hex_348" d="M128.053 1038.3L115.663 1059.68L128.053 1081.29H152.832L165.222 1059.8L152.832 1038.3H128.053Z" fill="#F0E09C" stroke="#E7C943" stroke-width="3"/>
<path id="hex_349" d="M128.053 994.975L115.663 1016.36L128.053 1037.97H152.832L165.222 1016.47L152.832 994.975H128.053Z" fill="#F0E09C" stroke="#E7C943" stroke-width="3"/>
<path id="hex_350" d="M165.468 1016.64L153.079 1038.18L165.468 1059.96H190.248L202.638 1038.3L190.248 1016.64H165.468Z" fill="#F0E09C" stroke="#E7C943" stroke-width="3"/>
<path id="hex_351" d="M165.468 973.314L153.079 994.695L165.468 1016.31H190.248L202.638 994.811L190.248 973.314H165.468Z" fill="#F0E09C" stroke="#E7C943" stroke-width="3"/>
<path id="hex_352" d="M128.053 951.324L115.663 972.705L128.053 994.319H152.832L165.222 972.821L152.832 951.324H128.053Z" fill="#F0E09C" stroke="#E7C943" stroke-width="3"/>
<path id="hex_353" d="M90.309 972.985L77.9192 994.367L90.309 1015.98H115.089L127.478 994.483L115.089 972.985H90.309Z" fill="#F0E09C" stroke="#E7C943" stroke-width="3"/>
<path id="hex_354" d="M52.8932 951.324L40.5034 972.705L52.8932 994.319H77.6729L90.0627 972.821L77.6729 951.324H52.8932Z" fill="#F0E09C" stroke="#E7C943" stroke-width="3"/>
<path id="hex_355" d="M164.733 886.855L152.336 908.173L164.733 929.721H189.525L201.922 908.288L189.525 886.855H164.733Z" fill="#F0E09C" stroke="#E7C943" stroke-width="3"/>
<path id="hex_356" d="M164.49 844L152.094 865.317L164.49 886.866H189.283L201.679 865.433L189.283 844H164.49Z" fill="#F0E09C" stroke="#E7C943" stroke-width="3"/>
<path id="hex_357" d="M129.643 1685.73L117.247 1707.05L129.643 1728.6H154.436L166.832 1707.16L154.436 1685.73H129.643Z" fill="#F0E09C" stroke="#E7C943" stroke-width="3"/>
<path id="hex_358" d="M202.443 908.054L190.047 929.372L202.443 950.92H227.236L239.632 929.487L227.236 908.054H202.443Z" fill="#F0E09C" stroke="#E7C943" stroke-width="3"/>
<path id="hex_359" d="M239.777 843L227.381 864.317L239.777 885.866H264.57L276.966 864.433L264.57 843H239.777Z" fill="#F0E09C" stroke="#E7C943" stroke-width="3"/>
<path id="hex_360" d="M203.34 994.304L190.95 1015.85L203.34 1037.63H228.119L240.509 1015.97L228.119 994.304H203.34Z" fill="#F0E09C" stroke="#E7C943" stroke-width="3"/>
<path id="hex_361" d="M278.171 994.632L265.781 1016.01L278.171 1037.63H302.95L315.34 1016.13L302.95 994.632H278.171Z" fill="#F0E09C" stroke="#E7C943" stroke-width="3"/>
<path id="hex_362" d="M203.34 1037.95L190.95 1059.34L203.34 1080.95H228.119L240.509 1059.45L228.119 1037.95H203.34Z" fill="#F0E09C" stroke="#E7C943" stroke-width="3"/>
<path id="hex_363" d="M278.171 1038.28L265.781 1059.66L278.171 1081.28H302.95L315.34 1059.78L302.95 1038.28H278.171Z" fill="#F0E09C" stroke="#E7C943" stroke-width="3"/>
<path id="hex_364" d="M278.171 950.98L265.781 972.525L278.171 994.303H302.95L315.34 972.642L302.95 950.98H278.171Z" fill="#F0E09C" stroke="#E7C943" stroke-width="3"/>
<path id="hex_365" d="M240.755 972.642L228.365 994.187L240.755 1015.97H265.535L277.924 994.304L265.535 972.642H240.755Z" fill="#F0E09C" stroke="#E7C943" stroke-width="3"/>
<path id="hex_366" d="M353.33 1038.28L340.94 1059.83L353.33 1081.61H378.11L390.499 1059.95L378.11 1038.28H353.33Z" fill="#F0E09C" stroke="#E7C943" stroke-width="3"/>
<path id="hex_367" d="M315.914 972.97L303.524 994.351L315.914 1015.97H340.694L353.084 994.468L340.694 972.97H315.914Z" fill="#F0E09C" stroke="#E7C943" stroke-width="3"/>
<path id="hex_368" d="M353.33 951.308L340.94 972.69L353.33 994.304H378.11L390.499 972.806L378.11 951.308H353.33Z" fill="#F0E09C" stroke="#E7C943" stroke-width="3"/>
<path id="hex_369" d="M353.33 994.96L340.94 1016.34L353.33 1037.95H378.11L390.499 1016.46L378.11 994.96H353.33Z" fill="#F0E09C" stroke="#E7C943" stroke-width="3"/>
<path id="hex_370" d="M203.34 950.98L190.95 972.361L203.34 993.975H228.119L240.509 972.478L228.119 950.98H203.34Z" fill="#F0E09C" stroke="#E7C943" stroke-width="3"/>
<path id="hex_371" d="M390.746 1016.29L378.356 1037.67L390.746 1059.29H415.525L427.915 1037.79L415.525 1016.29H390.746Z" fill="#F0E09C" stroke="#E7C943" stroke-width="3"/>
<path id="hex_372" d="M390.746 972.97L378.356 994.351L390.746 1015.97H415.525L427.915 994.468L415.525 972.97H390.746Z" fill="#F0E09C" stroke="#E7C943" stroke-width="3"/>
<path id="hex_373" d="M202.396 864.635L190 885.952L202.396 907.501H227.189L239.585 886.068L227.189 864.635H202.396Z" fill="#F0E09C" stroke="#E7C943" stroke-width="3"/>
</g>
</svg>
