<svg id="hex" fill="none" xmlns="http://www.w3.org/2000/svg">
<g id="hex-portrait">
<path id="hex_2" d="M54.1459 649.394L41.7495 670.711L54.1459 692.26H78.9385L91.3349 670.827L78.9385 649.394H54.1459Z" fill="#F0E09C" stroke="#E7C943" stroke-width="3"/>
<path id="hex_3" d="M91.6825 714.273L79.2861 735.59L91.6825 757.138H116.475L128.872 735.705L116.475 714.273H91.6825Z" fill="#F0E09C" stroke="#E7C943" stroke-width="3"/>
<path id="hex_4" d="M54.1368 778.902L41.7405 800.219L54.1368 821.768H78.9295L91.3259 800.335L78.9295 778.902H54.1368Z" fill="#F0E09C" stroke="#E7C943" stroke-width="3"/>
<path id="hex_5" d="M54.1459 606.297L41.7495 627.614L54.1459 649.163H78.9385L91.3349 627.73L78.9385 606.297H54.1459Z" fill="#F0E09C" stroke="#E7C943" stroke-width="3"/>
<path id="hex_6" d="M91.6825 628.077L79.2861 649.394L91.6825 670.943H116.475L128.872 649.51L116.475 628.077H91.6825Z" fill="#F0E09C" stroke="#E7C943" stroke-width="3"/>
<path id="hex_7" d="M129.219 606.529L116.823 627.846L129.219 649.394H154.012L166.408 627.961L154.012 606.529H129.219Z" fill="#F0E09C" stroke="#E7C943" stroke-width="3"/>
<path id="hex_8" d="M204.292 606.76L191.896 628.077L204.292 649.626H229.085L241.481 628.193L229.085 606.76H204.292Z" fill="#F0E09C" stroke="#E7C943" stroke-width="3"/>
<path id="hex_9" d="M129.219 649.858L116.823 671.175L129.219 692.724H154.012L166.408 671.291L154.012 649.858H129.219Z" fill="#F0E09C" stroke="#E7C943" stroke-width="3"/>
<path id="hex_10" d="M91.6825 671.175L79.2861 692.492L91.6825 714.041H116.475L128.872 692.608L116.475 671.175H91.6825Z" fill="#F0E09C" stroke="#E7C943" stroke-width="3"/>
<path id="hex_11" d="M204.292 650.089L191.896 671.407L204.292 692.955H229.085L241.481 671.522L229.085 650.089H204.292Z" fill="#F0E09C" stroke="#E7C943" stroke-width="3"/>
<path id="hex_12" d="M166.756 671.638L154.359 692.955L166.756 714.504H191.548L203.945 693.071L191.548 671.638H166.756Z" fill="#F0E09C" stroke="#E7C943" stroke-width="3"/>
<path id="hex_13" d="M129.219 692.956L116.823 714.273L129.219 735.821H154.012L166.408 714.388L154.012 692.956H129.219Z" fill="#F0E09C" stroke="#E7C943" stroke-width="3"/>
<path id="hex_14" d="M166.756 714.736L154.359 736.053L166.756 757.602H191.548L203.945 736.169L191.548 714.736H166.756Z" fill="#F0E09C" stroke="#E7C943" stroke-width="3"/>
<path id="hex_15" d="M129.219 736.053L116.823 757.37L129.219 778.919H154.012L166.408 757.486L154.012 736.053H129.219Z" fill="#F0E09C" stroke="#E7C943" stroke-width="3"/>
<path id="hex_16" d="M129.107 779.495L116.71 800.812L129.107 822.361H153.899L166.296 800.928L153.899 779.495H129.107Z" fill="#F0E09C" stroke="#E7C943" stroke-width="3"/>
<path id="hex_17" d="M91.6825 757.37L79.2861 778.687L91.6825 800.236H116.475L128.872 778.803L116.475 757.37H91.6825Z" fill="#F0E09C" stroke="#E7C943" stroke-width="3"/>
<path id="hex_18" d="M204.292 693.187L191.896 714.504L204.292 736.053H229.085L241.481 714.62L229.085 693.187H204.292Z" fill="#F0E09C" stroke="#E7C943" stroke-width="3"/>
<path id="hex_19" d="M204.292 736.285L191.896 757.602L204.292 779.151H229.085L241.481 757.718L229.085 736.285H204.292Z" fill="#F0E09C" stroke="#E7C943" stroke-width="3"/>
<path id="hex_20" d="M166.756 757.833L154.359 779.15L166.756 800.699H191.548L203.945 779.266L191.548 757.833H166.756Z" fill="#F0E09C" stroke="#E7C943" stroke-width="3"/>
<path id="hex_21" d="M204.339 779.704L191.943 801.021L204.339 822.57H229.132L241.528 801.137L229.132 779.704H204.339Z" fill="#F0E09C" stroke="#E7C943" stroke-width="3"/>
<path id="hex_22" d="M204.292 563.431L191.896 584.748L204.292 606.297H229.085L241.481 584.864L229.085 563.431H204.292Z" fill="#F0E09C" stroke="#E7C943" stroke-width="3"/>
<path id="hex_23" d="M166.756 584.98L154.359 606.297L166.756 627.846H191.548L203.945 606.413L191.548 584.98H166.756Z" fill="#F0E09C" stroke="#E7C943" stroke-width="3"/>
<path id="hex_24" d="M91.6825 584.748L79.2861 606.065L91.6825 627.614H116.475L128.872 606.181L116.475 584.748H91.6825Z" fill="#F0E09C" stroke="#E7C943" stroke-width="3"/>
<path id="hex_25" d="M54.1459 562.968L41.7495 584.285L54.1459 605.833H78.9385L91.3349 584.4L78.9385 562.968H54.1459Z" fill="#F0E09C" stroke="#E7C943" stroke-width="3"/>
<path id="hex_26" d="M279.413 779.704L267.016 801.021L279.413 822.57H304.205L316.602 801.137L304.205 779.704H279.413Z" fill="#F0E09C" stroke="#E7C943" stroke-width="3"/>
<path id="hex_27" d="M241.829 714.736L229.432 736.053L241.829 757.602H266.621L279.018 736.169L266.621 714.736H241.829Z" fill="#F0E09C" stroke="#E7C943" stroke-width="3"/>
<path id="hex_28" d="M241.829 757.833L229.432 779.15L241.829 800.699H266.621L279.018 779.266L266.621 757.833H241.829Z" fill="#F0E09C" stroke="#E7C943" stroke-width="3"/>
<path id="hex_29" d="M279.366 736.285L266.969 757.602L279.366 779.151H304.158L316.555 757.718L304.158 736.285H279.366Z" fill="#F0E09C" stroke="#E7C943" stroke-width="3"/>
<path id="hex_30" d="M241.829 671.87L229.432 693.187L241.829 714.736H266.621L279.018 693.303L266.621 671.87H241.829Z" fill="#F0E09C" stroke="#E7C943" stroke-width="3"/>
<path id="hex_31" d="M279.366 693.419L266.969 714.736L279.366 736.285H304.158L316.555 714.852L304.158 693.419H279.366Z" fill="#F0E09C" stroke="#E7C943" stroke-width="3"/>
<path id="hex_32" d="M279.366 650.321L266.969 671.638L279.366 693.187H304.158L316.555 671.754L304.158 650.321H279.366Z" fill="#F0E09C" stroke="#E7C943" stroke-width="3"/>
<path id="hex_33" d="M241.829 628.541L229.432 649.858L241.829 671.407H266.621L279.018 649.974L266.621 628.541H241.829Z" fill="#F0E09C" stroke="#E7C943" stroke-width="3"/>
<path id="hex_34" d="M354.628 650.04L342.232 671.357L354.628 692.906H379.421L391.817 671.473L379.421 650.04H354.628Z" fill="#F0E09C" stroke="#E7C943" stroke-width="3"/>
<path id="hex_35" d="M204.292 822.714L191.896 844.032L204.292 865.58H229.085L241.481 844.147L229.085 822.714H204.292Z" fill="#F0E09C" stroke="#E7C943" stroke-width="3"/>
<path id="hex_36" d="M54.1459 822.251L41.7495 843.568L54.1459 865.117H78.9385L91.3349 843.684L78.9385 822.251H54.1459Z" fill="#F0E09C" stroke="#E7C943" stroke-width="3"/>
<path id="hex_37" d="M241.829 585.211L229.432 606.529L241.829 628.077H266.621L279.018 606.644L266.621 585.211H241.829Z" fill="#F0E09C" stroke="#E7C943" stroke-width="3"/>
<path id="hex_38" d="M279.366 563.663L266.969 584.98L279.366 606.529H304.158L316.555 585.096L304.158 563.663H279.366Z" fill="#F0E09C" stroke="#E7C943" stroke-width="3"/>
<path id="hex_39" d="M279.366 606.992L266.969 628.309L279.366 649.858H304.158L316.555 628.425L304.158 606.992H279.366Z" fill="#F0E09C" stroke="#E7C943" stroke-width="3"/>
<path id="hex_40" d="M129.219 563.199L116.823 584.516L129.219 606.065H154.012L166.408 584.632L154.012 563.199H129.219Z" fill="#F0E09C" stroke="#E7C943" stroke-width="3"/>
<path id="hex_41" d="M429.494 563.721L417.098 585.038L429.494 606.587H454.287L466.683 585.154L454.287 563.721H429.494Z" fill="#F0E09C" stroke="#E7C943" stroke-width="3"/>
<path id="hex_42" d="M316.884 757.66L304.488 778.977L316.884 800.526H341.677L354.073 779.093L341.677 757.66H316.884Z" fill="#F0E09C" stroke="#E7C943" stroke-width="3"/>
<path id="hex_43" d="M316.884 714.563L304.488 735.88L316.884 757.429H341.677L354.073 735.996L341.677 714.563H316.884Z" fill="#F0E09C" stroke="#E7C943" stroke-width="3"/>
<path id="hex_44" d="M316.884 671.465L304.488 692.782L316.884 714.331H341.677L354.073 692.898L341.677 671.465H316.884Z" fill="#F0E09C" stroke="#E7C943" stroke-width="3"/>
<path id="hex_45" d="M316.884 628.368L304.488 649.685L316.884 671.234H341.677L354.073 649.801L341.677 628.368H316.884Z" fill="#F0E09C" stroke="#E7C943" stroke-width="3"/>
<path id="hex_46" d="M391.958 585.27L379.561 606.587L391.958 628.136H416.75L429.147 606.703L416.75 585.27H391.958Z" fill="#F0E09C" stroke="#E7C943" stroke-width="3"/>
<path id="hex_47" d="M354.421 563.721L342.025 585.038L354.421 606.587H379.214L391.61 585.154L379.214 563.721H354.421Z" fill="#F0E09C" stroke="#E7C943" stroke-width="3"/>
<path id="hex_48" d="M316.884 585.27L304.488 606.587L316.884 628.136H341.677L354.073 606.703L341.677 585.27H316.884Z" fill="#F0E09C" stroke="#E7C943" stroke-width="3"/>
<path id="hex_49" d="M392.165 671.572L379.769 692.889L392.165 714.438H416.958L429.354 693.005L416.958 671.572H392.165Z" fill="#F0E09C" stroke="#E7C943" stroke-width="3"/>
<path id="hex_50" d="M392.165 714.67L379.769 735.987L392.165 757.535H416.958L429.354 736.103L416.958 714.67H392.165Z" fill="#F0E09C" stroke="#E7C943" stroke-width="3"/>
<path id="hex_51" d="M354.628 736.218L342.232 757.535L354.628 779.084H379.421L391.817 757.651L379.421 736.218H354.628Z" fill="#F0E09C" stroke="#E7C943" stroke-width="3"/>
<path id="hex_52" d="M392.212 758.089L379.816 779.406L392.212 800.955H417.005L429.401 779.522L417.005 758.089H392.212Z" fill="#F0E09C" stroke="#E7C943" stroke-width="3"/>
<path id="hex_53" d="M429.447 779.851L417.051 801.168L429.447 822.717H454.24L466.636 801.284L454.24 779.851H429.447Z" fill="#F0E09C" stroke="#E7C943" stroke-width="3"/>
<path id="hex_54" d="M354.628 779.353L342.232 800.67L354.628 822.219H379.421L391.817 800.786L379.421 779.353H354.628Z" fill="#F0E09C" stroke="#E7C943" stroke-width="3"/>
<path id="hex_55" d="M354.3 606.717L341.904 628.034L354.3 649.582H379.093L391.489 628.149L379.093 606.717H354.3Z" fill="#F0E09C" stroke="#E7C943" stroke-width="3"/>
<path id="hex_56" d="M430.438 822.677L418.048 844.058L430.438 865.672H455.217L467.607 844.174L455.217 822.677H430.438Z" fill="#F0E09C" stroke="#E7C943" stroke-width="3"/>
<path id="hex_57" d="M393.022 800.687L380.632 822.068L393.022 843.682H417.802L430.191 822.184L417.802 800.687H393.022Z" fill="#F0E09C" stroke="#E7C943" stroke-width="3"/>
<path id="hex_58" d="M355.278 822.348L342.888 843.73L355.278 865.344H380.058L392.448 843.846L380.058 822.348H355.278Z" fill="#F0E09C" stroke="#E7C943" stroke-width="3"/>
<path id="hex_59" d="M317.862 800.687L305.473 822.068L317.862 843.682H342.642L355.032 822.184L342.642 800.687H317.862Z" fill="#F0E09C" stroke="#E7C943" stroke-width="3"/>
<path id="hex_60" d="M429.702 736.218L417.305 757.535L429.702 779.084H454.494L466.891 757.651L454.494 736.218H429.702Z" fill="#F0E09C" stroke="#E7C943" stroke-width="3"/>
<path id="hex_61" d="M429.702 650.255L417.305 671.572L429.702 693.121H454.494L466.891 671.688L454.494 650.255H429.702Z" fill="#F0E09C" stroke="#E7C943" stroke-width="3"/>
<path id="hex_62" d="M429.46 693.363L417.063 714.68L429.46 736.229H454.252L466.649 714.796L454.252 693.363H429.46Z" fill="#F0E09C" stroke="#E7C943" stroke-width="3"/>
<path id="hex_63" d="M53.8461 432.644L41.4497 453.961L53.8461 475.51H78.6387L91.0351 454.077L78.6387 432.644H53.8461Z" fill="#F0E09C" stroke="#E7C943" stroke-width="3"/>
<path id="hex_64" d="M53.7989 389.224L41.4026 410.541L53.7989 432.09H78.5916L90.988 410.657L78.5916 389.224H53.7989Z" fill="#F0E09C" stroke="#E7C943" stroke-width="3"/>
<path id="hex_65" d="M53.7989 346.359L41.4026 367.676L53.7989 389.224H78.5916L90.988 367.791L78.5916 346.359H53.7989Z" fill="#F0E09C" stroke="#E7C943" stroke-width="3"/>
<path id="hex_66" d="M53.7989 303.261L41.4026 324.578L53.7989 346.127H78.5916L90.988 324.694L78.5916 303.261H53.7989Z" fill="#F0E09C" stroke="#E7C943" stroke-width="3"/>
<path id="hex_67" d="M53.7989 216.603L41.4026 237.92L53.7989 259.468H78.5916L90.988 238.035L78.5916 216.603H53.7989Z" fill="#F0E09C" stroke="#E7C943" stroke-width="3"/>
<path id="hex_68" d="M128.751 303.685L116.354 325.002L128.751 346.551H153.543L165.94 325.118L153.543 303.685H128.751Z" fill="#F0E09C" stroke="#E7C943" stroke-width="3"/>
<path id="hex_69" d="M128.751 260.587L116.354 281.904L128.751 303.453H153.543L165.94 282.02L153.543 260.587H128.751Z" fill="#F0E09C" stroke="#E7C943" stroke-width="3"/>
<path id="hex_70" d="M166.287 282.368L153.891 303.685L166.287 325.234H191.08L203.476 303.801L191.08 282.368H166.287Z" fill="#F0E09C" stroke="#E7C943" stroke-width="3"/>
<path id="hex_71" d="M203.824 303.917L191.427 325.234L203.824 346.782H228.617L241.013 325.349L228.617 303.917H203.824Z" fill="#F0E09C" stroke="#E7C943" stroke-width="3"/>
<path id="hex_72" d="M128.751 389.88L116.354 411.197L128.751 432.746H153.543L165.94 411.313L153.543 389.88H128.751Z" fill="#F0E09C" stroke="#E7C943" stroke-width="3"/>
<path id="hex_73" d="M166.287 368.563L153.891 389.88L166.287 411.429H191.08L203.476 389.996L191.08 368.563H166.287Z" fill="#F0E09C" stroke="#E7C943" stroke-width="3"/>
<path id="hex_74" d="M241.36 368.795L228.964 390.112L241.36 411.661H266.153L278.549 390.228L266.153 368.795H241.36Z" fill="#F0E09C" stroke="#E7C943" stroke-width="3"/>
<path id="hex_75" d="M166.287 411.66L153.891 432.977L166.287 454.526H191.08L203.476 433.093L191.08 411.66H166.287Z" fill="#F0E09C" stroke="#E7C943" stroke-width="3"/>
<path id="hex_76" d="M128.798 433.299L116.401 454.617L128.798 476.165H153.59L165.987 454.732L153.59 433.299H128.798Z" fill="#F0E09C" stroke="#E7C943" stroke-width="3"/>
<path id="hex_77" d="M203.815 433.424L191.418 454.741L203.815 476.29H228.607L241.004 454.857L228.607 433.424H203.815Z" fill="#F0E09C" stroke="#E7C943" stroke-width="3"/>
<path id="hex_78" d="M203.824 260.819L191.427 282.136L203.824 303.685H228.617L241.013 282.252L228.617 260.819H203.824Z" fill="#F0E09C" stroke="#E7C943" stroke-width="3"/>
<path id="hex_79" d="M241.36 282.6L228.964 303.917L241.36 325.465H266.153L278.549 304.033L266.153 282.6H241.36Z" fill="#F0E09C" stroke="#E7C943" stroke-width="3"/>
<path id="hex_80" d="M278.897 261.051L266.501 282.368L278.897 303.916H303.69L316.086 282.483L303.69 261.051H278.897Z" fill="#F0E09C" stroke="#E7C943" stroke-width="3"/>
<path id="hex_81" d="M353.97 261.282L341.574 282.599L353.97 304.148H378.763L391.159 282.715L378.763 261.282H353.97Z" fill="#F0E09C" stroke="#E7C943" stroke-width="3"/>
<path id="hex_82" d="M278.897 304.38L266.501 325.697L278.897 347.246H303.69L316.086 325.813L303.69 304.38H278.897Z" fill="#F0E09C" stroke="#E7C943" stroke-width="3"/>
<path id="hex_83" d="M241.36 325.697L228.964 347.014L241.36 368.563H266.153L278.549 347.13L266.153 325.697H241.36Z" fill="#F0E09C" stroke="#E7C943" stroke-width="3"/>
<path id="hex_84" d="M353.97 304.612L341.574 325.929L353.97 347.478H378.763L391.159 326.045L378.763 304.612H353.97Z" fill="#F0E09C" stroke="#E7C943" stroke-width="3"/>
<path id="hex_85" d="M316.434 326.16L304.037 347.477L316.434 369.026H341.226L353.623 347.593L341.226 326.16H316.434Z" fill="#F0E09C" stroke="#E7C943" stroke-width="3"/>
<path id="hex_86" d="M278.897 347.478L266.501 368.795L278.897 390.344H303.69L316.086 368.911L303.69 347.478H278.897Z" fill="#F0E09C" stroke="#E7C943" stroke-width="3"/>
<path id="hex_87" d="M316.434 369.258L304.037 390.575L316.434 412.124H341.226L353.623 390.691L341.226 369.258H316.434Z" fill="#F0E09C" stroke="#E7C943" stroke-width="3"/>
<path id="hex_88" d="M278.897 390.575L266.501 411.892L278.897 433.441H303.69L316.086 412.008L303.69 390.575H278.897Z" fill="#F0E09C" stroke="#E7C943" stroke-width="3"/>
<path id="hex_89" d="M278.785 434.018L266.388 455.335L278.785 476.883H303.577L315.974 455.451L303.577 434.018H278.785Z" fill="#F0E09C" stroke="#E7C943" stroke-width="3"/>
<path id="hex_90" d="M241.36 411.892L228.964 433.209L241.36 454.758H266.153L278.549 433.325L266.153 411.892H241.36Z" fill="#F0E09C" stroke="#E7C943" stroke-width="3"/>
<path id="hex_91" d="M353.97 347.709L341.574 369.026L353.97 390.575H378.763L391.159 369.142L378.763 347.709H353.97Z" fill="#F0E09C" stroke="#E7C943" stroke-width="3"/>
<path id="hex_92" d="M353.97 390.807L341.574 412.124L353.97 433.673H378.763L391.159 412.24L378.763 390.807H353.97Z" fill="#F0E09C" stroke="#E7C943" stroke-width="3"/>
<path id="hex_93" d="M316.434 412.355L304.037 433.673L316.434 455.221H341.226L353.623 433.788L341.226 412.355H316.434Z" fill="#F0E09C" stroke="#E7C943" stroke-width="3"/>
<path id="hex_94" d="M354.018 434.227L341.621 455.544L354.018 477.092H378.81L391.207 455.659L378.81 434.227H354.018Z" fill="#F0E09C" stroke="#E7C943" stroke-width="3"/>
<path id="hex_95" d="M353.97 217.953L341.574 239.27L353.97 260.819H378.763L391.159 239.386L378.763 217.953H353.97Z" fill="#F0E09C" stroke="#E7C943" stroke-width="3"/>
<path id="hex_96" d="M316.434 239.502L304.037 260.819L316.434 282.368H341.226L353.623 260.935L341.226 239.502H316.434Z" fill="#F0E09C" stroke="#E7C943" stroke-width="3"/>
<path id="hex_97" d="M241.36 239.27L228.964 260.587L241.36 282.136H266.153L278.549 260.703L266.153 239.27H241.36Z" fill="#F0E09C" stroke="#E7C943" stroke-width="3"/>
<path id="hex_98" d="M203.824 217.49L191.427 238.807L203.824 260.356H228.617L241.013 238.923L228.617 217.49H203.824Z" fill="#F0E09C" stroke="#E7C943" stroke-width="3"/>
<path id="hex_99" d="M91.2142 411.429L78.8179 432.746L91.2142 454.295H116.007L128.403 432.862L116.007 411.429H91.2142Z" fill="#F0E09C" stroke="#E7C943" stroke-width="3"/>
<path id="hex_100" d="M91.2142 368.331L78.8179 389.648L91.2142 411.197H116.007L128.403 389.764L116.007 368.331H91.2142Z" fill="#F0E09C" stroke="#E7C943" stroke-width="3"/>
<path id="hex_101" d="M91.2142 325.234L78.8179 346.551L91.2142 368.1H116.007L128.403 346.667L116.007 325.234H91.2142Z" fill="#F0E09C" stroke="#E7C943" stroke-width="3"/>
<path id="hex_102" d="M91.2142 282.136L78.8179 303.453L91.2142 325.002H116.007L128.403 303.569L116.007 282.136H91.2142Z" fill="#F0E09C" stroke="#E7C943" stroke-width="3"/>
<path id="hex_103" d="M166.287 239.038L153.891 260.355L166.287 281.904H191.08L203.476 260.471L191.08 239.038H166.287Z" fill="#F0E09C" stroke="#E7C943" stroke-width="3"/>
<path id="hex_104" d="M128.751 217.49L116.354 238.807L128.751 260.356H153.543L165.94 238.923L153.543 217.49H128.751Z" fill="#F0E09C" stroke="#E7C943" stroke-width="3"/>
<path id="hex_105" d="M91.2142 239.038L78.8179 260.355L91.2142 281.904H116.007L128.403 260.471L116.007 239.038H91.2142Z" fill="#F0E09C" stroke="#E7C943" stroke-width="3"/>
<path id="hex_106" d="M429.091 434.227L416.694 455.544L429.091 477.092H453.883L466.28 455.659L453.883 434.227H429.091Z" fill="#F0E09C" stroke="#E7C943" stroke-width="3"/>
<path id="hex_107" d="M391.507 369.258L379.11 390.575L391.507 412.124H416.299L428.696 390.691L416.299 369.258H391.507Z" fill="#F0E09C" stroke="#E7C943" stroke-width="3"/>
<path id="hex_108" d="M391.507 412.355L379.11 433.673L391.507 455.221H416.299L428.696 433.788L416.299 412.355H391.507Z" fill="#F0E09C" stroke="#E7C943" stroke-width="3"/>
<path id="hex_109" d="M429.044 390.807L416.647 412.124L429.044 433.673H453.836L466.233 412.24L453.836 390.807H429.044Z" fill="#F0E09C" stroke="#E7C943" stroke-width="3"/>
<path id="hex_110" d="M391.507 326.392L379.11 347.709L391.507 369.258H416.299L428.696 347.825L416.299 326.392H391.507Z" fill="#F0E09C" stroke="#E7C943" stroke-width="3"/>
<path id="hex_111" d="M429.044 347.941L416.647 369.258L429.044 390.807H453.836L466.233 369.374L453.836 347.941H429.044Z" fill="#F0E09C" stroke="#E7C943" stroke-width="3"/>
<path id="hex_112" d="M429.044 304.843L416.647 326.16L429.044 347.709H453.836L466.233 326.276L453.836 304.843H429.044Z" fill="#F0E09C" stroke="#E7C943" stroke-width="3"/>
<path id="hex_113" d="M391.507 283.063L379.11 304.38L391.507 325.929H416.299L428.696 304.496L416.299 283.063H391.507Z" fill="#F0E09C" stroke="#E7C943" stroke-width="3"/>
<path id="hex_114" d="M53.7989 475.886L41.4026 497.203L53.7989 518.752H78.5916L90.988 497.319L78.5916 475.886H53.7989Z" fill="#F0E09C" stroke="#E7C943" stroke-width="3"/>
<path id="hex_115" d="M128.751 519.871L116.354 541.188L128.751 562.737H153.543L165.94 541.304L153.543 519.871H128.751Z" fill="#F0E09C" stroke="#E7C943" stroke-width="3"/>
<path id="hex_116" d="M166.287 541.651L153.891 562.968L166.287 584.517H191.08L203.476 563.084L191.08 541.651H166.287Z" fill="#F0E09C" stroke="#E7C943" stroke-width="3"/>
<path id="hex_117" d="M203.824 520.103L191.427 541.42L203.824 562.968H228.617L241.013 541.535L228.617 520.103H203.824Z" fill="#F0E09C" stroke="#E7C943" stroke-width="3"/>
<path id="hex_118" d="M241.36 541.883L228.964 563.2L241.36 584.749H266.153L278.549 563.316L266.153 541.883H241.36Z" fill="#F0E09C" stroke="#E7C943" stroke-width="3"/>
<path id="hex_119" d="M278.897 520.334L266.501 541.651L278.897 563.2H303.69L316.086 541.767L303.69 520.334H278.897Z" fill="#F0E09C" stroke="#E7C943" stroke-width="3"/>
<path id="hex_120" d="M353.97 520.566L341.574 541.883L353.97 563.432H378.763L391.159 541.999L378.763 520.566H353.97Z" fill="#F0E09C" stroke="#E7C943" stroke-width="3"/>
<path id="hex_121" d="M353.97 477.237L341.574 498.554L353.97 520.103H378.763L391.159 498.67L378.763 477.237H353.97Z" fill="#F0E09C" stroke="#E7C943" stroke-width="3"/>
<path id="hex_122" d="M316.434 498.785L304.037 520.102L316.434 541.651H341.226L353.623 520.218L341.226 498.785H316.434Z" fill="#F0E09C" stroke="#E7C943" stroke-width="3"/>
<path id="hex_123" d="M241.36 498.554L228.964 519.871L241.36 541.42H266.153L278.549 519.987L266.153 498.554H241.36Z" fill="#F0E09C" stroke="#E7C943" stroke-width="3"/>
<path id="hex_124" d="M203.824 476.773L191.427 498.09L203.824 519.639H228.617L241.013 498.206L228.617 476.773H203.824Z" fill="#F0E09C" stroke="#E7C943" stroke-width="3"/>
<path id="hex_125" d="M91.2142 541.42L78.8179 562.737L91.2142 584.286H116.007L128.403 562.853L116.007 541.42H91.2142Z" fill="#F0E09C" stroke="#E7C943" stroke-width="3"/>
<path id="hex_126" d="M166.287 498.322L153.891 519.639L166.287 541.188H191.08L203.476 519.755L191.08 498.322H166.287Z" fill="#F0E09C" stroke="#E7C943" stroke-width="3"/>
<path id="hex_127" d="M128.751 476.773L116.354 498.09L128.751 519.639H153.543L165.94 498.206L153.543 476.773H128.751Z" fill="#F0E09C" stroke="#E7C943" stroke-width="3"/>
<path id="hex_128" d="M91.2142 498.322L78.8179 519.639L91.2142 541.188H116.007L128.403 519.755L116.007 498.322H91.2142Z" fill="#F0E09C" stroke="#E7C943" stroke-width="3"/>
<path id="hex_129" d="M391.507 542.346L379.11 563.664L391.507 585.212H416.299L428.696 563.779L416.299 542.346H391.507Z" fill="#F0E09C" stroke="#E7C943" stroke-width="3"/>
<path id="hex_130" d="M391.507 239.734L379.11 261.051L391.507 282.599H416.299L428.696 261.166L416.299 239.734H391.507Z" fill="#F0E09C" stroke="#E7C943" stroke-width="3"/>
<path id="hex_131" d="M429.044 218.185L416.647 239.502L429.044 261.051H453.836L466.233 239.618L453.836 218.185H429.044Z" fill="#F0E09C" stroke="#E7C943" stroke-width="3"/>
<path id="hex_132" d="M429.044 261.514L416.647 282.831L429.044 304.38H453.836L466.233 282.947L453.836 261.514H429.044Z" fill="#F0E09C" stroke="#E7C943" stroke-width="3"/>
<path id="hex_133" d="M278.897 217.721L266.501 239.038L278.897 260.587H303.69L316.086 239.154L303.69 217.721H278.897Z" fill="#F0E09C" stroke="#E7C943" stroke-width="3"/>
<path id="hex_134" d="M89.942 23.317L77.5457 44.6341L89.942 66.1829H114.735L127.131 44.7499L114.735 23.317L89.942 23.317Z" fill="#F0E09C" stroke="#E7C943" stroke-width="3"/>
<path id="hex_135" d="M52.3963 87.9463L40 109.263L52.3963 130.812H77.189L89.5854 109.379L77.189 87.9463L52.3963 87.9463Z" fill="#F0E09C" stroke="#E7C943" stroke-width="3"/>
<path id="hex_136" d="M127.479 2L115.083 23.3171L127.479 44.8659L152.272 44.8659L164.668 23.4329L152.272 2L127.479 2Z" fill="#F0E09C" stroke="#E7C943" stroke-width="3"/>
<path id="hex_137" d="M165.015 23.7802L152.619 45.0972L165.015 66.646H189.808L202.204 45.2131L189.808 23.7802L165.015 23.7802Z" fill="#F0E09C" stroke="#E7C943" stroke-width="3"/>
<path id="hex_138" d="M127.479 45.0972L115.083 66.4142L127.479 87.963H152.272L164.668 66.5301L152.272 45.0972L127.479 45.0972Z" fill="#F0E09C" stroke="#E7C943" stroke-width="3"/>
<path id="hex_139" d="M127.366 88.5398L114.97 109.857L127.366 131.406H152.159L164.555 109.973L152.159 88.5398L127.366 88.5398Z" fill="#F0E09C" stroke="#E7C943" stroke-width="3"/>
<path id="hex_140" d="M89.942 66.4146L77.5457 87.7316L89.942 109.28H114.735L127.131 87.8475L114.735 66.4146L89.942 66.4146Z" fill="#F0E09C" stroke="#E7C943" stroke-width="3"/>
<path id="hex_141" d="M202.552 2.23157L190.156 23.5486L202.552 45.0974L227.345 45.0974L239.741 23.6645L227.345 2.23157L202.552 2.23157Z" fill="#F0E09C" stroke="#E7C943" stroke-width="3"/>
<path id="hex_142" d="M202.552 45.3291L190.156 66.6462L202.552 88.195H227.345L239.741 66.762L227.345 45.3291L202.552 45.3291Z" fill="#F0E09C" stroke="#E7C943" stroke-width="3"/>
<path id="hex_143" d="M165.015 66.8778L152.619 88.1949L165.015 109.744H189.808L202.204 88.3107L189.808 66.8778L165.015 66.8778Z" fill="#F0E09C" stroke="#E7C943" stroke-width="3"/>
<path id="hex_144" d="M202.599 88.7489L190.203 110.066L202.599 131.615H227.392L239.788 110.182L227.392 88.7489L202.599 88.7489Z" fill="#F0E09C" stroke="#E7C943" stroke-width="3"/>
<path id="hex_145" d="M277.672 88.7489L265.276 110.066L277.672 131.615H302.465L314.861 110.182L302.465 88.7489L277.672 88.7489Z" fill="#F0E09C" stroke="#E7C943" stroke-width="3"/>
<path id="hex_146" d="M240.088 23.7802L227.692 45.0972L240.088 66.646H264.881L277.277 45.2131L264.881 23.7802L240.088 23.7802Z" fill="#F0E09C" stroke="#E7C943" stroke-width="3"/>
<path id="hex_147" d="M240.088 66.8778L227.692 88.1949L240.088 109.744H264.881L277.277 88.3107L264.881 66.8778L240.088 66.8778Z" fill="#F0E09C" stroke="#E7C943" stroke-width="3"/>
<path id="hex_148" d="M277.625 45.3291L265.229 66.6462L277.625 88.195H302.418L314.814 66.762L302.418 45.3291L277.625 45.3291Z" fill="#F0E09C" stroke="#E7C943" stroke-width="3"/>
<path id="hex_149" d="M277.625 2.46313L265.229 23.7802L277.625 45.329L302.418 45.329L314.814 23.8961L302.418 2.46313L277.625 2.46313Z" fill="#F0E09C" stroke="#E7C943" stroke-width="3"/>
<path id="hex_150" d="M52.4054 174.625L40.009 195.942L52.4054 217.49H77.1981L89.5944 196.057L77.1981 174.625H52.4054Z" fill="#F0E09C" stroke="#E7C943" stroke-width="3"/>
<path id="hex_151" d="M89.942 196.405L77.5457 217.722L89.942 239.271H114.735L127.131 217.838L114.735 196.405H89.942Z" fill="#F0E09C" stroke="#E7C943" stroke-width="3"/>
<path id="hex_152" d="M127.479 174.857L115.083 196.174L127.479 217.722H152.272L164.668 196.289L152.272 174.857H127.479Z" fill="#F0E09C" stroke="#E7C943" stroke-width="3"/>
<path id="hex_153" d="M202.552 175.088L190.156 196.405L202.552 217.954H227.345L239.741 196.521L227.345 175.088H202.552Z" fill="#F0E09C" stroke="#E7C943" stroke-width="3"/>
<path id="hex_154" d="M202.552 131.759L190.156 153.076L202.552 174.625H227.345L239.741 153.192L227.345 131.759H202.552Z" fill="#F0E09C" stroke="#E7C943" stroke-width="3"/>
<path id="hex_155" d="M165.015 153.308L152.619 174.625L165.015 196.173H189.808L202.204 174.741L189.808 153.308H165.015Z" fill="#F0E09C" stroke="#E7C943" stroke-width="3"/>
<path id="hex_156" d="M89.942 153.076L77.5457 174.393L89.942 195.942H114.735L127.131 174.509L114.735 153.076H89.942Z" fill="#F0E09C" stroke="#E7C943" stroke-width="3"/>
<path id="hex_157" d="M52.4054 131.295L40.009 152.612L52.4054 174.161H77.1981L89.5944 152.728L77.1981 131.295H52.4054Z" fill="#F0E09C" stroke="#E7C943" stroke-width="3"/>
<path id="hex_158" d="M240.088 196.869L227.692 218.186L240.088 239.735H264.881L277.277 218.302L264.881 196.869H240.088Z" fill="#F0E09C" stroke="#E7C943" stroke-width="3"/>
<path id="hex_159" d="M315.144 66.7048L302.748 88.0219L315.144 109.571H339.937L352.333 88.1378L339.937 66.7048L315.144 66.7048Z" fill="#F0E09C" stroke="#E7C943" stroke-width="3"/>
<path id="hex_160" d="M315.144 23.6072L302.748 44.9243L315.144 66.473H339.937L352.333 45.0401L339.937 23.6072L315.144 23.6072Z" fill="#F0E09C" stroke="#E7C943" stroke-width="3"/>
<path id="hex_161" d="M390.425 23.7139L378.028 45.0309L390.425 66.5797H415.217L427.614 45.1468L415.217 23.7139L390.425 23.7139Z" fill="#F0E09C" stroke="#E7C943" stroke-width="3"/>
<path id="hex_162" d="M352.888 45.2629L340.491 66.58L352.888 88.1288H377.68L390.077 66.6959L377.68 45.2629L352.888 45.2629Z" fill="#F0E09C" stroke="#E7C943" stroke-width="3"/>
<path id="hex_163" d="M390.472 67.1335L378.075 88.4506L390.472 109.999H415.264L427.661 88.5665L415.264 67.1335L390.472 67.1335Z" fill="#F0E09C" stroke="#E7C943" stroke-width="3"/>
<path id="hex_164" d="M427.706 88.8955L415.31 110.213L427.706 131.761H452.499L464.895 110.328L452.499 88.8955L427.706 88.8955Z" fill="#F0E09C" stroke="#E7C943" stroke-width="3"/>
<path id="hex_165" d="M352.888 88.3975L340.491 109.715L352.888 131.263H377.68L390.077 109.83L377.68 88.3975L352.888 88.3975Z" fill="#F0E09C" stroke="#E7C943" stroke-width="3"/>
<path id="hex_166" d="M316.122 196.378L303.732 217.759L316.122 239.373H340.902L353.291 217.875L340.902 196.378H316.122Z" fill="#F0E09C" stroke="#E7C943" stroke-width="3"/>
<path id="hex_167" d="M316.122 153.054L303.732 174.436L316.122 196.049H340.902L353.291 174.552L340.902 153.054H316.122Z" fill="#F0E09C" stroke="#E7C943" stroke-width="3"/>
<path id="hex_168" d="M353.538 175.044L341.148 196.426L353.538 218.04H378.317L390.707 196.542L378.317 175.044H353.538Z" fill="#F0E09C" stroke="#E7C943" stroke-width="3"/>
<path id="hex_169" d="M391.281 196.706L378.892 218.087L391.281 239.701H416.061L428.451 218.204L416.061 196.706H391.281Z" fill="#F0E09C" stroke="#E7C943" stroke-width="3"/>
<path id="hex_170" d="M391.281 153.383L378.892 174.764L391.281 196.378H416.061L428.451 174.88L416.061 153.383H391.281Z" fill="#F0E09C" stroke="#E7C943" stroke-width="3"/>
<path id="hex_171" d="M428.697 175.044L416.307 196.589L428.697 218.368H453.477L465.867 196.706L453.477 175.044H428.697Z" fill="#F0E09C" stroke="#E7C943" stroke-width="3"/>
<path id="hex_172" d="M428.697 131.721L416.307 153.103L428.697 174.716H453.477L465.867 153.219L453.477 131.721H428.697Z" fill="#F0E09C" stroke="#E7C943" stroke-width="3"/>
<path id="hex_173" d="M391.281 109.731L378.892 131.112L391.281 152.726H416.061L428.451 131.229L416.061 109.731L391.281 109.731Z" fill="#F0E09C" stroke="#E7C943" stroke-width="3"/>
<path id="hex_174" d="M353.538 131.393L341.148 152.774L353.538 174.388H378.317L390.707 152.89L378.317 131.393H353.538Z" fill="#F0E09C" stroke="#E7C943" stroke-width="3"/>
<path id="hex_175" d="M316.122 109.731L303.732 131.112L316.122 152.726H340.902L353.291 131.229L340.902 109.731L316.122 109.731Z" fill="#F0E09C" stroke="#E7C943" stroke-width="3"/>
<path id="hex_176" d="M427.961 45.2629L415.565 66.58L427.961 88.1288H452.754L465.15 66.6959L452.754 45.2629L427.961 45.2629Z" fill="#F0E09C" stroke="#E7C943" stroke-width="3"/>
<path id="hex_177" d="M427.719 2.40747L415.323 23.7246L427.719 45.2733L452.512 45.2733L464.908 23.8404L452.512 2.40747L427.719 2.40747Z" fill="#F0E09C" stroke="#E7C943" stroke-width="3"/>
<path id="hex_178" d="M433.184 1513.31L420.788 1534.63L433.184 1556.18H457.977L470.373 1534.75L457.977 1513.31H433.184Z" fill="#F0E09C" stroke="#E7C943" stroke-width="3"/>
<path id="hex_179" d="M433.392 1685.81L420.995 1707.13L433.392 1728.68H458.184L470.581 1707.24L458.184 1685.81H433.392Z" fill="#F0E09C" stroke="#E7C943" stroke-width="3"/>
<path id="hex_180" d="M433.392 1599.85L420.995 1621.16L433.392 1642.71H458.184L470.581 1621.28L458.184 1599.85H433.392Z" fill="#F0E09C" stroke="#E7C943" stroke-width="3"/>
<path id="hex_181" d="M433.15 1642.96L420.753 1664.27L433.15 1685.82H457.942L470.339 1664.39L457.942 1642.96H433.15Z" fill="#F0E09C" stroke="#E7C943" stroke-width="3"/>
<path id="hex_182" d="M432.781 1383.82L420.384 1405.14L432.781 1426.68H457.573L469.97 1405.25L457.573 1383.82H432.781Z" fill="#F0E09C" stroke="#E7C943" stroke-width="3"/>
<path id="hex_183" d="M432.734 1340.4L420.337 1361.72L432.734 1383.27H457.526L469.923 1361.83L457.526 1340.4H432.734Z" fill="#F0E09C" stroke="#E7C943" stroke-width="3"/>
<path id="hex_184" d="M432.734 1297.53L420.337 1318.85L432.734 1340.4H457.526L469.923 1318.97L457.526 1297.53H432.734Z" fill="#F0E09C" stroke="#E7C943" stroke-width="3"/>
<path id="hex_185" d="M432.734 1254.44L420.337 1275.75L432.734 1297.3H457.526L469.923 1275.87L457.526 1254.44H432.734Z" fill="#F0E09C" stroke="#E7C943" stroke-width="3"/>
<path id="hex_186" d="M432.734 1167.78L420.337 1189.09L432.734 1210.64H457.526L469.923 1189.21L457.526 1167.78H432.734Z" fill="#F0E09C" stroke="#E7C943" stroke-width="3"/>
<path id="hex_187" d="M432.734 1211.11L420.337 1232.42L432.734 1253.97H457.526L469.923 1232.54L457.526 1211.11H432.734Z" fill="#F0E09C" stroke="#E7C943" stroke-width="3"/>
<path id="hex_188" d="M431.396 1038.49L419 1059.81L431.396 1081.35H456.189L468.585 1059.92L456.189 1038.49H431.396Z" fill="#F0E09C" stroke="#E7C943" stroke-width="3"/>
<path id="hex_189" d="M432.387 1124.64L419.997 1146.18L432.387 1167.96H457.167L469.557 1146.3L457.167 1124.64H432.387Z" fill="#F0E09C" stroke="#E7C943" stroke-width="3"/>
<path id="hex_190" d="M432.387 1081.31L419.997 1102.7L432.387 1124.31H457.167L469.557 1102.81L457.167 1081.31H432.387Z" fill="#F0E09C" stroke="#E7C943" stroke-width="3"/>
<path id="hex_191" d="M431.651 994.855L419.255 1016.17L431.651 1037.72H456.444L468.84 1016.29L456.444 994.855H431.651Z" fill="#F0E09C" stroke="#E7C943" stroke-width="3"/>
<path id="hex_192" d="M431.409 952L419.013 973.317L431.409 994.866H456.202L468.598 973.433L456.202 952H431.409Z" fill="#F0E09C" stroke="#E7C943" stroke-width="3"/>
<path id="hex_193" d="M319.539 1577.96L307.143 1599.28L319.539 1620.83H344.332L356.728 1599.39L344.332 1577.96H319.539Z" fill="#F0E09C" stroke="#E7C943" stroke-width="3"/>
<path id="hex_194" d="M282.002 1599.51L269.606 1620.83L282.002 1642.37H306.795L319.191 1620.94L306.795 1599.51H282.002Z" fill="#F0E09C" stroke="#E7C943" stroke-width="3"/>
<path id="hex_195" d="M244.517 1620.93L232.121 1642.25L244.517 1663.8H269.31L281.706 1642.36L269.31 1620.93H244.517Z" fill="#F0E09C" stroke="#E7C943" stroke-width="3"/>
<path id="hex_196" d="M319.586 1621.38L307.19 1642.7L319.586 1664.25H344.379L356.775 1642.81L344.379 1621.38H319.586Z" fill="#F0E09C" stroke="#E7C943" stroke-width="3"/>
<path id="hex_197" d="M319.539 1405.11L307.143 1426.42L319.539 1447.97H344.332L356.728 1426.54L344.332 1405.11H319.539Z" fill="#F0E09C" stroke="#E7C943" stroke-width="3"/>
<path id="hex_198" d="M282.002 1426.65L269.606 1447.97L282.002 1469.52H306.795L319.191 1448.09L306.795 1426.65H282.002Z" fill="#F0E09C" stroke="#E7C943" stroke-width="3"/>
<path id="hex_199" d="M206.929 1426.42L194.533 1447.74L206.929 1469.29H231.722L244.118 1447.86L231.722 1426.42H206.929Z" fill="#F0E09C" stroke="#E7C943" stroke-width="3"/>
<path id="hex_200" d="M394.66 1621.38L382.263 1642.7L394.66 1664.25H419.452L431.849 1642.81L419.452 1621.38H394.66Z" fill="#F0E09C" stroke="#E7C943" stroke-width="3"/>
<path id="hex_201" d="M244.517 1447.64L232.121 1468.95L244.517 1490.5H269.31L281.706 1469.07L269.31 1447.64H244.517Z" fill="#F0E09C" stroke="#E7C943" stroke-width="3"/>
<path id="hex_202" d="M281.933 1469.63L269.537 1490.94L281.933 1512.49H306.726L319.122 1491.06L306.726 1469.63H281.933Z" fill="#F0E09C" stroke="#E7C943" stroke-width="3"/>
<path id="hex_203" d="M357.076 1599.51L344.68 1620.83L357.076 1642.37H381.869L394.265 1620.94L381.869 1599.51H357.076Z" fill="#F0E09C" stroke="#E7C943" stroke-width="3"/>
<path id="hex_204" d="M394.612 1577.96L382.216 1599.28L394.612 1620.83H419.405L431.801 1599.39L419.405 1577.96H394.612Z" fill="#F0E09C" stroke="#E7C943" stroke-width="3"/>
<path id="hex_205" d="M357.076 1513.54L344.68 1534.86L357.076 1556.41H381.869L394.265 1534.98L381.869 1513.54H357.076Z" fill="#F0E09C" stroke="#E7C943" stroke-width="3"/>
<path id="hex_206" d="M394.612 1535.09L382.216 1556.41L394.612 1577.96H419.405L431.801 1556.53L419.405 1535.09H394.612Z" fill="#F0E09C" stroke="#E7C943" stroke-width="3"/>
<path id="hex_207" d="M207.184 1599.01L194.787 1620.33L207.184 1641.88H231.976L244.373 1620.44L231.976 1599.01H207.184Z" fill="#F0E09C" stroke="#E7C943" stroke-width="3"/>
<path id="hex_208" d="M281.933 1512.62L269.537 1533.94L281.933 1555.49H306.726L319.122 1534.06L306.726 1512.62H281.933Z" fill="#F0E09C" stroke="#E7C943" stroke-width="3"/>
<path id="hex_209" d="M244.517 1533.96L232.121 1555.27L244.517 1576.82H269.31L281.706 1555.39L269.31 1533.96H244.517Z" fill="#F0E09C" stroke="#E7C943" stroke-width="3"/>
<path id="hex_210" d="M282.911 1641.94L270.521 1663.48L282.911 1685.26H307.691L320.08 1663.6L307.691 1641.94H282.911Z" fill="#F0E09C" stroke="#E7C943" stroke-width="3"/>
<path id="hex_211" d="M245.495 1663.6L233.105 1685.14L245.495 1706.92H270.275L282.665 1685.26L270.275 1663.6H245.495Z" fill="#F0E09C" stroke="#E7C943" stroke-width="3"/>
<path id="hex_212" d="M320.655 1663.93L308.265 1685.31L320.655 1706.92H345.434L357.824 1685.42L345.434 1663.93H320.655Z" fill="#F0E09C" stroke="#E7C943" stroke-width="3"/>
<path id="hex_213" d="M358.07 1642.26L345.681 1663.65L358.07 1685.26H382.85L395.24 1663.76L382.85 1642.26H358.07Z" fill="#F0E09C" stroke="#E7C943" stroke-width="3"/>
<path id="hex_214" d="M208.08 1641.94L195.69 1663.32L208.08 1684.93H232.86L245.249 1663.43L232.86 1641.94H208.08Z" fill="#F0E09C" stroke="#E7C943" stroke-width="3"/>
<path id="hex_215" d="M395.486 1663.93L383.096 1685.31L395.486 1706.92H420.266L432.655 1685.42L420.266 1663.93H395.486Z" fill="#F0E09C" stroke="#E7C943" stroke-width="3"/>
<path id="hex_216" d="M207.137 1555.59L194.74 1576.91L207.137 1598.46H231.93L244.326 1577.02L231.93 1555.59H207.137Z" fill="#F0E09C" stroke="#E7C943" stroke-width="3"/>
<path id="hex_217" d="M207.137 1512.72L194.74 1534.04L207.137 1555.59H231.93L244.326 1534.16L231.93 1512.72H207.137Z" fill="#F0E09C" stroke="#E7C943" stroke-width="3"/>
<path id="hex_218" d="M207.137 1469.63L194.74 1490.94L207.137 1512.49H231.93L244.326 1491.06L231.93 1469.63H207.137Z" fill="#F0E09C" stroke="#E7C943" stroke-width="3"/>
<path id="hex_219" d="M357.076 1470.22L344.68 1491.53L357.076 1513.08H381.869L394.265 1491.65L381.869 1470.22H357.076Z" fill="#F0E09C" stroke="#E7C943" stroke-width="3"/>
<path id="hex_220" d="M357.076 1426.89L344.68 1448.2L357.076 1469.75H381.869L394.265 1448.32L381.869 1426.89H357.076Z" fill="#F0E09C" stroke="#E7C943" stroke-width="3"/>
<path id="hex_221" d="M394.612 1405.34L382.216 1426.65L394.612 1448.2H419.405L431.801 1426.77L419.405 1405.34H394.612Z" fill="#F0E09C" stroke="#E7C943" stroke-width="3"/>
<path id="hex_222" d="M394.612 1448.67L382.216 1469.98L394.612 1491.53H419.405L431.801 1470.1L419.405 1448.67H394.612Z" fill="#F0E09C" stroke="#E7C943" stroke-width="3"/>
<path id="hex_223" d="M244.466 1404.87L232.07 1426.19L244.466 1447.74H269.259L281.655 1426.31L269.259 1404.87H244.466Z" fill="#F0E09C" stroke="#E7C943" stroke-width="3"/>
<path id="hex_224" d="M244.205 1145.48L231.808 1166.8L244.205 1188.35H268.997L281.394 1166.92L268.997 1145.48H244.205Z" fill="#F0E09C" stroke="#E7C943" stroke-width="3"/>
<path id="hex_225" d="M394.195 1275.45L381.799 1296.77L394.195 1318.32H418.988L431.384 1296.89L418.988 1275.45H394.195Z" fill="#F0E09C" stroke="#E7C943" stroke-width="3"/>
<path id="hex_226" d="M356.607 1080.94L344.211 1102.26L356.607 1123.81H381.4L393.796 1102.38L381.4 1080.94H356.607Z" fill="#F0E09C" stroke="#E7C943" stroke-width="3"/>
<path id="hex_227" d="M319.071 1059.16L306.674 1080.48L319.071 1102.03H343.863L356.26 1080.6L343.863 1059.16H319.071Z" fill="#F0E09C" stroke="#E7C943" stroke-width="3"/>
<path id="hex_228" d="M206.461 1253.1L194.064 1274.42L206.461 1295.97H231.253L243.65 1274.54L231.253 1253.1H206.461Z" fill="#F0E09C" stroke="#E7C943" stroke-width="3"/>
<path id="hex_229" d="M206.461 1210.01L194.064 1231.32L206.461 1252.87H231.253L243.65 1231.44L231.253 1210.01H206.461Z" fill="#F0E09C" stroke="#E7C943" stroke-width="3"/>
<path id="hex_230" d="M206.461 1166.91L194.064 1188.23L206.461 1209.77H231.253L243.65 1188.34L231.253 1166.91H206.461Z" fill="#F0E09C" stroke="#E7C943" stroke-width="3"/>
<path id="hex_231" d="M206.461 1123.81L194.064 1145.13L206.461 1166.68H231.253L243.65 1145.24L231.253 1123.81H206.461Z" fill="#F0E09C" stroke="#E7C943" stroke-width="3"/>
<path id="hex_232" d="M281.534 1080.71L269.138 1102.03L281.534 1123.58H306.327L318.723 1102.15L306.327 1080.71H281.534Z" fill="#F0E09C" stroke="#E7C943" stroke-width="3"/>
<path id="hex_233" d="M243.998 1059.16L231.601 1080.48L243.998 1102.03H268.79L281.187 1080.6L268.79 1059.16H243.998Z" fill="#F0E09C" stroke="#E7C943" stroke-width="3"/>
<path id="hex_234" d="M206.461 1080.71L194.064 1102.03L206.461 1123.58H231.253L243.65 1102.15L231.253 1080.71H206.461Z" fill="#F0E09C" stroke="#E7C943" stroke-width="3"/>
<path id="hex_235" d="M394.195 1102.16L381.799 1123.48L394.195 1145.03H418.988L431.384 1123.59L418.988 1102.16H394.195Z" fill="#F0E09C" stroke="#E7C943" stroke-width="3"/>
<path id="hex_236" d="M281.742 1167.02L269.345 1188.33L281.742 1209.88H306.534L318.931 1188.45L306.534 1167.02H281.742Z" fill="#F0E09C" stroke="#E7C943" stroke-width="3"/>
<path id="hex_237" d="M281.742 1210.11L269.345 1231.43L281.742 1252.98H306.534L318.931 1231.55L306.534 1210.11H281.742Z" fill="#F0E09C" stroke="#E7C943" stroke-width="3"/>
<path id="hex_238" d="M244.205 1231.66L231.808 1252.98L244.205 1274.53H268.997L281.394 1253.09L268.997 1231.66H244.205Z" fill="#F0E09C" stroke="#E7C943" stroke-width="3"/>
<path id="hex_239" d="M281.789 1253.53L269.392 1274.85L281.789 1296.4H306.581L318.978 1274.97L306.581 1253.53H281.789Z" fill="#F0E09C" stroke="#E7C943" stroke-width="3"/>
<path id="hex_240" d="M356.862 1253.53L344.465 1274.85L356.862 1296.4H381.654L394.051 1274.97L381.654 1253.53H356.862Z" fill="#F0E09C" stroke="#E7C943" stroke-width="3"/>
<path id="hex_241" d="M319.023 1275.29L306.627 1296.61L319.023 1318.16H343.816L356.212 1296.73L343.816 1275.29H319.023Z" fill="#F0E09C" stroke="#E7C943" stroke-width="3"/>
<path id="hex_242" d="M244.205 1274.8L231.808 1296.11L244.205 1317.66H268.997L281.394 1296.23L268.997 1274.8H244.205Z" fill="#F0E09C" stroke="#E7C943" stroke-width="3"/>
<path id="hex_243" d="M394.195 1188.48L381.799 1209.79L394.195 1231.34H418.988L431.384 1209.91L418.988 1188.48H394.195Z" fill="#F0E09C" stroke="#E7C943" stroke-width="3"/>
<path id="hex_244" d="M243.877 1102.16L231.48 1123.48L243.877 1145.03H268.669L281.066 1123.59L268.669 1102.16H243.877Z" fill="#F0E09C" stroke="#E7C943" stroke-width="3"/>
<path id="hex_245" d="M207.439 1382.78L195.049 1404.16L207.439 1425.77H232.219L244.608 1404.27L232.219 1382.78H207.439Z" fill="#F0E09C" stroke="#E7C943" stroke-width="3"/>
<path id="hex_246" d="M207.439 1339.45L195.049 1360.83L207.439 1382.45H232.219L244.608 1360.95L232.219 1339.45H207.439Z" fill="#F0E09C" stroke="#E7C943" stroke-width="3"/>
<path id="hex_247" d="M244.855 1361.44L232.465 1382.82L244.855 1404.44H269.635L282.024 1382.94L269.635 1361.44H244.855Z" fill="#F0E09C" stroke="#E7C943" stroke-width="3"/>
<path id="hex_248" d="M282.598 1383.1L270.208 1404.49L282.598 1426.1H307.378L319.768 1404.6L307.378 1383.1H282.598Z" fill="#F0E09C" stroke="#E7C943" stroke-width="3"/>
<path id="hex_249" d="M282.598 1339.78L270.208 1361.16L282.598 1382.78H307.378L319.768 1361.28L307.378 1339.78H282.598Z" fill="#F0E09C" stroke="#E7C943" stroke-width="3"/>
<path id="hex_250" d="M320.014 1361.44L307.624 1382.99L320.014 1404.77H344.794L357.184 1383.1L344.794 1361.44H320.014Z" fill="#F0E09C" stroke="#E7C943" stroke-width="3"/>
<path id="hex_251" d="M357.758 1339.78L345.368 1361.33L357.758 1383.1H382.538L394.927 1361.44L382.538 1339.78H357.758Z" fill="#F0E09C" stroke="#E7C943" stroke-width="3"/>
<path id="hex_252" d="M357.758 1383.43L345.368 1404.81L357.758 1426.43H382.538L394.927 1404.93L382.538 1383.43H357.758Z" fill="#F0E09C" stroke="#E7C943" stroke-width="3"/>
<path id="hex_253" d="M395.174 1318.12L382.784 1339.66L395.174 1361.44H419.953L432.343 1339.78L419.953 1318.12H395.174Z" fill="#F0E09C" stroke="#E7C943" stroke-width="3"/>
<path id="hex_254" d="M320.014 1318.12L307.624 1339.5L320.014 1361.11H344.794L357.184 1339.62L344.794 1318.12H320.014Z" fill="#F0E09C" stroke="#E7C943" stroke-width="3"/>
<path id="hex_255" d="M282.598 1296.13L270.208 1317.51L282.598 1339.12H307.378L319.768 1317.63L307.378 1296.13H282.598Z" fill="#F0E09C" stroke="#E7C943" stroke-width="3"/>
<path id="hex_256" d="M244.855 1317.79L232.465 1339.17L244.855 1360.79H269.635L282.024 1339.29L269.635 1317.79H244.855Z" fill="#F0E09C" stroke="#E7C943" stroke-width="3"/>
<path id="hex_257" d="M207.439 1296.13L195.049 1317.51L207.439 1339.12H232.219L244.608 1317.63L232.219 1296.13H207.439Z" fill="#F0E09C" stroke="#E7C943" stroke-width="3"/>
<path id="hex_258" d="M357.758 1296.46L345.368 1317.84L357.758 1339.45H382.538L394.927 1317.96L382.538 1296.46H357.758Z" fill="#F0E09C" stroke="#E7C943" stroke-width="3"/>
<path id="hex_259" d="M319.278 1231.66L306.882 1252.98L319.278 1274.53H344.071L356.467 1253.09L344.071 1231.66H319.278Z" fill="#F0E09C" stroke="#E7C943" stroke-width="3"/>
<path id="hex_260" d="M356.815 1210.11L344.418 1231.43L356.815 1252.98H381.607L394.004 1231.55L381.607 1210.11H356.815Z" fill="#F0E09C" stroke="#E7C943" stroke-width="3"/>
<path id="hex_261" d="M319.278 1145.7L306.882 1167.02L319.278 1188.56H344.071L356.467 1167.13L344.071 1145.7H319.278Z" fill="#F0E09C" stroke="#E7C943" stroke-width="3"/>
<path id="hex_262" d="M356.815 1167.25L344.418 1188.56L356.815 1210.11H381.607L394.004 1188.68L381.607 1167.25H356.815Z" fill="#F0E09C" stroke="#E7C943" stroke-width="3"/>
<path id="hex_263" d="M319.036 1188.81L306.64 1210.12L319.036 1231.67H343.829L356.225 1210.24L343.829 1188.81H319.036Z" fill="#F0E09C" stroke="#E7C943" stroke-width="3"/>
<path id="hex_264" d="M356.815 1124.15L344.418 1145.47L356.815 1167.02H381.607L394.004 1145.58L381.607 1124.15H356.815Z" fill="#F0E09C" stroke="#E7C943" stroke-width="3"/>
<path id="hex_265" d="M394.144 1059.4L381.748 1080.71L394.144 1102.26H418.937L431.333 1080.83L418.937 1059.4H394.144Z" fill="#F0E09C" stroke="#E7C943" stroke-width="3"/>
<path id="hex_266" d="M317.798 887.003L305.402 908.32L317.798 929.869H342.591L354.987 908.436L342.591 887.003H317.798Z" fill="#F0E09C" stroke="#E7C943" stroke-width="3"/>
<path id="hex_267" d="M280.262 908.552L267.865 929.87L280.262 951.418H305.055L317.451 929.985L305.055 908.552H280.262Z" fill="#F0E09C" stroke="#E7C943" stroke-width="3"/>
<path id="hex_268" d="M242.777 929.975L230.381 951.292L242.777 972.841H267.57L279.966 951.408L267.57 929.975H242.777Z" fill="#F0E09C" stroke="#E7C943" stroke-width="3"/>
<path id="hex_269" d="M317.846 930.424L305.449 951.741L317.846 973.289H342.638L355.035 951.857L342.638 930.424H317.846Z" fill="#F0E09C" stroke="#E7C943" stroke-width="3"/>
<path id="hex_270" d="M392.919 930.424L380.523 951.741L392.919 973.289H417.712L430.108 951.857L417.712 930.424H392.919Z" fill="#F0E09C" stroke="#E7C943" stroke-width="3"/>
<path id="hex_271" d="M355.335 908.552L342.939 929.87L355.335 951.418H380.128L392.524 929.985L380.128 908.552H355.335Z" fill="#F0E09C" stroke="#E7C943" stroke-width="3"/>
<path id="hex_272" d="M392.872 887.003L380.476 908.32L392.872 929.869H417.665L430.061 908.436L417.665 887.003H392.872Z" fill="#F0E09C" stroke="#E7C943" stroke-width="3"/>
<path id="hex_273" d="M392.872 844.138L380.476 865.455L392.872 887.004H417.665L430.061 865.571L417.665 844.138H392.872Z" fill="#F0E09C" stroke="#E7C943" stroke-width="3"/>
<path id="hex_274" d="M19.1839 1621.3L6.7876 1642.61L19.1839 1664.16H43.9766L56.373 1642.73L43.9766 1621.3H19.1839Z" fill="#F0E09C" stroke="#E7C943" stroke-width="3"/>
<path id="hex_275" d="M19.1368 1577.88L6.74048 1599.19L19.1368 1620.74H43.9295L56.3259 1599.31L43.9295 1577.88H19.1368Z" fill="#F0E09C" stroke="#E7C943" stroke-width="3"/>
<path id="hex_276" d="M19.1368 1535.01L6.74048 1556.33L19.1368 1577.88H43.9295L56.3259 1556.44L43.9295 1535.01H19.1368Z" fill="#F0E09C" stroke="#E7C943" stroke-width="3"/>
<path id="hex_277" d="M19.1368 1491.91L6.74048 1513.23L19.1368 1534.78H43.9295L56.3259 1513.35L43.9295 1491.91H19.1368Z" fill="#F0E09C" stroke="#E7C943" stroke-width="3"/>
<path id="hex_278" d="M94.3995 1491.63L82.0032 1512.95L94.3995 1534.5H119.192L131.589 1513.07L119.192 1491.63H94.3995Z" fill="#F0E09C" stroke="#E7C943" stroke-width="3"/>
<path id="hex_279" d="M19.1368 1405.26L6.74048 1426.57L19.1368 1448.12H43.9295L56.3259 1426.69L43.9295 1405.26H19.1368Z" fill="#F0E09C" stroke="#E7C943" stroke-width="3"/>
<path id="hex_280" d="M19.1368 1448.58L6.74048 1469.9L19.1368 1491.45H43.9295L56.3259 1470.02L43.9295 1448.58H19.1368Z" fill="#F0E09C" stroke="#E7C943" stroke-width="3"/>
<path id="hex_281" d="M169.265 1405.31L156.869 1426.63L169.265 1448.18H194.058L206.455 1426.75L194.058 1405.31H169.265Z" fill="#F0E09C" stroke="#E7C943" stroke-width="3"/>
<path id="hex_282" d="M56.6556 1599.25L44.2593 1620.57L56.6556 1642.12H81.4483L93.8447 1620.69L81.4483 1599.25H56.6556Z" fill="#F0E09C" stroke="#E7C943" stroke-width="3"/>
<path id="hex_283" d="M56.6556 1556.16L44.2593 1577.47L56.6556 1599.02H81.4483L93.8447 1577.59L81.4483 1556.16H56.6556Z" fill="#F0E09C" stroke="#E7C943" stroke-width="3"/>
<path id="hex_284" d="M56.6556 1513.06L44.2593 1534.37L56.6556 1555.92H81.4483L93.8447 1534.49L81.4483 1513.06H56.6556Z" fill="#F0E09C" stroke="#E7C943" stroke-width="3"/>
<path id="hex_285" d="M56.6556 1469.96L44.2593 1491.28L56.6556 1512.83H81.4483L93.8447 1491.39L81.4483 1469.96H56.6556Z" fill="#F0E09C" stroke="#E7C943" stroke-width="3"/>
<path id="hex_286" d="M131.729 1426.86L119.333 1448.18L131.729 1469.73H156.522L168.918 1448.3L156.522 1426.86H131.729Z" fill="#F0E09C" stroke="#E7C943" stroke-width="3"/>
<path id="hex_287" d="M94.1925 1405.31L81.7961 1426.63L94.1925 1448.18H118.985L131.382 1426.75L118.985 1405.31H94.1925Z" fill="#F0E09C" stroke="#E7C943" stroke-width="3"/>
<path id="hex_288" d="M56.6556 1426.86L44.2593 1448.18L56.6556 1469.73H81.4483L93.8447 1448.3L81.4483 1426.86H56.6556Z" fill="#F0E09C" stroke="#E7C943" stroke-width="3"/>
<path id="hex_289" d="M131.936 1513.16L119.54 1534.48L131.936 1556.03H156.729L169.125 1534.6L156.729 1513.16H131.936Z" fill="#F0E09C" stroke="#E7C943" stroke-width="3"/>
<path id="hex_290" d="M131.936 1556.26L119.54 1577.58L131.936 1599.13H156.729L169.125 1577.7L156.729 1556.26H131.936Z" fill="#F0E09C" stroke="#E7C943" stroke-width="3"/>
<path id="hex_291" d="M94.3995 1577.81L82.0032 1599.13L94.3995 1620.68H119.192L131.589 1599.24L119.192 1577.81H94.3995Z" fill="#F0E09C" stroke="#E7C943" stroke-width="3"/>
<path id="hex_292" d="M131.984 1599.68L119.587 1621L131.984 1642.55H156.776L169.173 1621.11L156.776 1599.68H131.984Z" fill="#F0E09C" stroke="#E7C943" stroke-width="3"/>
<path id="hex_293" d="M169.218 1621.44L156.822 1642.76L169.218 1664.31H194.011L206.407 1642.88L194.011 1621.44H169.218Z" fill="#F0E09C" stroke="#E7C943" stroke-width="3"/>
<path id="hex_294" d="M94.3995 1620.95L82.0032 1642.26L94.3995 1663.81H119.192L131.589 1642.38L119.192 1620.95H94.3995Z" fill="#F0E09C" stroke="#E7C943" stroke-width="3"/>
<path id="hex_295" d="M94.0714 1448.31L81.675 1469.63L94.0714 1491.17H118.864L131.26 1469.74L118.864 1448.31H94.0714Z" fill="#F0E09C" stroke="#E7C943" stroke-width="3"/>
<path id="hex_296" d="M170.209 1664.27L157.819 1685.65L170.209 1707.26H194.989L207.378 1685.77L194.989 1664.27H170.209Z" fill="#F0E09C" stroke="#E7C943" stroke-width="3"/>
<path id="hex_297" d="M132.793 1642.28L120.403 1663.66L132.793 1685.27H157.573L169.963 1663.78L157.573 1642.28H132.793Z" fill="#F0E09C" stroke="#E7C943" stroke-width="3"/>
<path id="hex_298" d="M95.0495 1663.94L82.6597 1685.32L95.0495 1706.94H119.829L132.219 1685.44L119.829 1663.94H95.0495Z" fill="#F0E09C" stroke="#E7C943" stroke-width="3"/>
<path id="hex_299" d="M57.6337 1642.28L45.2439 1663.66L57.6337 1685.27H82.4133L94.8032 1663.78L82.4133 1642.28H57.6337Z" fill="#F0E09C" stroke="#E7C943" stroke-width="3"/>
<path id="hex_300" d="M169.473 1577.81L157.077 1599.13L169.473 1620.68H194.266L206.662 1599.24L194.266 1577.81H169.473Z" fill="#F0E09C" stroke="#E7C943" stroke-width="3"/>
<path id="hex_301" d="M169.473 1491.85L157.077 1513.16L169.473 1534.71H194.266L206.662 1513.28L194.266 1491.85H169.473Z" fill="#F0E09C" stroke="#E7C943" stroke-width="3"/>
<path id="hex_302" d="M169.231 1534.96L156.834 1556.27L169.231 1577.82H194.024L206.42 1556.39L194.024 1534.96H169.231Z" fill="#F0E09C" stroke="#E7C943" stroke-width="3"/>
<path id="hex_303" d="M18.6686 1102.64L6.27222 1123.96L18.6686 1145.51H43.4613L55.8576 1124.08L43.4613 1102.64H18.6686Z" fill="#F0E09C" stroke="#E7C943" stroke-width="3"/>
<path id="hex_304" d="M93.7416 1102.87L81.3452 1124.19L93.7416 1145.74H118.534L130.931 1124.31L118.534 1102.87H93.7416Z" fill="#F0E09C" stroke="#E7C943" stroke-width="3"/>
<path id="hex_305" d="M18.6686 1145.97L6.27222 1167.29L18.6686 1188.84H43.4613L55.8576 1167.41L43.4613 1145.97H18.6686Z" fill="#F0E09C" stroke="#E7C943" stroke-width="3"/>
<path id="hex_306" d="M93.7416 1146.2L81.3452 1167.52L93.7416 1189.07H118.534L130.931 1167.64L118.534 1146.2H93.7416Z" fill="#F0E09C" stroke="#E7C943" stroke-width="3"/>
<path id="hex_307" d="M56.2049 1167.75L43.8086 1189.07L56.2049 1210.62H80.9976L93.394 1189.19L80.9976 1167.75H56.2049Z" fill="#F0E09C" stroke="#E7C943" stroke-width="3"/>
<path id="hex_308" d="M18.6686 1189.07L6.27222 1210.39L18.6686 1231.94H43.4613L55.8576 1210.5L43.4613 1189.07H18.6686Z" fill="#F0E09C" stroke="#E7C943" stroke-width="3"/>
<path id="hex_309" d="M56.2049 1210.85L43.8086 1232.17L56.2049 1253.72H80.9976L93.394 1232.28L80.9976 1210.85H56.2049Z" fill="#F0E09C" stroke="#E7C943" stroke-width="3"/>
<path id="hex_310" d="M18.6686 1232.17L6.27222 1253.48L18.6686 1275.03H43.4613L55.8576 1253.6L43.4613 1232.17H18.6686Z" fill="#F0E09C" stroke="#E7C943" stroke-width="3"/>
<path id="hex_311" d="M18.556 1275.61L6.15967 1296.93L18.556 1318.48H43.3487L55.745 1297.04L43.3487 1275.61H18.556Z" fill="#F0E09C" stroke="#E7C943" stroke-width="3"/>
<path id="hex_312" d="M93.7416 1189.3L81.3452 1210.62L93.7416 1232.17H118.534L130.931 1210.73L118.534 1189.3H93.7416Z" fill="#F0E09C" stroke="#E7C943" stroke-width="3"/>
<path id="hex_313" d="M93.7416 1232.4L81.3452 1253.72L93.7416 1275.27H118.534L130.931 1253.83L118.534 1232.4H93.7416Z" fill="#F0E09C" stroke="#E7C943" stroke-width="3"/>
<path id="hex_314" d="M56.2049 1253.95L43.8086 1275.27L56.2049 1296.81H80.9976L93.394 1275.38L80.9976 1253.95H56.2049Z" fill="#F0E09C" stroke="#E7C943" stroke-width="3"/>
<path id="hex_315" d="M93.7889 1275.82L81.3926 1297.14L93.7889 1318.68H118.582L130.978 1297.25L118.582 1275.82H93.7889Z" fill="#F0E09C" stroke="#E7C943" stroke-width="3"/>
<path id="hex_316" d="M93.7416 1059.55L81.3452 1080.86L93.7416 1102.41H118.534L130.931 1080.98L118.534 1059.55H93.7416Z" fill="#F0E09C" stroke="#E7C943" stroke-width="3"/>
<path id="hex_317" d="M56.2049 1081.09L43.8086 1102.41L56.2049 1123.96H80.9976L93.394 1102.53L80.9976 1081.09H56.2049Z" fill="#F0E09C" stroke="#E7C943" stroke-width="3"/>
<path id="hex_318" d="M168.862 1275.82L156.466 1297.14L168.862 1318.68H193.655L206.051 1297.25L193.655 1275.82H168.862Z" fill="#F0E09C" stroke="#E7C943" stroke-width="3"/>
<path id="hex_319" d="M131.278 1210.85L118.882 1232.17L131.278 1253.72H156.071L168.467 1232.28L156.071 1210.85H131.278Z" fill="#F0E09C" stroke="#E7C943" stroke-width="3"/>
<path id="hex_320" d="M131.278 1253.95L118.882 1275.27L131.278 1296.81H156.071L168.467 1275.38L156.071 1253.95H131.278Z" fill="#F0E09C" stroke="#E7C943" stroke-width="3"/>
<path id="hex_321" d="M168.815 1232.4L156.418 1253.72L168.815 1275.27H193.607L206.004 1253.83L193.607 1232.4H168.815Z" fill="#F0E09C" stroke="#E7C943" stroke-width="3"/>
<path id="hex_322" d="M131.278 1167.98L118.882 1189.3L131.278 1210.85H156.071L168.467 1189.42L156.071 1167.98H131.278Z" fill="#F0E09C" stroke="#E7C943" stroke-width="3"/>
<path id="hex_323" d="M168.815 1189.53L156.418 1210.85L168.815 1232.4H193.607L206.004 1210.97L193.607 1189.53H168.815Z" fill="#F0E09C" stroke="#E7C943" stroke-width="3"/>
<path id="hex_324" d="M168.815 1146.44L156.418 1167.75L168.815 1189.3H193.607L206.004 1167.87L193.607 1146.44H168.815Z" fill="#F0E09C" stroke="#E7C943" stroke-width="3"/>
<path id="hex_325" d="M131.278 1124.66L118.882 1145.97L131.278 1167.52H156.071L168.467 1146.09L156.071 1124.66H131.278Z" fill="#F0E09C" stroke="#E7C943" stroke-width="3"/>
<path id="hex_326" d="M18.6686 1361.93L6.27222 1383.24L18.6686 1404.79H43.4613L55.8576 1383.36L43.4613 1361.93H18.6686Z" fill="#F0E09C" stroke="#E7C943" stroke-width="3"/>
<path id="hex_327" d="M93.7416 1362.16L81.3452 1383.48L93.7416 1405.02H118.534L130.931 1383.59L118.534 1362.16H93.7416Z" fill="#F0E09C" stroke="#E7C943" stroke-width="3"/>
<path id="hex_328" d="M93.7416 1318.83L81.3452 1340.15L93.7416 1361.7H118.534L130.931 1340.26L118.534 1318.83H93.7416Z" fill="#F0E09C" stroke="#E7C943" stroke-width="3"/>
<path id="hex_329" d="M56.2049 1340.38L43.8086 1361.69L56.2049 1383.24H80.9976L93.394 1361.81L80.9976 1340.38H56.2049Z" fill="#F0E09C" stroke="#E7C943" stroke-width="3"/>
<path id="hex_330" d="M131.278 1383.94L118.882 1405.26L131.278 1426.8H156.071L168.467 1405.37L156.071 1383.94H131.278Z" fill="#F0E09C" stroke="#E7C943" stroke-width="3"/>
<path id="hex_331" d="M131.278 1081.33L118.882 1102.64L131.278 1124.19H156.071L168.467 1102.76L156.071 1081.33H131.278Z" fill="#F0E09C" stroke="#E7C943" stroke-width="3"/>
<path id="hex_332" d="M168.815 1059.78L156.418 1081.09L168.815 1102.64H193.607L206.004 1081.21L193.607 1059.78H168.815Z" fill="#F0E09C" stroke="#E7C943" stroke-width="3"/>
<path id="hex_333" d="M168.815 1103.11L156.418 1124.42L168.815 1145.97H193.607L206.004 1124.54L193.607 1103.11H168.815Z" fill="#F0E09C" stroke="#E7C943" stroke-width="3"/>
<path id="hex_334" d="M18.6686 1059.31L6.27222 1080.63L18.6686 1102.18H43.4613L55.8576 1080.75L43.4613 1059.31H18.6686Z" fill="#F0E09C" stroke="#E7C943" stroke-width="3"/>
<path id="hex_335" d="M17.4435 930.341L5.04712 951.659L17.4435 973.207H42.2362L54.6325 951.774L42.2362 930.341H17.4435Z" fill="#F0E09C" stroke="#E7C943" stroke-width="3"/>
<path id="hex_336" d="M17.3963 886.922L5 908.239L17.3963 929.787H42.189L54.5854 908.355L42.189 886.922H17.3963Z" fill="#F0E09C" stroke="#E7C943" stroke-width="3"/>
<path id="hex_337" d="M17.3963 844.056L5 865.373L17.3963 886.922H42.189L54.5854 865.489L42.189 844.056H17.3963Z" fill="#F0E09C" stroke="#E7C943" stroke-width="3"/>
<path id="hex_338" d="M54.9151 908.297L42.5188 929.614L54.9151 951.163H79.7078L92.1042 929.73L79.7078 908.297H54.9151Z" fill="#F0E09C" stroke="#E7C943" stroke-width="3"/>
<path id="hex_339" d="M54.9151 865.2L42.5188 886.517L54.9151 908.066H79.7078L92.1042 886.633L79.7078 865.2H54.9151Z" fill="#F0E09C" stroke="#E7C943" stroke-width="3"/>
<path id="hex_340" d="M130.196 865.306L117.8 886.623L130.196 908.172H154.989L167.385 886.739L154.989 865.306H130.196Z" fill="#F0E09C" stroke="#E7C943" stroke-width="3"/>
<path id="hex_341" d="M92.659 886.855L80.2627 908.173L92.659 929.721H117.452L129.848 908.288L117.452 886.855H92.659Z" fill="#F0E09C" stroke="#E7C943" stroke-width="3"/>
<path id="hex_342" d="M130.243 908.726L117.847 930.043L130.243 951.592H155.036L167.432 930.159L155.036 908.726H130.243Z" fill="#F0E09C" stroke="#E7C943" stroke-width="3"/>
<path id="hex_343" d="M167.478 930.488L155.081 951.805L167.478 973.354H192.27L204.667 951.921L192.27 930.488H167.478Z" fill="#F0E09C" stroke="#E7C943" stroke-width="3"/>
<path id="hex_344" d="M92.659 929.99L80.2627 951.307L92.659 972.856H117.452L129.848 951.423L117.452 929.99H92.659Z" fill="#F0E09C" stroke="#E7C943" stroke-width="3"/>
<path id="hex_345" d="M55.8932 1037.97L43.5034 1059.35L55.8932 1080.97H80.6729L93.0627 1059.47L80.6729 1037.97H55.8932Z" fill="#F0E09C" stroke="#E7C943" stroke-width="3"/>
<path id="hex_346" d="M55.8932 994.647L43.5034 1016.03L55.8932 1037.64H80.6729L93.0627 1016.14L80.6729 994.647H55.8932Z" fill="#F0E09C" stroke="#E7C943" stroke-width="3"/>
<path id="hex_347" d="M93.309 1016.64L80.9192 1038.02L93.309 1059.63H118.089L130.478 1038.13L118.089 1016.64H93.309Z" fill="#F0E09C" stroke="#E7C943" stroke-width="3"/>
<path id="hex_348" d="M131.053 1038.3L118.663 1059.68L131.053 1081.29H155.832L168.222 1059.8L155.832 1038.3H131.053Z" fill="#F0E09C" stroke="#E7C943" stroke-width="3"/>
<path id="hex_349" d="M131.053 994.975L118.663 1016.36L131.053 1037.97H155.832L168.222 1016.47L155.832 994.975H131.053Z" fill="#F0E09C" stroke="#E7C943" stroke-width="3"/>
<path id="hex_350" d="M168.468 1016.64L156.079 1038.18L168.468 1059.96H193.248L205.638 1038.3L193.248 1016.64H168.468Z" fill="#F0E09C" stroke="#E7C943" stroke-width="3"/>
<path id="hex_351" d="M168.468 973.314L156.079 994.695L168.468 1016.31H193.248L205.638 994.811L193.248 973.314H168.468Z" fill="#F0E09C" stroke="#E7C943" stroke-width="3"/>
<path id="hex_352" d="M131.053 951.324L118.663 972.705L131.053 994.319H155.832L168.222 972.821L155.832 951.324H131.053Z" fill="#F0E09C" stroke="#E7C943" stroke-width="3"/>
<path id="hex_353" d="M93.309 972.985L80.9192 994.367L93.309 1015.98H118.089L130.478 994.483L118.089 972.985H93.309Z" fill="#F0E09C" stroke="#E7C943" stroke-width="3"/>
<path id="hex_354" d="M55.8932 951.324L43.5034 972.705L55.8932 994.319H80.6729L93.0627 972.821L80.6729 951.324H55.8932Z" fill="#F0E09C" stroke="#E7C943" stroke-width="3"/>
<path id="hex_355" d="M167.733 886.855L155.336 908.173L167.733 929.721H192.525L204.922 908.288L192.525 886.855H167.733Z" fill="#F0E09C" stroke="#E7C943" stroke-width="3"/>
<path id="hex_356" d="M167.49 844L155.094 865.317L167.49 886.866H192.283L204.679 865.433L192.283 844H167.49Z" fill="#F0E09C" stroke="#E7C943" stroke-width="3"/>
<path id="hex_357" d="M132.643 1685.73L120.247 1707.05L132.643 1728.6H157.436L169.832 1707.16L157.436 1685.73H132.643Z" fill="#F0E09C" stroke="#E7C943" stroke-width="3"/>
<path id="hex_358" d="M205.443 908.054L193.047 929.372L205.443 950.92H230.236L242.632 929.487L230.236 908.054H205.443Z" fill="#F0E09C" stroke="#E7C943" stroke-width="3"/>
<path id="hex_359" d="M242.777 843L230.381 864.317L242.777 885.866H267.57L279.966 864.433L267.57 843H242.777Z" fill="#F0E09C" stroke="#E7C943" stroke-width="3"/>
<path id="hex_360" d="M206.34 994.304L193.95 1015.85L206.34 1037.63H231.119L243.509 1015.97L231.119 994.304H206.34Z" fill="#F0E09C" stroke="#E7C943" stroke-width="3"/>
<path id="hex_361" d="M281.171 994.632L268.781 1016.01L281.171 1037.63H305.95L318.34 1016.13L305.95 994.632H281.171Z" fill="#F0E09C" stroke="#E7C943" stroke-width="3"/>
<path id="hex_362" d="M206.34 1037.95L193.95 1059.34L206.34 1080.95H231.119L243.509 1059.45L231.119 1037.95H206.34Z" fill="#F0E09C" stroke="#E7C943" stroke-width="3"/>
<path id="hex_363" d="M281.171 1038.28L268.781 1059.66L281.171 1081.28H305.95L318.34 1059.78L305.95 1038.28H281.171Z" fill="#F0E09C" stroke="#E7C943" stroke-width="3"/>
<path id="hex_364" d="M281.171 950.98L268.781 972.525L281.171 994.303H305.95L318.34 972.642L305.95 950.98H281.171Z" fill="#F0E09C" stroke="#E7C943" stroke-width="3"/>
<path id="hex_365" d="M243.755 972.642L231.365 994.187L243.755 1015.97H268.535L280.924 994.304L268.535 972.642H243.755Z" fill="#F0E09C" stroke="#E7C943" stroke-width="3"/>
<path id="hex_366" d="M356.33 1038.28L343.94 1059.83L356.33 1081.61H381.11L393.499 1059.95L381.11 1038.28H356.33Z" fill="#F0E09C" stroke="#E7C943" stroke-width="3"/>
<path id="hex_367" d="M318.914 972.97L306.524 994.351L318.914 1015.97H343.694L356.084 994.468L343.694 972.97H318.914Z" fill="#F0E09C" stroke="#E7C943" stroke-width="3"/>
<path id="hex_368" d="M356.33 951.308L343.94 972.69L356.33 994.304H381.11L393.499 972.806L381.11 951.308H356.33Z" fill="#F0E09C" stroke="#E7C943" stroke-width="3"/>
<path id="hex_369" d="M356.33 994.96L343.94 1016.34L356.33 1037.95H381.11L393.499 1016.46L381.11 994.96H356.33Z" fill="#F0E09C" stroke="#E7C943" stroke-width="3"/>
<path id="hex_370" d="M206.34 950.98L193.95 972.361L206.34 993.975H231.119L243.509 972.478L231.119 950.98H206.34Z" fill="#F0E09C" stroke="#E7C943" stroke-width="3"/>
<path id="hex_371" d="M393.746 1016.29L381.356 1037.67L393.746 1059.29H418.525L430.915 1037.79L418.525 1016.29H393.746Z" fill="#F0E09C" stroke="#E7C943" stroke-width="3"/>
<path id="hex_372" d="M393.746 972.97L381.356 994.351L393.746 1015.97H418.525L430.915 994.468L418.525 972.97H393.746Z" fill="#F0E09C" stroke="#E7C943" stroke-width="3"/>
<path id="hex_373" d="M205.396 864.635L193 885.952L205.396 907.501H230.189L242.585 886.068L230.189 864.635H205.396Z" fill="#F0E09C" stroke="#E7C943" stroke-width="3"/>
<path id="hex_374" d="M15.6686 281.587L3.27222 302.904L15.6686 324.453H40.4613L52.8576 303.02L40.4613 281.587H15.6686Z" fill="#F0E09C" stroke="#E7C943" stroke-width="3"/>
<path id="hex_375" d="M15.6686 324.917L3.27222 346.234L15.6686 367.782H40.4613L52.8576 346.349L40.4613 324.917H15.6686Z" fill="#F0E09C" stroke="#E7C943" stroke-width="3"/>
<path id="hex_376" d="M15.6686 368.015L3.27222 389.332L15.6686 410.881H40.4613L52.8576 389.448L40.4613 368.015H15.6686Z" fill="#F0E09C" stroke="#E7C943" stroke-width="3"/>
<path id="hex_377" d="M15.6686 411.112L3.27222 432.429L15.6686 453.978H40.4613L52.8576 432.545L40.4613 411.112H15.6686Z" fill="#F0E09C" stroke="#E7C943" stroke-width="3"/>
<path id="hex_378" d="M15.556 454.554L3.15967 475.872L15.556 497.42H40.3487L52.745 475.987L40.3487 454.554H15.556Z" fill="#F0E09C" stroke="#E7C943" stroke-width="3"/>
<path id="hex_379" d="M15.6686 238.258L3.27222 259.575L15.6686 281.124H40.4613L52.8576 259.691L40.4613 238.258H15.6686Z" fill="#F0E09C" stroke="#E7C943" stroke-width="3"/>
<path id="hex_380" d="M14.4435 109.286L2.04712 130.603L14.4435 152.152H39.2362L51.6325 130.719L39.2362 109.286L14.4435 109.286Z" fill="#F0E09C" stroke="#E7C943" stroke-width="3"/>
<path id="hex_381" d="M14.3963 65.866L2 87.183L14.3963 108.732H39.189L51.5854 87.2989L39.189 65.866L14.3963 65.866Z" fill="#F0E09C" stroke="#E7C943" stroke-width="3"/>
<path id="hex_382" d="M14.3963 23L2 44.3171L14.3963 65.8659H39.189L51.5854 44.4329L39.189 23L14.3963 23Z" fill="#F0E09C" stroke="#E7C943" stroke-width="3"/>
</g>
</svg>
