<svg width="997" height="754" viewBox="0 0 997 754" fill="none" xmlns="http://www.w3.org/2000/svg">
<g id="hex">
<path id="hex_2" d="M250.909 18.2555L226.413 4.0105L201.65 18.2555V46.7457L226.279 60.9907L250.909 46.7457V18.2555Z" fill="#F0E09C" stroke="#E7C943" stroke-width="3"/>
<path id="hex_3" d="M176.355 61.3901L151.859 47.145L127.096 61.3901V89.8802L151.726 104.125L176.355 89.8802V61.3901Z" fill="#F0E09C" stroke="#E7C943" stroke-width="3"/>
<path id="hex_4" d="M102.087 18.2451L77.5912 4L52.8288 18.2451L52.8288 46.7352L77.4581 60.9802L102.087 46.7352L102.087 18.2451Z" fill="#F0E09C" stroke="#E7C943" stroke-width="3"/>
<path id="hex_5" d="M300.434 18.2555L275.937 4.0105L251.175 18.2555V46.7457L275.804 60.9907L300.434 46.7457V18.2555Z" fill="#F0E09C" stroke="#E7C943" stroke-width="3"/>
<path id="hex_6" d="M275.405 61.3901L250.909 47.145L226.146 61.3901V89.8802L250.775 104.125L275.405 89.8802V61.3901Z" fill="#F0E09C" stroke="#E7C943" stroke-width="3"/>
<path id="hex_7" d="M300.167 104.525L275.671 90.2797L250.909 104.525V133.015L275.538 147.26L300.167 133.015V104.525Z" fill="#F0E09C" stroke="#E7C943" stroke-width="3"/>
<path id="hex_8" d="M299.901 190.794L275.405 176.549L250.643 190.794V219.284L275.272 233.529L299.901 219.284V190.794Z" fill="#F0E09C" stroke="#E7C943" stroke-width="3"/>
<path id="hex_9" d="M250.376 104.525L225.88 90.2797L201.118 104.525V133.015L225.747 147.26L250.376 133.015V104.525Z" fill="#F0E09C" stroke="#E7C943" stroke-width="3"/>
<path id="hex_10" d="M225.88 61.3901L201.384 47.145L176.621 61.3901V89.8802L201.251 104.125L225.88 89.8802V61.3901Z" fill="#F0E09C" stroke="#E7C943" stroke-width="3"/>
<path id="hex_11" d="M250.11 190.794L225.614 176.549L200.851 190.794V219.284L225.481 233.529L250.11 219.284V190.794Z" fill="#F0E09C" stroke="#E7C943" stroke-width="3"/>
<path id="hex_12" d="M225.347 147.659L200.851 133.414L176.089 147.659V176.149L200.718 190.394L225.347 176.149V147.659Z" fill="#F0E09C" stroke="#E7C943" stroke-width="3"/>
<path id="hex_13" d="M200.851 104.525L176.355 90.2797L151.592 104.525V133.015L176.222 147.26L200.851 133.015V104.525Z" fill="#F0E09C" stroke="#E7C943" stroke-width="3"/>
<path id="hex_14" d="M175.823 147.659L151.326 133.414L126.564 147.659V176.149L151.193 190.394L175.823 176.149V147.659Z" fill="#F0E09C" stroke="#E7C943" stroke-width="3"/>
<path id="hex_15" d="M151.326 104.525L126.83 90.2797L102.068 104.525V133.015L126.697 147.26L151.326 133.015V104.525Z" fill="#F0E09C" stroke="#E7C943" stroke-width="3"/>
<path id="hex_16" d="M101.405 104.395L76.9091 90.1503L52.1467 104.395L52.1467 132.885L76.776 147.13L101.405 132.885L101.405 104.395Z" fill="#F0E09C" stroke="#E7C943" stroke-width="3"/>
<path id="hex_17" d="M126.83 61.3901L102.334 47.145L77.5715 61.3901V89.8802L102.201 104.125L126.83 89.8802L126.83 61.3901Z" fill="#F0E09C" stroke="#E7C943" stroke-width="3"/>
<path id="hex_18" d="M200.585 190.794L176.089 176.549L151.326 190.794V219.284L175.956 233.529L200.585 219.284V190.794Z" fill="#F0E09C" stroke="#E7C943" stroke-width="3"/>
<path id="hex_19" d="M151.06 190.794L126.564 176.549L101.801 190.794V219.284L126.431 233.529L151.06 219.284V190.794Z" fill="#F0E09C" stroke="#E7C943" stroke-width="3"/>
<path id="hex_20" d="M126.298 147.659L101.802 133.414L77.0393 147.659V176.149L101.669 190.394L126.298 176.149L126.298 147.659Z" fill="#F0E09C" stroke="#E7C943" stroke-width="3"/>
<path id="hex_21" d="M101.165 190.848L76.6689 176.603L51.9064 190.848L51.9064 219.338L76.5357 233.583L101.165 219.338L101.165 190.848Z" fill="#F0E09C" stroke="#E7C943" stroke-width="3"/>
<path id="hex_22" d="M349.692 190.794L325.196 176.549L300.434 190.794V219.284L325.063 233.529L349.692 219.284V190.794Z" fill="#F0E09C" stroke="#E7C943" stroke-width="3"/>
<path id="hex_23" d="M324.93 147.659L300.434 133.414L275.671 147.659V176.149L300.3 190.394L324.93 176.149V147.659Z" fill="#F0E09C" stroke="#E7C943" stroke-width="3"/>
<path id="hex_24" d="M325.196 61.3901L300.7 47.145L275.937 61.3901V89.8802L300.567 104.125L325.196 89.8802V61.3901Z" fill="#F0E09C" stroke="#E7C943" stroke-width="3"/>
<path id="hex_25" d="M350.225 18.2555L325.728 4.0105L300.966 18.2555V46.7457L325.595 60.9907L350.225 46.7457V18.2555Z" fill="#F0E09C" stroke="#E7C943" stroke-width="3"/>
<path id="hex_26" d="M101.165 277.117L76.6689 262.872L51.9064 277.117L51.9064 305.607L76.5357 319.852L101.165 305.607L101.165 277.117Z" fill="#F0E09C" stroke="#E7C943" stroke-width="3"/>
<path id="hex_27" d="M175.823 233.928L151.326 219.683L126.564 233.928V262.418L151.193 276.663L175.823 262.418V233.928Z" fill="#F0E09C" stroke="#E7C943" stroke-width="3"/>
<path id="hex_28" d="M126.298 233.928L101.802 219.683L77.0393 233.928V262.418L101.669 276.663L126.298 262.418L126.298 233.928Z" fill="#F0E09C" stroke="#E7C943" stroke-width="3"/>
<path id="hex_29" d="M151.06 277.063L126.564 262.818L101.801 277.063V305.553L126.431 319.798L151.06 305.553V277.063Z" fill="#F0E09C" stroke="#E7C943" stroke-width="3"/>
<path id="hex_30" d="M225.081 233.928L200.585 219.683L175.822 233.928V262.418L200.452 276.663L225.081 262.418V233.928Z" fill="#F0E09C" stroke="#E7C943" stroke-width="3"/>
<path id="hex_31" d="M200.319 277.063L175.823 262.818L151.06 277.063V305.553L175.69 319.798L200.319 305.553V277.063Z" fill="#F0E09C" stroke="#E7C943" stroke-width="3"/>
<path id="hex_32" d="M249.844 277.063L225.347 262.818L200.585 277.063V305.553L225.214 319.798L249.844 305.553V277.063Z" fill="#F0E09C" stroke="#E7C943" stroke-width="3"/>
<path id="hex_33" d="M274.872 233.928L250.376 219.683L225.614 233.928V262.418L250.243 276.663L274.872 262.418V233.928Z" fill="#F0E09C" stroke="#E7C943" stroke-width="3"/>
<path id="hex_34" d="M250.167 363.55L225.671 349.305L200.908 363.55V392.04L225.538 406.285L250.167 392.04V363.55Z" fill="#F0E09C" stroke="#E7C943" stroke-width="3"/>
<path id="hex_35" d="M51.7407 190.794L27.2446 176.549L2.48213 190.794L2.48213 219.284L27.1114 233.529L51.7407 219.284L51.7407 190.794Z" fill="#F0E09C" stroke="#E7C943" stroke-width="3"/>
<path id="hex_36" d="M52.2734 18.2555L27.7773 4.0105L3.01485 18.2555L3.01485 46.7457L27.6441 60.9907L52.2734 46.7457L52.2734 18.2555Z" fill="#F0E09C" stroke="#E7C943" stroke-width="3"/>
<path id="hex_37" d="M324.663 233.928L300.167 219.683L275.405 233.928V262.418L300.034 276.663L324.663 262.418V233.928Z" fill="#F0E09C" stroke="#E7C943" stroke-width="3"/>
<path id="hex_38" d="M349.426 277.063L324.93 262.818L300.167 277.063V305.553L324.796 319.798L349.426 305.553V277.063Z" fill="#F0E09C" stroke="#E7C943" stroke-width="3"/>
<path id="hex_39" d="M299.635 277.063L275.139 262.818L250.376 277.063V305.553L275.005 319.798L299.635 305.553V277.063Z" fill="#F0E09C" stroke="#E7C943" stroke-width="3"/>
<path id="hex_40" d="M349.958 104.525L325.462 90.2797L300.7 104.525V133.015L325.329 147.26L349.958 133.015V104.525Z" fill="#F0E09C" stroke="#E7C943" stroke-width="3"/>
<path id="hex_41" d="M150.194 622.119L125.698 607.874L100.936 622.119V650.609L125.565 664.854L150.194 650.609V622.119Z" fill="#F0E09C" stroke="#E7C943" stroke-width="3"/>
<path id="hex_42" d="M125.432 578.984L100.935 564.739L76.173 578.984V607.474L100.802 621.719L125.432 607.474L125.432 578.984Z" fill="#F0E09C" stroke="#E7C943" stroke-width="3"/>
<path id="hex_43" d="M100.814 535.909L76.318 521.664L51.5556 535.909L51.5556 564.399L76.1849 578.644L100.814 564.399L100.814 535.909Z" fill="#F0E09C" stroke="#E7C943" stroke-width="3"/>
<path id="hex_44" d="M100.299 622.173L75.8027 607.928L51.0402 622.173L51.0402 650.663L75.6695 664.908L100.299 650.663L100.299 622.173Z" fill="#F0E09C" stroke="#E7C943" stroke-width="3"/>
<path id="hex_45" d="M348.826 622.119L324.33 607.874L299.567 622.119V650.609L324.197 664.854L348.826 650.609V622.119Z" fill="#F0E09C" stroke="#E7C943" stroke-width="3"/>
<path id="hex_46" d="M324.063 578.984L299.567 564.739L274.805 578.984V607.474L299.434 621.719L324.063 607.474V578.984Z" fill="#F0E09C" stroke="#E7C943" stroke-width="3"/>
<path id="hex_47" d="M324.33 492.715L299.834 478.47L275.071 492.715V521.205L299.701 535.45L324.33 521.205V492.715Z" fill="#F0E09C" stroke="#E7C943" stroke-width="3"/>
<path id="hex_48" d="M349.358 449.581L324.862 435.336L300.1 449.581V478.071L324.729 492.316L349.358 478.071V449.581Z" fill="#F0E09C" stroke="#E7C943" stroke-width="3"/>
<path id="hex_49" d="M126.497 320.177L102 305.932L77.238 320.177V348.667L101.867 362.912L126.497 348.667L126.497 320.177Z" fill="#F0E09C" stroke="#E7C943" stroke-width="3"/>
<path id="hex_50" d="M176.021 320.177L151.525 305.932L126.763 320.177V348.667L151.392 362.912L176.021 348.667V320.177Z" fill="#F0E09C" stroke="#E7C943" stroke-width="3"/>
<path id="hex_51" d="M225.546 320.177L201.05 305.932L176.288 320.177V348.667L200.917 362.912L225.546 348.667V320.177Z" fill="#F0E09C" stroke="#E7C943" stroke-width="3"/>
<path id="hex_52" d="M275.071 320.177L250.575 305.932L225.812 320.177V348.667L250.442 362.912L275.071 348.667V320.177Z" fill="#F0E09C" stroke="#E7C943" stroke-width="3"/>
<path id="hex_53" d="M324.596 406.446L300.1 392.201L275.337 406.446V434.936L299.967 449.181L324.596 434.936V406.446Z" fill="#F0E09C" stroke="#E7C943" stroke-width="3"/>
<path id="hex_54" d="M349.358 363.312L324.862 349.067L300.1 363.312V391.802L324.729 406.047L349.358 391.802V363.312Z" fill="#F0E09C" stroke="#E7C943" stroke-width="3"/>
<path id="hex_55" d="M324.596 320.177L300.1 305.932L275.337 320.177V348.667L299.967 362.912L324.596 348.667V320.177Z" fill="#F0E09C" stroke="#E7C943" stroke-width="3"/>
<path id="hex_56" d="M100.299 708.443L75.8027 694.197L51.0402 708.443L51.0402 736.933L75.6695 751.178L100.299 736.933L100.299 708.443Z" fill="#F0E09C" stroke="#E7C943" stroke-width="3"/>
<path id="hex_57" d="M299.951 535.909L275.455 521.664L250.693 535.909V564.399L275.322 578.644L299.951 564.399V535.909Z" fill="#F0E09C" stroke="#E7C943" stroke-width="3"/>
<path id="hex_58" d="M274.682 578.905L250.186 564.66L225.424 578.905V607.395L250.053 621.64L274.682 607.395V578.905Z" fill="#F0E09C" stroke="#E7C943" stroke-width="3"/>
<path id="hex_59" d="M125.432 665.254L100.935 651.009L76.173 665.254V693.744L100.802 707.989L125.432 693.744L125.432 665.254Z" fill="#F0E09C" stroke="#E7C943" stroke-width="3"/>
<path id="hex_60" d="M150.194 708.388L125.698 694.143L100.936 708.388V736.878L125.565 751.123L150.194 736.878V708.388Z" fill="#F0E09C" stroke="#E7C943" stroke-width="3"/>
<path id="hex_61" d="M224.215 665.254L199.719 651.009L174.956 665.254V693.744L199.586 707.989L224.215 693.744V665.254Z" fill="#F0E09C" stroke="#E7C943" stroke-width="3"/>
<path id="hex_62" d="M199.453 708.388L174.956 694.143L150.194 708.388V736.878L174.823 751.123L199.453 736.878V708.388Z" fill="#F0E09C" stroke="#E7C943" stroke-width="3"/>
<path id="hex_63" d="M225.423 406.685L200.927 392.439L176.165 406.685V435.175L200.794 449.42L225.423 435.175V406.685Z" fill="#F0E09C" stroke="#E7C943" stroke-width="3"/>
<path id="hex_64" d="M175.899 406.685L151.403 392.439L126.64 406.685V435.175L151.269 449.42L175.899 435.175V406.685Z" fill="#F0E09C" stroke="#E7C943" stroke-width="3"/>
<path id="hex_65" d="M151.136 363.55L126.64 349.305L101.878 363.55V392.04L126.507 406.285L151.136 392.04V363.55Z" fill="#F0E09C" stroke="#E7C943" stroke-width="3"/>
<path id="hex_66" d="M126.004 406.739L101.507 392.494L76.7451 406.739V435.229L101.374 449.474L126.004 435.229L126.004 406.739Z" fill="#F0E09C" stroke="#E7C943" stroke-width="3"/>
<path id="hex_67" d="M126.004 493.008L101.507 478.763L76.7451 493.008V521.498L101.374 535.743L126.004 521.498L126.004 493.008Z" fill="#F0E09C" stroke="#E7C943" stroke-width="3"/>
<path id="hex_68" d="M100.997 449.526L76.5004 435.281L51.738 449.526L51.738 478.017L76.3673 492.262L100.997 478.017L100.997 449.526Z" fill="#F0E09C" stroke="#E7C943" stroke-width="3"/>
<path id="hex_69" d="M101.569 363.55L77.0724 349.305L52.31 363.55L52.31 392.04L76.9393 406.285L101.569 392.04L101.569 363.55Z" fill="#F0E09C" stroke="#E7C943" stroke-width="3"/>
<path id="hex_70" d="M225.275 578.905L200.779 564.66L176.016 578.905V607.395L200.646 621.64L225.275 607.395V578.905Z" fill="#F0E09C" stroke="#E7C943" stroke-width="3"/>
<path id="hex_71" d="M200.76 535.909L176.264 521.664L151.501 535.909V564.399L176.131 578.644L200.76 564.399V535.909Z" fill="#F0E09C" stroke="#E7C943" stroke-width="3"/>
<path id="hex_72" d="M299.951 363.173L275.455 348.928L250.693 363.173V391.663L275.322 405.908L299.951 391.663V363.173Z" fill="#F0E09C" stroke="#E7C943" stroke-width="3"/>
<path id="hex_73" d="M76.6765 580.028L51.9189 565.791L26.8922 580.028L26.8922 608.504L51.7844 622.741L76.6765 608.504L76.6765 580.028Z" fill="#F0E09C" stroke="#E7C943" stroke-width="3"/>
<path id="hex_74" d="M51.7842 537.033L27.0266 522.795L1.9999 537.033L1.9999 565.508L26.892 579.746L51.7842 565.508L51.7842 537.033Z" fill="#F0E09C" stroke="#E7C943" stroke-width="3"/>
<path id="hex_75" d="M51.7842 450.665L27.2142 436.427L2.37706 450.665L2.37706 479.14L27.0806 493.377L51.7842 479.14L51.7842 450.665Z" fill="#F0E09C" stroke="#E7C943" stroke-width="3"/>
<path id="hex_76" d="M77.0537 407.669L52.4837 393.432L27.6466 407.669L27.6466 436.144L52.3501 450.382L77.0537 436.144L77.0537 407.669Z" fill="#F0E09C" stroke="#E7C943" stroke-width="3"/>
<path id="hex_77" d="M52.1614 364.297L27.5913 350.059L2.75425 364.297L2.75425 392.772L27.4578 407.009L52.1614 392.772L52.1614 364.297Z" fill="#F0E09C" stroke="#E7C943" stroke-width="3"/>
<path id="hex_78" d="M77.0537 321.301L52.4837 307.064L27.6466 321.301L27.6466 349.776L52.3501 364.014L77.0537 349.776L77.0537 321.301Z" fill="#F0E09C" stroke="#E7C943" stroke-width="3"/>
<path id="hex_79" d="M51.4072 623.401L26.8372 609.164L2.0001 623.401L2.0001 651.876L26.7037 666.114L51.4072 651.876L51.4072 623.401Z" fill="#F0E09C" stroke="#E7C943" stroke-width="3"/>
<path id="hex_80" d="M76.2993 666.397L51.7293 652.159L26.8922 666.397L26.8922 694.872L51.5958 709.109L76.2993 694.872L76.2993 666.397Z" fill="#F0E09C" stroke="#E7C943" stroke-width="3"/>
<path id="hex_81" d="M76.6765 494.038L52.1065 479.8L27.2694 494.038L27.2694 522.513L51.973 536.75L76.6765 522.513L76.6765 494.038Z" fill="#F0E09C" stroke="#E7C943" stroke-width="3"/>
<path id="hex_82" d="M51.4072 709.392L26.8372 695.155L2.0001 709.392L2.0001 737.867L26.7037 752.105L51.4072 737.867L51.4072 709.392Z" fill="#F0E09C" stroke="#E7C943" stroke-width="3"/>
<path id="hex_83" d="M151.136 449.819L126.64 435.574L101.878 449.819V478.309L126.507 492.554L151.136 478.309V449.819Z" fill="#F0E09C" stroke="#E7C943" stroke-width="3"/>
<path id="hex_84" d="M175.899 492.954L151.403 478.709L126.64 492.954V521.444L151.269 535.689L175.899 521.444V492.954Z" fill="#F0E09C" stroke="#E7C943" stroke-width="3"/>
<path id="hex_85" d="M249.92 449.819L225.424 435.574L200.661 449.819V478.309L225.29 492.554L249.92 478.309V449.819Z" fill="#F0E09C" stroke="#E7C943" stroke-width="3"/>
<path id="hex_86" d="M225.157 492.954L200.661 478.709L175.899 492.954V521.444L200.528 535.689L225.157 521.444V492.954Z" fill="#F0E09C" stroke="#E7C943" stroke-width="3"/>
<path id="hex_87" d="M200.383 449.541L175.887 435.296L151.124 449.541V478.031L175.754 492.276L200.383 478.031V449.541Z" fill="#F0E09C" stroke="#E7C943" stroke-width="3"/>
<path id="hex_88" d="M274.682 492.954L250.186 478.709L225.424 492.954V521.444L250.053 535.689L274.682 521.444V492.954Z" fill="#F0E09C" stroke="#E7C943" stroke-width="3"/>
<path id="hex_89" d="M274.006 665.254L249.51 651.009L224.748 665.254V693.744L249.377 707.989L274.006 693.744V665.254Z" fill="#F0E09C" stroke="#E7C943" stroke-width="3"/>
<path id="hex_90" d="M323.797 665.254L299.301 651.009L274.539 665.254V693.744L299.168 707.989L323.797 693.744V665.254Z" fill="#F0E09C" stroke="#E7C943" stroke-width="3"/>
<path id="hex_91" d="M348.56 708.388L324.063 694.143L299.301 708.388V736.878L323.93 751.123L348.56 736.878V708.388Z" fill="#F0E09C" stroke="#E7C943" stroke-width="3"/>
<path id="hex_92" d="M298.769 708.388L274.272 694.143L249.51 708.388V736.878L274.139 751.123L298.769 736.878V708.388Z" fill="#F0E09C" stroke="#E7C943" stroke-width="3"/>
<path id="hex_93" d="M349.092 535.85L324.596 521.605L299.833 535.85V564.34L324.463 578.585L349.092 564.34V535.85Z" fill="#F0E09C" stroke="#E7C943" stroke-width="3"/>
<path id="hex_94" d="M499.984 17.9111L475.488 3.66602L450.725 17.9111V46.4012L475.355 60.6462L499.984 46.4012V17.9111Z" fill="#F0E09C" stroke="#E7C943" stroke-width="3"/>
<path id="hex_95" d="M549.879 17.8569L525.383 3.61182L500.62 17.8569V46.347L525.25 60.592L549.879 46.347V17.8569Z" fill="#F0E09C" stroke="#E7C943" stroke-width="3"/>
<path id="hex_96" d="M599.137 17.8569L574.641 3.61182L549.879 17.8569V46.347L574.508 60.592L599.137 46.347V17.8569Z" fill="#F0E09C" stroke="#E7C943" stroke-width="3"/>
<path id="hex_97" d="M648.662 17.8569L624.166 3.61182L599.404 17.8569V46.347L624.033 60.592L648.662 46.347V17.8569Z" fill="#F0E09C" stroke="#E7C943" stroke-width="3"/>
<path id="hex_98" d="M748.244 17.8569L723.748 3.61182L698.986 17.8569V46.347L723.615 60.592L748.244 46.347V17.8569Z" fill="#F0E09C" stroke="#E7C943" stroke-width="3"/>
<path id="hex_99" d="M648.175 103.986L623.679 89.7413L598.916 103.986V132.476L623.546 146.722L648.175 132.476V103.986Z" fill="#F0E09C" stroke="#E7C943" stroke-width="3"/>
<path id="hex_100" d="M697.7 103.986L673.204 89.7413L648.441 103.986V132.476L673.07 146.722L697.7 132.476V103.986Z" fill="#F0E09C" stroke="#E7C943" stroke-width="3"/>
<path id="hex_101" d="M672.671 147.121L648.175 132.876L623.412 147.121V175.611L648.042 189.856L672.671 175.611V147.121Z" fill="#F0E09C" stroke="#E7C943" stroke-width="3"/>
<path id="hex_102" d="M647.909 190.256L623.413 176.01L598.65 190.256V218.746L623.279 232.991L647.909 218.746V190.256Z" fill="#F0E09C" stroke="#E7C943" stroke-width="3"/>
<path id="hex_103" d="M549.125 103.986L524.629 89.7413L499.867 103.986V132.476L524.496 146.722L549.125 132.476V103.986Z" fill="#F0E09C" stroke="#E7C943" stroke-width="3"/>
<path id="hex_104" d="M573.622 147.121L549.125 132.876L524.363 147.121V175.611L548.992 189.856L573.622 175.611V147.121Z" fill="#F0E09C" stroke="#E7C943" stroke-width="3"/>
<path id="hex_105" d="M573.355 233.39L548.859 219.145L524.096 233.39V261.88L548.726 276.125L573.355 261.88V233.39Z" fill="#F0E09C" stroke="#E7C943" stroke-width="3"/>
<path id="hex_106" d="M524.097 147.121L499.601 132.876L474.838 147.121V175.611L499.467 189.856L524.097 175.611V147.121Z" fill="#F0E09C" stroke="#E7C943" stroke-width="3"/>
<path id="hex_107" d="M499.23 104.041L474.734 89.7955L449.972 104.041V132.531L474.601 146.776L499.23 132.531V104.041Z" fill="#F0E09C" stroke="#E7C943" stroke-width="3"/>
<path id="hex_108" d="M499.087 190.245L474.591 176L449.829 190.245V218.735L474.458 232.98L499.087 218.735V190.245Z" fill="#F0E09C" stroke="#E7C943" stroke-width="3"/>
<path id="hex_109" d="M697.434 190.256L672.937 176.01L648.175 190.256V218.746L672.804 232.991L697.434 218.746V190.256Z" fill="#F0E09C" stroke="#E7C943" stroke-width="3"/>
<path id="hex_110" d="M672.405 233.39L647.909 219.145L623.146 233.39V261.88L647.775 276.125L672.405 261.88V233.39Z" fill="#F0E09C" stroke="#E7C943" stroke-width="3"/>
<path id="hex_111" d="M697.167 276.525L672.671 262.28L647.909 276.525V305.015L672.538 319.26L697.167 305.015V276.525Z" fill="#F0E09C" stroke="#E7C943" stroke-width="3"/>
<path id="hex_112" d="M696.901 362.794L672.405 348.549L647.643 362.794V391.284L672.272 405.529L696.901 391.284V362.794Z" fill="#F0E09C" stroke="#E7C943" stroke-width="3"/>
<path id="hex_113" d="M647.376 276.525L622.88 262.28L598.118 276.525V305.015L622.747 319.26L647.376 305.015V276.525Z" fill="#F0E09C" stroke="#E7C943" stroke-width="3"/>
<path id="hex_114" d="M622.88 233.39L598.384 219.145L573.621 233.39V261.88L598.251 276.125L622.88 261.88V233.39Z" fill="#F0E09C" stroke="#E7C943" stroke-width="3"/>
<path id="hex_115" d="M647.11 362.794L622.614 348.549L597.851 362.794V391.284L622.481 405.529L647.11 391.284V362.794Z" fill="#F0E09C" stroke="#E7C943" stroke-width="3"/>
<path id="hex_116" d="M622.348 319.659L597.851 305.414L573.089 319.659V348.149L597.718 362.394L622.348 348.149V319.659Z" fill="#F0E09C" stroke="#E7C943" stroke-width="3"/>
<path id="hex_117" d="M597.851 276.525L573.355 262.28L548.592 276.525V305.015L573.222 319.26L597.851 305.015V276.525Z" fill="#F0E09C" stroke="#E7C943" stroke-width="3"/>
<path id="hex_118" d="M572.823 319.659L548.327 305.414L523.564 319.659V348.149L548.193 362.394L572.823 348.149V319.659Z" fill="#F0E09C" stroke="#E7C943" stroke-width="3"/>
<path id="hex_119" d="M548.327 276.525L523.83 262.28L499.068 276.525V305.015L523.697 319.26L548.327 305.015V276.525Z" fill="#F0E09C" stroke="#E7C943" stroke-width="3"/>
<path id="hex_120" d="M498.405 276.395L473.909 262.15L449.147 276.395V304.885L473.776 319.13L498.405 304.885V276.395Z" fill="#F0E09C" stroke="#E7C943" stroke-width="3"/>
<path id="hex_121" d="M523.83 233.39L499.334 219.145L474.571 233.39V261.88L499.201 276.125L523.83 261.88V233.39Z" fill="#F0E09C" stroke="#E7C943" stroke-width="3"/>
<path id="hex_122" d="M597.585 362.794L573.089 348.549L548.326 362.794V391.284L572.956 405.529L597.585 391.284V362.794Z" fill="#F0E09C" stroke="#E7C943" stroke-width="3"/>
<path id="hex_123" d="M548.06 362.794L523.564 348.549L498.801 362.794V391.284L523.431 405.529L548.06 391.284V362.794Z" fill="#F0E09C" stroke="#E7C943" stroke-width="3"/>
<path id="hex_124" d="M523.298 319.659L498.802 305.414L474.039 319.659V348.149L498.669 362.394L523.298 348.149V319.659Z" fill="#F0E09C" stroke="#E7C943" stroke-width="3"/>
<path id="hex_125" d="M498.165 362.848L473.669 348.603L448.906 362.848V391.338L473.536 405.583L498.165 391.338V362.848Z" fill="#F0E09C" stroke="#E7C943" stroke-width="3"/>
<path id="hex_126" d="M746.692 362.794L722.196 348.549L697.434 362.794V391.284L722.063 405.529L746.692 391.284V362.794Z" fill="#F0E09C" stroke="#E7C943" stroke-width="3"/>
<path id="hex_127" d="M721.93 319.659L697.434 305.414L672.671 319.659V348.149L697.3 362.394L721.93 348.149V319.659Z" fill="#F0E09C" stroke="#E7C943" stroke-width="3"/>
<path id="hex_128" d="M722.196 233.39L697.7 219.145L672.937 233.39V261.88L697.567 276.125L722.196 261.88V233.39Z" fill="#F0E09C" stroke="#E7C943" stroke-width="3"/>
<path id="hex_129" d="M747.225 190.256L722.728 176.01L697.966 190.256V218.746L722.595 232.991L747.225 218.746V190.256Z" fill="#F0E09C" stroke="#E7C943" stroke-width="3"/>
<path id="hex_130" d="M524.363 60.8519L499.867 46.6068L475.104 60.8519V89.342L499.733 103.587L524.363 89.342V60.8519Z" fill="#F0E09C" stroke="#E7C943" stroke-width="3"/>
<path id="hex_131" d="M573.888 60.8519L549.392 46.6068L524.629 60.8519V89.342L549.258 103.587L573.888 89.342V60.8519Z" fill="#F0E09C" stroke="#E7C943" stroke-width="3"/>
<path id="hex_132" d="M623.413 60.8519L598.916 46.6068L574.154 60.8519V89.342L598.783 103.587L623.413 89.342V60.8519Z" fill="#F0E09C" stroke="#E7C943" stroke-width="3"/>
<path id="hex_133" d="M672.938 60.8519L648.441 46.6068L623.679 60.8519V89.342L648.308 103.587L672.938 89.342V60.8519Z" fill="#F0E09C" stroke="#E7C943" stroke-width="3"/>
<path id="hex_134" d="M722.462 147.121L697.966 132.876L673.204 147.121V175.611L697.833 189.856L722.462 175.611V147.121Z" fill="#F0E09C" stroke="#E7C943" stroke-width="3"/>
<path id="hex_135" d="M747.225 103.986L722.728 89.7413L697.966 103.986V132.476L722.595 146.722L747.225 132.476V103.986Z" fill="#F0E09C" stroke="#E7C943" stroke-width="3"/>
<path id="hex_136" d="M722.462 60.8519L697.966 46.6068L673.204 60.8519V89.342L697.833 103.587L722.462 89.342V60.8519Z" fill="#F0E09C" stroke="#E7C943" stroke-width="3"/>
<path id="hex_137" d="M498.165 449.117L473.669 434.872L448.906 449.117V477.607L473.536 491.852L498.165 477.607V449.117Z" fill="#F0E09C" stroke="#E7C943" stroke-width="3"/>
<path id="hex_138" d="M572.823 405.928L548.327 391.683L523.564 405.928V434.418L548.193 448.663L572.823 434.418V405.928Z" fill="#F0E09C" stroke="#E7C943" stroke-width="3"/>
<path id="hex_139" d="M523.298 405.928L498.802 391.683L474.039 405.928V434.418L498.669 448.663L523.298 434.418V405.928Z" fill="#F0E09C" stroke="#E7C943" stroke-width="3"/>
<path id="hex_140" d="M548.06 449.063L523.564 434.818L498.801 449.063V477.553L523.431 491.798L548.06 477.553V449.063Z" fill="#F0E09C" stroke="#E7C943" stroke-width="3"/>
<path id="hex_141" d="M622.081 405.928L597.585 391.683L572.822 405.928V434.418L597.452 448.663L622.081 434.418V405.928Z" fill="#F0E09C" stroke="#E7C943" stroke-width="3"/>
<path id="hex_142" d="M597.319 449.063L572.823 434.818L548.06 449.063V477.553L572.69 491.798L597.319 477.553V449.063Z" fill="#F0E09C" stroke="#E7C943" stroke-width="3"/>
<path id="hex_143" d="M646.844 449.063L622.348 434.818L597.585 449.063V477.553L622.214 491.798L646.844 477.553V449.063Z" fill="#F0E09C" stroke="#E7C943" stroke-width="3"/>
<path id="hex_144" d="M671.873 405.928L647.376 391.683L622.614 405.928V434.418L647.243 448.663L671.873 434.418V405.928Z" fill="#F0E09C" stroke="#E7C943" stroke-width="3"/>
<path id="hex_145" d="M647.167 535.55L622.671 521.305L597.908 535.55V564.04L622.538 578.285L647.167 564.04V535.55Z" fill="#F0E09C" stroke="#E7C943" stroke-width="3"/>
<path id="hex_146" d="M450.293 17.8569L425.797 3.61182L401.034 17.8569V46.347L425.664 60.592L450.293 46.347V17.8569Z" fill="#F0E09C" stroke="#E7C943" stroke-width="3"/>
<path id="hex_147" d="M399.749 103.986L375.252 89.7413L350.49 103.986V132.476L375.119 146.722L399.749 132.476V103.986Z" fill="#F0E09C" stroke="#E7C943" stroke-width="3"/>
<path id="hex_148" d="M374.72 147.121L350.224 132.876L325.461 147.121V175.611L350.09 189.856L374.72 175.611V147.121Z" fill="#F0E09C" stroke="#E7C943" stroke-width="3"/>
<path id="hex_149" d="M399.482 190.256L374.986 176.01L350.224 190.256V218.746L374.853 232.991L399.482 218.746V190.256Z" fill="#F0E09C" stroke="#E7C943" stroke-width="3"/>
<path id="hex_150" d="M374.454 233.39L349.957 219.145L325.195 233.39V261.88L349.824 276.125L374.454 261.88V233.39Z" fill="#F0E09C" stroke="#E7C943" stroke-width="3"/>
<path id="hex_151" d="M399.216 276.525L374.72 262.28L349.957 276.525V305.015L374.587 319.26L399.216 305.015V276.525Z" fill="#F0E09C" stroke="#E7C943" stroke-width="3"/>
<path id="hex_152" d="M398.95 362.794L374.454 348.549L349.691 362.794V391.284L374.32 405.529L398.95 391.284V362.794Z" fill="#F0E09C" stroke="#E7C943" stroke-width="3"/>
<path id="hex_153" d="M448.741 362.794L424.245 348.549L399.482 362.794V391.284L424.111 405.529L448.741 391.284V362.794Z" fill="#F0E09C" stroke="#E7C943" stroke-width="3"/>
<path id="hex_154" d="M423.979 319.659L399.482 305.414L374.72 319.659V348.149L399.349 362.394L423.979 348.149V319.659Z" fill="#F0E09C" stroke="#E7C943" stroke-width="3"/>
<path id="hex_155" d="M424.245 233.39L399.748 219.145L374.986 233.39V261.88L399.615 276.125L424.245 261.88V233.39Z" fill="#F0E09C" stroke="#E7C943" stroke-width="3"/>
<path id="hex_156" d="M449.273 190.256L424.777 176.01L400.015 190.256V218.746L424.644 232.991L449.273 218.746V190.256Z" fill="#F0E09C" stroke="#E7C943" stroke-width="3"/>
<path id="hex_157" d="M374.986 60.8519L350.49 46.6068L325.727 60.8519V89.342L350.357 103.587L374.986 89.342V60.8519Z" fill="#F0E09C" stroke="#E7C943" stroke-width="3"/>
<path id="hex_158" d="M424.511 147.121L400.015 132.876L375.252 147.121V175.611L399.882 189.856L424.511 175.611V147.121Z" fill="#F0E09C" stroke="#E7C943" stroke-width="3"/>
<path id="hex_159" d="M449.273 103.986L424.777 89.7413L400.015 103.986V132.476L424.644 146.722L449.273 132.476V103.986Z" fill="#F0E09C" stroke="#E7C943" stroke-width="3"/>
<path id="hex_160" d="M424.511 60.8519L400.015 46.6068L375.252 60.8519V89.342L399.882 103.587L424.511 89.342V60.8519Z" fill="#F0E09C" stroke="#E7C943" stroke-width="3"/>
<path id="hex_161" d="M373.921 405.928L349.425 391.683L324.662 405.928V434.418L349.292 448.663L373.921 434.418V405.928Z" fill="#F0E09C" stroke="#E7C943" stroke-width="3"/>
<path id="hex_162" d="M721.664 405.928L697.167 391.683L672.405 405.928V434.418L697.034 448.663L721.664 434.418V405.928Z" fill="#F0E09C" stroke="#E7C943" stroke-width="3"/>
<path id="hex_163" d="M746.426 449.063L721.93 434.818L697.167 449.063V477.553L721.796 491.798L746.426 477.553V449.063Z" fill="#F0E09C" stroke="#E7C943" stroke-width="3"/>
<path id="hex_164" d="M696.635 449.063L672.139 434.818L647.376 449.063V477.553L672.005 491.798L696.635 477.553V449.063Z" fill="#F0E09C" stroke="#E7C943" stroke-width="3"/>
<path id="hex_165" d="M746.958 276.525L722.462 262.28L697.7 276.525V305.015L722.329 319.26L746.958 305.015V276.525Z" fill="#F0E09C" stroke="#E7C943" stroke-width="3"/>
<path id="hex_166" d="M497.814 707.909L473.318 693.664L448.556 707.909V736.399L473.185 750.644L497.814 736.399V707.909Z" fill="#F0E09C" stroke="#E7C943" stroke-width="3"/>
<path id="hex_167" d="M721.33 664.715L696.834 650.47L672.071 664.715V693.205L696.701 707.45L721.33 693.205V664.715Z" fill="#F0E09C" stroke="#E7C943" stroke-width="3"/>
<path id="hex_168" d="M746.358 621.581L721.862 607.336L697.1 621.581V650.071L721.729 664.316L746.358 650.071V621.581Z" fill="#F0E09C" stroke="#E7C943" stroke-width="3"/>
<path id="hex_169" d="M523.497 492.177L499 477.932L474.238 492.177V520.667L498.867 534.912L523.497 520.667V492.177Z" fill="#F0E09C" stroke="#E7C943" stroke-width="3"/>
<path id="hex_170" d="M573.021 492.177L548.525 477.932L523.763 492.177V520.667L548.392 534.912L573.021 520.667V492.177Z" fill="#F0E09C" stroke="#E7C943" stroke-width="3"/>
<path id="hex_171" d="M622.546 492.177L598.05 477.932L573.288 492.177V520.667L597.917 534.912L622.546 520.667V492.177Z" fill="#F0E09C" stroke="#E7C943" stroke-width="3"/>
<path id="hex_172" d="M672.071 492.177L647.575 477.932L622.813 492.177V520.667L647.442 534.912L672.071 520.667V492.177Z" fill="#F0E09C" stroke="#E7C943" stroke-width="3"/>
<path id="hex_173" d="M721.596 578.446L697.1 564.201L672.338 578.446V606.936L696.967 621.181L721.596 606.936V578.446Z" fill="#F0E09C" stroke="#E7C943" stroke-width="3"/>
<path id="hex_174" d="M746.358 535.312L721.862 521.067L697.1 535.312V563.802L721.729 578.047L746.358 563.802V535.312Z" fill="#F0E09C" stroke="#E7C943" stroke-width="3"/>
<path id="hex_175" d="M721.596 492.177L697.1 477.932L672.338 492.177V520.667L696.967 534.912L721.596 520.667V492.177Z" fill="#F0E09C" stroke="#E7C943" stroke-width="3"/>
<path id="hex_176" d="M696.951 707.909L672.455 693.664L647.693 707.909V736.399L672.322 750.644L696.951 736.399V707.909Z" fill="#F0E09C" stroke="#E7C943" stroke-width="3"/>
<path id="hex_177" d="M622.423 578.684L597.927 564.439L573.165 578.684V607.175L597.794 621.42L622.423 607.175V578.684Z" fill="#F0E09C" stroke="#E7C943" stroke-width="3"/>
<path id="hex_178" d="M572.899 578.684L548.403 564.439L523.64 578.684V607.175L548.27 621.42L572.899 607.175V578.684Z" fill="#F0E09C" stroke="#E7C943" stroke-width="3"/>
<path id="hex_179" d="M548.136 535.55L523.64 521.305L498.878 535.55V564.04L523.507 578.285L548.136 564.04V535.55Z" fill="#F0E09C" stroke="#E7C943" stroke-width="3"/>
<path id="hex_180" d="M523.004 578.739L498.508 564.494L473.745 578.739V607.229L498.375 621.474L523.004 607.229V578.739Z" fill="#F0E09C" stroke="#E7C943" stroke-width="3"/>
<path id="hex_181" d="M523.004 665.008L498.508 650.763L473.745 665.008V693.498L498.375 707.743L523.004 693.498V665.008Z" fill="#F0E09C" stroke="#E7C943" stroke-width="3"/>
<path id="hex_182" d="M497.997 621.526L473.5 607.281L448.738 621.526V650.017L473.367 664.262L497.997 650.017V621.526Z" fill="#F0E09C" stroke="#E7C943" stroke-width="3"/>
<path id="hex_183" d="M498.569 535.55L474.073 521.305L449.31 535.55V564.04L473.94 578.285L498.569 564.04V535.55Z" fill="#F0E09C" stroke="#E7C943" stroke-width="3"/>
<path id="hex_184" d="M597.76 707.909L573.264 693.664L548.502 707.909V736.399L573.131 750.644L597.76 736.399V707.909Z" fill="#F0E09C" stroke="#E7C943" stroke-width="3"/>
<path id="hex_185" d="M696.951 535.173L672.455 520.928L647.693 535.173V563.663L672.322 577.908L696.951 563.663V535.173Z" fill="#F0E09C" stroke="#E7C943" stroke-width="3"/>
<path id="hex_186" d="M374.485 493.301L349.915 479.064L325.078 493.301V521.776L349.781 536.014L374.485 521.776V493.301Z" fill="#F0E09C" stroke="#E7C943" stroke-width="3"/>
<path id="hex_187" d="M424.269 493.301L399.699 479.064L374.862 493.301V521.776L399.566 536.014L424.269 521.776V493.301Z" fill="#F0E09C" stroke="#E7C943" stroke-width="3"/>
<path id="hex_188" d="M399 536.297L374.43 522.059L349.593 536.297V564.772L374.296 579.009L399 564.772V536.297Z" fill="#F0E09C" stroke="#E7C943" stroke-width="3"/>
<path id="hex_189" d="M374.108 579.669L349.538 565.432L324.701 579.669V608.144L349.404 622.382L374.108 608.144V579.669Z" fill="#F0E09C" stroke="#E7C943" stroke-width="3"/>
<path id="hex_190" d="M423.892 579.669L399.322 565.432L374.485 579.669V608.144L399.189 622.382L423.892 608.144V579.669Z" fill="#F0E09C" stroke="#E7C943" stroke-width="3"/>
<path id="hex_191" d="M399 622.665L374.242 608.427L349.216 622.665V651.14L374.108 665.377L399 651.14V622.665Z" fill="#F0E09C" stroke="#E7C943" stroke-width="3"/>
<path id="hex_192" d="M423.892 666.038L399.135 651.8L374.108 666.038V694.513L399 708.75L423.892 694.513V666.038Z" fill="#F0E09C" stroke="#E7C943" stroke-width="3"/>
<path id="hex_193" d="M373.731 666.038L349.161 651.8L324.324 666.038V694.513L349.027 708.75L373.731 694.513V666.038Z" fill="#F0E09C" stroke="#E7C943" stroke-width="3"/>
<path id="hex_194" d="M448.784 709.033L424.027 694.795L399 709.033V737.508L423.892 751.746L448.784 737.508V709.033Z" fill="#F0E09C" stroke="#E7C943" stroke-width="3"/>
<path id="hex_195" d="M448.784 622.665L424.214 608.427L399.377 622.665V651.14L424.081 665.377L448.784 651.14V622.665Z" fill="#F0E09C" stroke="#E7C943" stroke-width="3"/>
<path id="hex_196" d="M474.054 579.669L449.484 565.432L424.647 579.669V608.144L449.35 622.382L474.054 608.144V579.669Z" fill="#F0E09C" stroke="#E7C943" stroke-width="3"/>
<path id="hex_197" d="M449.161 536.297L424.591 522.059L399.754 536.297V564.772L424.458 579.009L449.161 564.772V536.297Z" fill="#F0E09C" stroke="#E7C943" stroke-width="3"/>
<path id="hex_198" d="M474.054 493.301L449.484 479.064L424.647 493.301V521.776L449.35 536.014L474.054 521.776V493.301Z" fill="#F0E09C" stroke="#E7C943" stroke-width="3"/>
<path id="hex_199" d="M473.677 666.038L449.106 651.8L424.269 666.038V694.513L448.973 708.75L473.677 694.513V666.038Z" fill="#F0E09C" stroke="#E7C943" stroke-width="3"/>
<path id="hex_200" d="M548.136 621.819L523.64 607.574L498.878 621.819V650.309L523.507 664.554L548.136 650.309V621.819Z" fill="#F0E09C" stroke="#E7C943" stroke-width="3"/>
<path id="hex_201" d="M572.899 664.954L548.403 650.709L523.64 664.954V693.444L548.27 707.689L572.899 693.444V664.954Z" fill="#F0E09C" stroke="#E7C943" stroke-width="3"/>
<path id="hex_202" d="M646.92 621.819L622.424 607.574L597.661 621.819V650.309L622.291 664.554L646.92 650.309V621.819Z" fill="#F0E09C" stroke="#E7C943" stroke-width="3"/>
<path id="hex_203" d="M622.157 664.954L597.661 650.709L572.899 664.954V693.444L597.528 707.689L622.157 693.444V664.954Z" fill="#F0E09C" stroke="#E7C943" stroke-width="3"/>
<path id="hex_204" d="M597.383 621.541L572.887 607.296L548.124 621.541V650.031L572.754 664.276L597.383 650.031V621.541Z" fill="#F0E09C" stroke="#E7C943" stroke-width="3"/>
<path id="hex_205" d="M671.682 664.954L647.186 650.709L622.424 664.954V693.444L647.053 707.689L671.682 693.444V664.954Z" fill="#F0E09C" stroke="#E7C943" stroke-width="3"/>
<path id="hex_206" d="M746.092 707.85L721.596 693.605L696.834 707.85V736.34L721.463 750.585L746.092 736.34V707.85Z" fill="#F0E09C" stroke="#E7C943" stroke-width="3"/>
<path id="hex_207" d="M970.355 59.3901L945.859 45.145L921.096 59.3901V87.8802L945.726 102.125L970.355 87.8802V59.3901Z" fill="#F0E09C" stroke="#E7C943" stroke-width="3"/>
<path id="hex_208" d="M896.087 16.2451L871.591 2L846.829 16.2451V44.7352L871.458 58.9802L896.087 44.7352V16.2451Z" fill="#F0E09C" stroke="#E7C943" stroke-width="3"/>
<path id="hex_209" d="M994.851 102.525L970.355 88.2797L945.592 102.525V131.015L970.222 145.26L994.851 131.015V102.525Z" fill="#F0E09C" stroke="#E7C943" stroke-width="3"/>
<path id="hex_210" d="M969.823 145.659L945.327 131.414L920.564 145.659V174.149L945.193 188.394L969.823 174.149V145.659Z" fill="#F0E09C" stroke="#E7C943" stroke-width="3"/>
<path id="hex_211" d="M945.327 102.525L920.83 88.2797L896.068 102.525V131.015L920.697 145.26L945.327 131.015V102.525Z" fill="#F0E09C" stroke="#E7C943" stroke-width="3"/>
<path id="hex_212" d="M895.405 102.395L870.909 88.1503L846.147 102.395V130.885L870.776 145.13L895.405 130.885V102.395Z" fill="#F0E09C" stroke="#E7C943" stroke-width="3"/>
<path id="hex_213" d="M920.83 59.3901L896.334 45.145L871.571 59.3901V87.8802L896.201 102.125L920.83 87.8802V59.3901Z" fill="#F0E09C" stroke="#E7C943" stroke-width="3"/>
<path id="hex_214" d="M994.585 188.794L970.089 174.549L945.326 188.794V217.284L969.956 231.529L994.585 217.284V188.794Z" fill="#F0E09C" stroke="#E7C943" stroke-width="3"/>
<path id="hex_215" d="M945.06 188.794L920.564 174.549L895.801 188.794V217.284L920.431 231.529L945.06 217.284V188.794Z" fill="#F0E09C" stroke="#E7C943" stroke-width="3"/>
<path id="hex_216" d="M920.298 145.659L895.802 131.414L871.039 145.659V174.149L895.669 188.394L920.298 174.149V145.659Z" fill="#F0E09C" stroke="#E7C943" stroke-width="3"/>
<path id="hex_217" d="M895.165 188.848L870.669 174.603L845.906 188.848V217.338L870.536 231.583L895.165 217.338V188.848Z" fill="#F0E09C" stroke="#E7C943" stroke-width="3"/>
<path id="hex_218" d="M895.165 275.117L870.669 260.872L845.906 275.117V303.607L870.536 317.852L895.165 303.607V275.117Z" fill="#F0E09C" stroke="#E7C943" stroke-width="3"/>
<path id="hex_219" d="M969.823 231.928L945.327 217.683L920.564 231.928V260.418L945.193 274.663L969.823 260.418V231.928Z" fill="#F0E09C" stroke="#E7C943" stroke-width="3"/>
<path id="hex_220" d="M920.298 231.928L895.802 217.683L871.039 231.928V260.418L895.669 274.663L920.298 260.418V231.928Z" fill="#F0E09C" stroke="#E7C943" stroke-width="3"/>
<path id="hex_221" d="M945.06 275.063L920.564 260.818L895.801 275.063V303.553L920.431 317.798L945.06 303.553V275.063Z" fill="#F0E09C" stroke="#E7C943" stroke-width="3"/>
<path id="hex_222" d="M994.319 275.063L969.823 260.818L945.06 275.063V303.553L969.69 317.798L994.319 303.553V275.063Z" fill="#F0E09C" stroke="#E7C943" stroke-width="3"/>
<path id="hex_223" d="M796.482 16.2555L771.986 2.0105L747.224 16.2555V44.7457L771.853 58.9907L796.482 44.7457V16.2555Z" fill="#F0E09C" stroke="#E7C943" stroke-width="3"/>
<path id="hex_224" d="M771.454 59.3901L746.957 45.145L722.195 59.3901V87.8802L746.824 102.125L771.454 87.8802V59.3901Z" fill="#F0E09C" stroke="#E7C943" stroke-width="3"/>
<path id="hex_225" d="M796.216 102.525L771.72 88.2797L746.957 102.525V131.015L771.587 145.26L796.216 131.015V102.525Z" fill="#F0E09C" stroke="#E7C943" stroke-width="3"/>
<path id="hex_226" d="M795.95 188.794L771.454 174.549L746.691 188.794V217.284L771.32 231.529L795.95 217.284V188.794Z" fill="#F0E09C" stroke="#E7C943" stroke-width="3"/>
<path id="hex_227" d="M845.741 188.794L821.245 174.549L796.482 188.794V217.284L821.111 231.529L845.741 217.284V188.794Z" fill="#F0E09C" stroke="#E7C943" stroke-width="3"/>
<path id="hex_228" d="M820.979 145.659L796.482 131.414L771.72 145.659V174.149L796.349 188.394L820.979 174.149V145.659Z" fill="#F0E09C" stroke="#E7C943" stroke-width="3"/>
<path id="hex_229" d="M821.245 59.3901L796.748 45.145L771.986 59.3901V87.8802L796.615 102.125L821.245 87.8802V59.3901Z" fill="#F0E09C" stroke="#E7C943" stroke-width="3"/>
<path id="hex_230" d="M846.273 16.2555L821.777 2.0105L797.015 16.2555V44.7457L821.644 58.9907L846.273 44.7457V16.2555Z" fill="#F0E09C" stroke="#E7C943" stroke-width="3"/>
<path id="hex_231" d="M770.921 231.928L746.425 217.683L721.662 231.928V260.418L746.292 274.663L770.921 260.418V231.928Z" fill="#F0E09C" stroke="#E7C943" stroke-width="3"/>
<path id="hex_232" d="M944.194 620.119L919.698 605.874L894.936 620.119V648.609L919.565 662.854L944.194 648.609V620.119Z" fill="#F0E09C" stroke="#E7C943" stroke-width="3"/>
<path id="hex_233" d="M919.432 576.984L894.935 562.739L870.173 576.984V605.474L894.802 619.719L919.432 605.474V576.984Z" fill="#F0E09C" stroke="#E7C943" stroke-width="3"/>
<path id="hex_234" d="M894.814 533.909L870.318 519.664L845.556 533.909V562.399L870.185 576.644L894.814 562.399V533.909Z" fill="#F0E09C" stroke="#E7C943" stroke-width="3"/>
<path id="hex_235" d="M894.299 620.173L869.803 605.928L845.04 620.173V648.663L869.67 662.908L894.299 648.663V620.173Z" fill="#F0E09C" stroke="#E7C943" stroke-width="3"/>
<path id="hex_236" d="M920.497 318.177L896 303.932L871.238 318.177V346.667L895.867 360.912L920.497 346.667V318.177Z" fill="#F0E09C" stroke="#E7C943" stroke-width="3"/>
<path id="hex_237" d="M970.021 318.177L945.525 303.932L920.763 318.177V346.667L945.392 360.912L970.021 346.667V318.177Z" fill="#F0E09C" stroke="#E7C943" stroke-width="3"/>
<path id="hex_238" d="M894.299 706.443L869.803 692.197L845.04 706.443V734.933L869.67 749.178L894.299 734.933V706.443Z" fill="#F0E09C" stroke="#E7C943" stroke-width="3"/>
<path id="hex_239" d="M919.432 663.254L894.935 649.009L870.173 663.254V691.744L894.802 705.989L919.432 691.744V663.254Z" fill="#F0E09C" stroke="#E7C943" stroke-width="3"/>
<path id="hex_240" d="M944.194 706.388L919.698 692.143L894.936 706.388V734.878L919.565 749.123L944.194 734.878V706.388Z" fill="#F0E09C" stroke="#E7C943" stroke-width="3"/>
<path id="hex_241" d="M993.453 706.388L968.956 692.143L944.194 706.388V734.878L968.823 749.123L993.453 734.878V706.388Z" fill="#F0E09C" stroke="#E7C943" stroke-width="3"/>
<path id="hex_242" d="M969.899 404.685L945.403 390.439L920.64 404.685V433.175L945.27 447.42L969.899 433.175V404.685Z" fill="#F0E09C" stroke="#E7C943" stroke-width="3"/>
<path id="hex_243" d="M945.136 361.55L920.64 347.305L895.878 361.55V390.04L920.507 404.285L945.136 390.04V361.55Z" fill="#F0E09C" stroke="#E7C943" stroke-width="3"/>
<path id="hex_244" d="M920.004 404.739L895.508 390.494L870.745 404.739V433.229L895.375 447.474L920.004 433.229V404.739Z" fill="#F0E09C" stroke="#E7C943" stroke-width="3"/>
<path id="hex_245" d="M920.004 491.008L895.508 476.763L870.745 491.008V519.498L895.375 533.743L920.004 519.498V491.008Z" fill="#F0E09C" stroke="#E7C943" stroke-width="3"/>
<path id="hex_246" d="M894.997 447.526L870.5 433.281L845.738 447.526V476.017L870.367 490.262L894.997 476.017V447.526Z" fill="#F0E09C" stroke="#E7C943" stroke-width="3"/>
<path id="hex_247" d="M895.569 361.55L871.073 347.305L846.31 361.55V390.04L870.94 404.285L895.569 390.04V361.55Z" fill="#F0E09C" stroke="#E7C943" stroke-width="3"/>
<path id="hex_248" d="M994.76 533.909L970.264 519.664L945.502 533.909V562.399L970.131 576.644L994.76 562.399V533.909Z" fill="#F0E09C" stroke="#E7C943" stroke-width="3"/>
<path id="hex_249" d="M771.485 319.301L746.915 305.064L722.078 319.301V347.776L746.781 362.014L771.485 347.776V319.301Z" fill="#F0E09C" stroke="#E7C943" stroke-width="3"/>
<path id="hex_250" d="M821.27 319.301L796.7 305.064L771.862 319.301V347.776L796.566 362.014L821.27 347.776V319.301Z" fill="#F0E09C" stroke="#E7C943" stroke-width="3"/>
<path id="hex_251" d="M796 362.297L771.43 348.059L746.593 362.297V390.772L771.296 405.009L796 390.772V362.297Z" fill="#F0E09C" stroke="#E7C943" stroke-width="3"/>
<path id="hex_252" d="M771.108 405.669L746.538 391.432L721.701 405.669V434.144L746.404 448.382L771.108 434.144V405.669Z" fill="#F0E09C" stroke="#E7C943" stroke-width="3"/>
<path id="hex_253" d="M820.892 405.669L796.322 391.432L771.485 405.669V434.144L796.189 448.382L820.892 434.144V405.669Z" fill="#F0E09C" stroke="#E7C943" stroke-width="3"/>
<path id="hex_254" d="M796 448.665L771.242 434.427L746.216 448.665V477.14L771.108 491.377L796 477.14V448.665Z" fill="#F0E09C" stroke="#E7C943" stroke-width="3"/>
<path id="hex_255" d="M820.892 492.038L796.135 477.8L771.108 492.038V520.513L796 534.75L820.892 520.513V492.038Z" fill="#F0E09C" stroke="#E7C943" stroke-width="3"/>
<path id="hex_256" d="M820.515 578.028L795.945 563.791L771.108 578.028V606.504L795.812 620.741L820.515 606.504V578.028Z" fill="#F0E09C" stroke="#E7C943" stroke-width="3"/>
<path id="hex_257" d="M770.731 492.038L746.161 477.8L721.324 492.038V520.513L746.027 534.75L770.731 520.513V492.038Z" fill="#F0E09C" stroke="#E7C943" stroke-width="3"/>
<path id="hex_258" d="M770.354 578.028L745.783 563.791L720.946 578.028V606.504L745.65 620.741L770.354 606.504V578.028Z" fill="#F0E09C" stroke="#E7C943" stroke-width="3"/>
<path id="hex_259" d="M870.677 578.028L845.919 563.791L820.892 578.028V606.504L845.785 620.741L870.677 606.504V578.028Z" fill="#F0E09C" stroke="#E7C943" stroke-width="3"/>
<path id="hex_260" d="M845.784 535.033L821.027 520.795L796 535.033V563.508L820.892 577.746L845.784 563.508V535.033Z" fill="#F0E09C" stroke="#E7C943" stroke-width="3"/>
<path id="hex_261" d="M845.784 448.665L821.214 434.427L796.377 448.665V477.14L821.081 491.377L845.784 477.14V448.665Z" fill="#F0E09C" stroke="#E7C943" stroke-width="3"/>
<path id="hex_262" d="M871.054 405.669L846.484 391.432L821.647 405.669V434.144L846.35 448.382L871.054 434.144V405.669Z" fill="#F0E09C" stroke="#E7C943" stroke-width="3"/>
<path id="hex_263" d="M846.162 362.297L821.592 348.059L796.754 362.297V390.772L821.458 405.009L846.162 390.772V362.297Z" fill="#F0E09C" stroke="#E7C943" stroke-width="3"/>
<path id="hex_264" d="M871.054 319.301L846.484 305.064L821.647 319.301V347.776L846.35 362.014L871.054 347.776V319.301Z" fill="#F0E09C" stroke="#E7C943" stroke-width="3"/>
<path id="hex_265" d="M770.354 664.397L745.596 650.159L720.569 664.397V692.872L745.461 707.109L770.354 692.872V664.397Z" fill="#F0E09C" stroke="#E7C943" stroke-width="3"/>
<path id="hex_266" d="M845.407 621.401L820.837 607.164L796 621.401V649.876L820.704 664.114L845.407 649.876V621.401Z" fill="#F0E09C" stroke="#E7C943" stroke-width="3"/>
<path id="hex_267" d="M870.299 664.397L845.729 650.159L820.892 664.397V692.872L845.596 707.109L870.299 692.872V664.397Z" fill="#F0E09C" stroke="#E7C943" stroke-width="3"/>
<path id="hex_268" d="M820.138 664.397L795.568 650.159L770.731 664.397V692.872L795.435 707.109L820.138 692.872V664.397Z" fill="#F0E09C" stroke="#E7C943" stroke-width="3"/>
<path id="hex_269" d="M870.677 492.038L846.107 477.8L821.27 492.038V520.513L845.973 534.75L870.677 520.513V492.038Z" fill="#F0E09C" stroke="#E7C943" stroke-width="3"/>
<path id="hex_270" d="M795.623 707.392L771.053 693.155L746.216 707.392V735.867L770.919 750.105L795.623 735.867V707.392Z" fill="#F0E09C" stroke="#E7C943" stroke-width="3"/>
<path id="hex_271" d="M845.407 707.392L820.837 693.155L796 707.392V735.867L820.704 750.105L845.407 735.867V707.392Z" fill="#F0E09C" stroke="#E7C943" stroke-width="3"/>
<path id="hex_272" d="M945.136 447.819L920.64 433.574L895.878 447.819V476.309L920.507 490.554L945.136 476.309V447.819Z" fill="#F0E09C" stroke="#E7C943" stroke-width="3"/>
<path id="hex_273" d="M969.899 490.954L945.403 476.709L920.64 490.954V519.444L945.27 533.689L969.899 519.444V490.954Z" fill="#F0E09C" stroke="#E7C943" stroke-width="3"/>
<path id="hex_274" d="M994.383 447.541L969.887 433.296L945.124 447.541V476.031L969.754 490.276L994.383 476.031V447.541Z" fill="#F0E09C" stroke="#E7C943" stroke-width="3"/>
</g>
</svg>
